<svg width="18" height="18" viewBox="0 0 18 18" fill="none" xmlns="http://www.w3.org/2000/svg">
  <path
    d="M18 14.2207C18 14.1328 18 14.0274 17.9649 13.9395C17.8594 13.6231 15.293 12.3223 14.8008 12.041C14.4668 11.8477 14.0625 11.461 13.6582 11.461C12.8848 11.461 11.7422 13.7637 11.0567 13.7637C10.7051 13.7637 10.2656 13.4473 9.94923 13.2715C7.6289 11.9707 6.02929 10.3711 4.72852 8.0508C4.55275 7.73438 4.23633 7.29495 4.23633 6.94337C4.23633 6.25781 6.53907 5.11523 6.53907 4.34181C6.53907 3.93751 6.15236 3.53321 5.95899 3.19923C5.67774 2.70704 4.37694 0.140613 4.06056 0.0351612C3.97267 4.31669e-07 3.86719 0 3.7793 0C3.32228 0 2.42578 0.210934 2.00392 0.386707C0.843766 0.914056 0 3.12891 0 4.34178C0 5.51953 0.474624 6.59179 0.878896 7.68162C2.28514 11.5312 6.46875 15.7149 10.3184 17.1211C11.4082 17.5254 12.4805 18 13.6582 18C14.8711 18 17.086 17.1562 17.6133 15.9961C17.7891 15.5742 18 14.6778 18 14.2207Z"
    fill="white"/>
</svg>
