<svg width="34" height="25" viewBox="0 0 34 25" fill="none" xmlns="http://www.w3.org/2000/svg">
<path d="M7.21924 5.66401V15.664L14.5 20.4999L33 15.9999V5.99994M7.21924 5.66401L14.5 10.4999L33 5.99994M7.21924 5.66401L25.7192 1.16411L33 5.99994" stroke="#008264" stroke-width="2" stroke-linejoin="round"/>
<path fill-rule="evenodd" clip-rule="evenodd" d="M11.6956 8.80007L29.5467 4.25403L27.2713 2.85228L10.4486 7.05388C10.0056 7.16677 9.69556 7.56574 9.69556 8.02292L9.69556 11.0938L11.6956 12.4897L11.6956 8.80007Z" fill="#008264"/>
<path d="M3.65479 7.68876L7.21925 6.78052" stroke="#008264" stroke-width="2" stroke-linejoin="round"/>
<path d="M0.658691 12.4235L6.90434 10.832" stroke="#008264" stroke-width="2" stroke-linejoin="round"/>
<ellipse cx="20" cy="20.7526" rx="3" ry="3.75256" fill="#008264"/>
<ellipse cx="29.1887" cy="18.5201" rx="3" ry="3.75256" fill="#008264"/>
<path d="M21.5867 20.6405C21.5867 22.7129 22.028 25.0713 18.5867 24.393C17.1682 24.1134 15.6729 22.7129 15.6729 20.6405C15.6729 18.568 17.2083 19.8674 18.8652 19.8674C20.522 19.8674 21.5867 18.568 21.5867 20.6405Z" fill="#008264"/>
<path d="M30.7755 18.408C30.7755 20.4805 31.2167 22.8389 27.7755 22.1606C26.3569 21.881 24.8617 20.4805 24.8617 18.408C24.8617 16.3356 26.397 17.635 28.0539 17.635C29.7108 17.635 30.7755 16.3356 30.7755 18.408Z" fill="#008264"/>
</svg>
