<svg width="31" height="30" viewBox="0 0 31 30" fill="none" xmlns="http://www.w3.org/2000/svg">
  <path d="M4 16L20 4" stroke="#002677" stroke-width="2" stroke-linejoin="round"/>
  <circle cx="3.03333" cy="16.8" r="2" stroke="#002677" stroke-width="2" stroke-linejoin="round"/>
  <circle cx="21.2649" cy="3" r="2" stroke="#002677" stroke-width="2" stroke-linejoin="round"/>
  <circle cx="12.5001" cy="9.62915" r="2" fill="#002677" stroke="#002677" stroke-width="2" stroke-linejoin="round"/>
  <path fill-rule="evenodd" clip-rule="evenodd"
        d="M18.163 8.05335C18.5258 8.01804 18.8934 8 19.2649 8C19.6364 8 20.004 8.01804 20.3668 8.05335L20.173 10.0439C19.8745 10.0149 19.5716 10 19.2649 10C18.9582 10 18.6553 10.0149 18.3568 10.0439L18.163 8.05335ZM13.9604 9.32689C14.6047 8.98179 15.2867 8.69748 15.9987 8.48177L16.5786 10.3958C15.9942 10.5729 15.4341 10.8063 14.9047 11.0899L13.9604 9.32689ZM22.5311 8.48177C23.2431 8.69748 23.9251 8.98179 24.5694 9.32689L23.6251 11.0899C23.0957 10.8063 22.5356 10.5729 21.9512 10.3958L22.5311 8.48177ZM10.5691 12.1123C11.0366 11.5433 11.5589 11.021 12.1279 10.5535L13.3975 12.0988C12.9292 12.4837 12.4992 12.9136 12.1144 13.382L10.5691 12.1123ZM8.49733 15.9831C8.71305 15.2711 8.99735 14.5891 9.34246 13.9448L11.1055 14.8891C10.8219 15.4186 10.5885 15.9787 10.4114 16.5631L8.49733 15.9831ZM8.01556 19.2493C8.01556 18.8778 8.03361 18.5103 8.06891 18.1475L10.0595 18.3412C10.0305 18.6397 10.0156 18.9426 10.0156 19.2493C10.0156 19.6161 10.0369 19.9774 10.0782 20.3323L8.09163 20.5637C8.04136 20.1322 8.01556 19.6936 8.01556 19.2493ZM9.89138 25.471C9.40801 24.7441 9.00672 23.9574 8.70101 23.1242L10.5786 22.4353C10.8296 23.1193 11.1592 23.7657 11.5568 24.3636L9.89138 25.471ZM12.6063 28.3172C12.2519 28.0566 11.9135 27.7757 11.5926 27.4763L12.9569 26.014C13.2211 26.2604 13.4997 26.4916 13.7912 26.706C13.9877 26.8505 14.6375 27.1842 14.8453 27.313L13.7912 29.0127C13.5385 28.856 13.0919 28.6743 12.6063 28.3172Z"
        fill="#002677"/>
  <path
    d="M19.3935 14.1577C19.3158 13.3081 20.2692 12.7576 20.9661 13.2497L29.0234 18.9388C29.736 19.4419 29.5078 20.5525 28.6545 20.7338L25.0391 21.502C24.8324 21.5459 24.645 21.6541 24.5037 21.8111L22.0307 24.5581C21.447 25.2064 20.3711 24.8488 20.2917 23.9801L19.3935 14.1577Z"
    fill="white" stroke="#002677" stroke-width="2" stroke-linejoin="round"/>
</svg>
