<svg width="119" height="54" viewBox="0 0 119 54" fill="none" xmlns="http://www.w3.org/2000/svg">
  <path d="M13.5943 47.622V53.5801H12.8391V47.622H10.6992V46.9927H15.7342V47.622H13.5943Z" fill="#002677"/>
  <path
    d="M18.8809 53.7482V46.951H19.6361V51.902H19.6781L23.9578 46.7412H24.1256V53.5384H23.3704V48.5874H23.3284L19.0487 53.7482H18.8809Z"
    fill="#002677"/>
  <path d="M33.357 46.9927V53.5801H32.6018V47.622H28.8256V53.5801H28.0703V46.9927H33.357Z" fill="#002677"/>
  <path
    d="M36.7549 50.2657C36.7549 49.8042 36.8808 49.3427 37.0905 48.9231C37.3003 48.5035 37.594 48.1259 37.9297 47.8322C38.2654 47.4965 38.685 47.2447 39.1465 47.0769C39.608 46.9091 40.1115 46.7832 40.615 46.7832C41.1185 46.7832 41.622 46.8671 42.0836 47.0769C42.5451 47.2447 42.9647 47.4965 43.3003 47.8322C43.636 48.1678 43.9297 48.5035 44.1395 48.9231C44.3493 49.3427 44.4752 49.8042 44.4752 50.2657C44.4752 50.7273 44.3493 51.1888 44.1395 51.6084C43.9297 52.028 43.636 52.4056 43.3003 52.6993C42.9647 53.035 42.5451 53.2867 42.0836 53.4545C41.622 53.6224 41.1185 53.7483 40.615 53.7483C40.1115 53.7483 39.608 53.6643 39.1465 53.4545C38.685 53.2867 38.2654 53.035 37.9297 52.6993C37.594 52.3636 37.3003 52.028 37.0905 51.6084C36.8388 51.1888 36.7549 50.7692 36.7549 50.2657ZM43.636 50.2657C43.636 49.8881 43.5521 49.5105 43.3843 49.1748C43.2164 48.8391 43.0066 48.5454 42.7129 48.2517C42.4192 48 42.1255 47.7902 41.7479 47.6224C41.3703 47.4545 40.9926 47.4126 40.615 47.4126C40.2374 47.4126 39.8598 47.4965 39.4822 47.6224C39.1045 47.7902 38.7689 47.958 38.5171 48.2517C38.2234 48.5035 38.0136 48.7972 37.8458 49.1748C37.678 49.5105 37.594 49.8881 37.594 50.2657C37.594 50.6433 37.678 51.021 37.8458 51.3566C38.0136 51.6923 38.2234 51.986 38.5171 52.2797C38.8108 52.5315 39.1045 52.7413 39.4822 52.9091C39.8598 53.0769 40.2374 53.1189 40.615 53.1189C41.0346 53.1189 41.4122 53.035 41.7479 52.9091C42.0836 52.7832 42.4192 52.5734 42.7129 52.2797C43.0066 52.028 43.2164 51.7343 43.3843 51.3566C43.5521 51.021 43.636 50.6853 43.636 50.2657Z"
    fill="#002677"/>
  <path d="M48.5453 47.622V53.5801H47.79V46.9927H51.6502V47.622H48.5453Z" fill="#002677"/>
  <path
    d="M59.4542 49.2584C59.4542 49.5521 59.3703 49.8458 59.2444 50.1395C59.1185 50.3913 58.9087 50.643 58.657 50.8528C58.4052 51.0626 58.0696 51.2304 57.7339 51.3563C57.3563 51.4822 56.9367 51.5241 56.5171 51.5241H55.5101V53.5801H54.7549V46.9927H56.5171C56.9787 46.9927 57.3982 47.0346 57.7339 47.1605C58.1115 47.2864 58.4052 47.4542 58.657 47.664C58.9087 47.8738 59.1185 48.1255 59.2444 48.3773C59.3703 48.629 59.4542 48.9227 59.4542 49.2584ZM56.4752 50.8528C56.8108 50.8528 57.1045 50.8108 57.3982 50.7269C57.6919 50.643 57.9017 50.5171 58.1115 50.3913C58.3213 50.2234 58.4472 50.0556 58.5731 49.8878C58.657 49.678 58.7409 49.4682 58.7409 49.2584C58.7409 49.0486 58.6989 48.8388 58.5731 48.629C58.4891 48.4192 58.3213 48.2514 58.1115 48.1255C57.9017 47.9577 57.6919 47.8738 57.3982 47.7899C57.1465 47.706 56.8108 47.664 56.4752 47.664H55.4682V50.8948H56.4752V50.8528Z"
    fill="#002677"/>
  <path
    d="M67.6366 53.5803H66.8394L66.3359 52.3635H62.7694L62.266 53.5803H61.4688L64.5317 46.6152H64.5736L67.6366 53.5803ZM63.0632 51.6922H66.0422L64.5736 48.2096H64.5317L63.0632 51.6922Z"
    fill="#002677"/>
  <path
    d="M73.8886 46.5312H74.6439V47.4124C75.1893 47.4124 75.7348 47.4963 76.1543 47.6641C76.6159 47.832 76.9935 47.9998 77.3292 48.2935C77.6648 48.5452 77.8746 48.8389 78.0844 49.1746C78.2522 49.5103 78.3362 49.8879 78.3362 50.2655C78.3362 50.6431 78.2522 51.0208 78.0844 51.3564C77.9166 51.6921 77.6648 51.9858 77.3292 52.2376C76.9935 52.4893 76.6159 52.6991 76.1543 52.8669C75.6928 53.0348 75.1893 53.1187 74.6439 53.1187V53.9998H73.8886V53.1187C73.3431 53.1187 72.7977 53.0348 72.3781 52.8669C71.9166 52.6991 71.5389 52.5313 71.2033 52.2376C70.8676 51.9858 70.6578 51.6921 70.448 51.3564C70.2382 51.0208 70.1963 50.6431 70.1963 50.2655C70.1963 49.8879 70.2802 49.5103 70.448 49.1746C70.6159 48.8389 70.8676 48.5452 71.2033 48.2935C71.5389 48.0417 71.9166 47.832 72.3781 47.6641C72.8397 47.4963 73.3431 47.4124 73.8886 47.4124V46.5312ZM73.8886 48.0417C73.469 48.0417 73.0494 48.0837 72.7138 48.2096C72.3781 48.3354 72.0424 48.4613 71.7907 48.6711C71.5389 48.8809 71.3292 49.0907 71.2033 49.3844C71.0774 49.6781 70.9935 49.9299 70.9935 50.2655C70.9935 50.5592 71.0774 50.8529 71.2033 51.1466C71.3292 51.4403 71.5389 51.6501 71.7907 51.8599C72.0424 52.0697 72.3362 52.2375 72.7138 52.3215C73.0494 52.4473 73.469 52.4893 73.8886 52.4893V48.0417ZM74.6439 52.4893C75.0634 52.4893 75.483 52.4473 75.8187 52.3215C76.1543 52.1956 76.49 52.0697 76.7418 51.8599C76.9935 51.6501 77.2033 51.4403 77.3292 51.1466C77.455 50.8949 77.539 50.6012 77.539 50.2655C77.539 49.9718 77.455 49.6781 77.3292 49.3844C77.2033 49.1326 76.9935 48.8809 76.7418 48.6711C76.49 48.4613 76.1963 48.2935 75.8187 48.2096C75.483 48.0837 75.0634 48.0417 74.6439 48.0417V52.4893Z"
    fill="#002677"/>
  <path
    d="M81.6924 53.7482V46.951H82.4476V51.902H82.4896L86.7693 46.7412H86.9371V53.5384H86.1819V48.5874H86.1399L81.8602 53.7482H81.6924Z"
    fill="#002677"/>
  <path
    d="M92.0981 50.8528V50.8109C91.8464 50.727 91.5946 50.6011 91.3429 50.4333C91.1331 50.2654 90.9653 50.0976 90.8394 49.8878C90.7135 49.678 90.6296 49.3843 90.6296 49.0067C90.6296 48.7549 90.7135 48.4612 90.8394 48.2515C90.9653 47.9997 91.1331 47.7899 91.3848 47.6221C91.6366 47.4542 91.8883 47.2864 92.224 47.2025C92.5597 47.0766 92.9373 47.0347 93.3569 47.0347H95.6226V53.6221H94.8673V51.0626H92.8534L91.175 53.6221H90.252L92.0981 50.8528ZM94.8673 50.3913V47.6221H93.3569C93.0632 47.6221 92.8114 47.664 92.5596 47.7479C92.3079 47.8319 92.1401 47.9158 91.9722 48.0417C91.8044 48.1675 91.6785 48.2934 91.5946 48.4612C91.5107 48.6291 91.4687 48.7969 91.4687 49.0067C91.4687 49.1745 91.5107 49.3843 91.5946 49.5522C91.6785 49.72 91.8044 49.8459 91.9722 49.9717C92.1401 50.0976 92.3499 50.1815 92.5596 50.2654C92.8114 50.3494 93.0632 50.3913 93.3569 50.3913H94.8673Z"
    fill="#002677"/>
  <path
    d="M19.4686 0C8.72729 0 0 8.72728 0 19.4686V53.6644H6.79721V34.2378C10.1958 37.1749 14.6014 38.9371 19.4686 38.9371C30.2098 38.9371 38.9371 30.2098 38.9371 19.4686C38.9371 8.72728 30.2098 0 19.4686 0ZM19.4686 32.056C12.5455 32.056 6.88113 26.3916 6.88113 19.4686C6.88113 12.5455 12.5455 6.88113 19.4686 6.88113C26.3916 6.88113 32.056 12.5455 32.056 19.4686C32.056 26.3916 26.3916 32.056 19.4686 32.056Z"
    fill="#002677"/>
  <path
    d="M71.4963 0C66.6291 0 62.3074 2.22378 59.4963 5.74826C56.6851 2.26574 52.3634 0 47.4962 0C38.9787 0 32.0557 6.92308 32.0557 15.4406V38.9371H38.9368V15.4406C38.9368 10.6993 42.7969 6.88113 47.4962 6.88113C52.2375 6.88113 56.0557 10.7413 56.0557 15.4406V38.9371H62.9368V15.4406C62.9368 10.6993 66.797 6.88113 71.4963 6.88113C76.2375 6.88113 80.0557 10.7413 80.0557 15.4406V38.9371H86.9368V15.4406C86.9368 6.92308 80.0138 0 71.4963 0Z"
    fill="#002677"/>
  <path
    d="M99.4822 0C88.741 0 80.0137 8.72728 80.0137 19.4686C80.0137 30.2098 88.741 38.9371 99.4822 38.9371C104.265 38.9371 108.671 37.1749 112.07 34.3217C112.028 41.2029 106.405 46.8252 99.4822 46.8252V53.6644C110.182 53.6644 118.825 45.063 118.951 34.4056V19.5105C118.951 8.72729 110.224 0 99.4822 0ZM99.4822 32.056C92.5591 32.056 86.8948 26.3916 86.8948 19.4686C86.8948 12.5455 92.5591 6.88113 99.4822 6.88113C106.405 6.88113 112.07 12.5455 112.07 19.4686C112.07 26.3916 106.447 32.056 99.4822 32.056Z"
    fill="#002677"/>
</svg>
