<svg width="97" height="49" viewBox="0 0 97 49" fill="none" xmlns="http://www.w3.org/2000/svg">
<path d="M30.3663 46.5687L30.2776 45.0713L30.3663 46.5687ZM76.7998 0.401711C53.3126 5.92953 24.6175 18.1678 10.1574 28.6142C6.5468 31.2226 3.70038 33.8052 2.06962 36.235C1.25048 37.4555 0.676646 38.7271 0.534285 40.0126C0.386686 41.3453 0.714189 42.6172 1.56171 43.7216C2.37967 44.7876 3.61326 45.6108 5.14597 46.2482C6.68599 46.8886 8.61651 47.3784 10.9418 47.7251C15.5904 48.4183 22.0074 48.5664 30.455 48.0661L30.2776 45.0713C21.9217 45.5662 15.7385 45.4072 11.3842 44.7579C9.20801 44.4334 7.5364 43.9932 6.29791 43.4781C5.05211 42.96 4.3308 42.4023 3.94174 41.8953C3.58225 41.4268 3.45062 40.9336 3.51606 40.3428C3.58673 39.7046 3.89809 38.8939 4.56059 37.9068C5.8931 35.9214 8.39572 33.5878 11.9142 31.046C25.97 20.8918 54.2702 8.78613 77.4871 3.32192L76.7998 0.401711ZM30.455 48.0661C52.6358 46.7523 68.9234 43.5155 79.7288 39.5532C85.1255 37.5742 89.2263 35.3885 92.0146 33.1158C94.7711 30.869 96.4615 28.3512 96.4994 25.7013C96.5383 22.9789 94.8368 20.7052 92.1622 18.9912C89.486 17.2761 85.6201 15.9607 80.7217 15.1259C70.9036 13.4529 56.5321 13.6442 38.1062 16.8727L38.624 19.8277C56.8501 16.6342 70.853 16.4875 80.2177 18.0833C84.9107 18.883 88.3383 20.1038 90.5435 21.517C92.7503 22.9312 93.518 24.3779 93.4997 25.6584C93.4803 27.0114 92.5871 28.7789 90.1193 30.7904C87.6833 32.7758 83.9191 34.8212 78.696 36.7366C68.2616 40.5628 52.2898 43.7676 30.2776 45.0713L30.455 48.0661Z" fill="white"/>
</svg>
