<svg width="58" height="36" viewBox="0 0 58 36" fill="none" xmlns="http://www.w3.org/2000/svg">
  <rect x="0.5" y="0.5" width="57" height="35" rx="7.5" stroke="#EFEFEF"/>
  <circle cx="23" cy="18" r="10" fill="#EB001B"/>
  <path
    d="M45.3199 18C45.3199 23.5228 40.8428 28 35.3199 28C32.6715 28 30.2635 26.9704 28.4744 25.2897C26.5327 23.4655 29.9069 20.8744 29.9069 18C29.9069 15.1256 26.5327 12.5345 28.4744 10.7103C30.2635 9.02958 32.6715 8 35.3199 8C40.8428 8 45.3199 12.4772 45.3199 18Z"
    fill="#F79E1B"/>
  <path
    d="M29.1599 25.8783C31.4976 24.0478 33 21.1994 33 18.0002C33 14.8009 31.4976 11.9525 29.1599 10.1221C26.8222 11.9525 25.3198 14.8009 25.3198 18.0002C25.3198 21.1994 26.8222 24.0478 29.1599 25.8783Z"
    fill="#FF5F00"/>
</svg>
