<svg width="48" height="48" viewBox="0 0 48 48" fill="none" xmlns="http://www.w3.org/2000/svg">
<rect width="48" height="48" rx="16" fill="#EFEFEF"/>
<g clip-path="url(#clip0_1757_12910)">
<path d="M26.7 26.7C24.5 28.97 24.34 31.8 24.15 38C29.93 38 33.92 37.98 35.98 35.98C37.98 33.92 38 29.74 38 24.15C31.8 24.35 28.97 24.5 26.7 26.7M10 24.15C10 29.74 10.02 33.92 12.02 35.98C14.08 37.98 18.07 38 23.85 38C23.65 31.8 23.5 28.97 21.3 26.7C19.03 24.5 16.2 24.34 10 24.15M23.85 10C18.08 10 14.08 10.02 12.02 12.02C10.02 14.08 10 18.26 10 23.85C16.2 23.65 19.03 23.5 21.3 21.3C23.5 19.03 23.66 16.2 23.85 10M26.7 21.3C24.5 19.03 24.34 16.2 24.15 10C29.93 10 33.92 10.02 35.98 12.02C37.98 14.08 38 18.26 38 23.85C31.8 23.65 28.97 23.5 26.7 21.3" fill="#002677"/>
<path d="M38 24.15V23.85C31.8 23.65 28.97 23.5 26.7 21.3C24.5 19.03 24.34 16.2 24.15 10H23.85C23.65 16.2 23.5 19.03 21.3 21.3C19.03 23.5 16.2 23.66 10 23.85V24.15C16.2 24.35 19.03 24.5 21.3 26.7C23.5 28.97 23.66 31.8 23.85 38H24.15C24.35 31.8 24.5 28.97 26.7 26.7C28.97 24.5 31.8 24.34 38 24.15" fill="white"/>
</g>
<defs>
<clipPath id="clip0_1757_12910">
<rect width="28" height="28" fill="white" transform="translate(10 10)"/>
</clipPath>
</defs>
</svg>
