<svg width="37" height="37" viewBox="0 0 37 37" fill="none" xmlns="http://www.w3.org/2000/svg">
  <path d="M34.9324 18.2025C34.451 17.656 33.8455 17.2329 33.1667 16.9688C32.4879 16.7047 31.7557 16.6072 31.0315 16.6846C30.8092 16.7002 30.586 16.7002 30.3637 16.6846C28.7534 16.6846 27.2092 16.045 26.0705 14.9064C24.9319 13.7678 24.2923 12.2235 24.2923 10.6133C24.2858 9.47188 24.6129 8.35347 25.2333 7.39543C25.6266 6.78428 25.8679 6.08787 25.9371 5.36441C26.0062 4.64095 25.9012 3.91146 25.6307 3.23689C25.3603 2.56232 24.9324 1.96227 24.3826 1.4869C23.8329 1.01153 23.1774 0.674635 22.4709 0.504389C18.9552 -0.340642 15.2675 -0.120149 11.8775 1.13778C8.48758 2.39571 5.54873 4.63415 3.43528 7.56802C1.32183 10.5019 0.129438 13.9984 0.00995098 17.6123C-0.109536 21.2261 0.849297 24.7938 2.76433 27.8608C4.67937 30.9279 7.46394 33.3556 10.7634 34.8347C14.0629 36.3138 17.7279 36.7774 21.2918 36.1665C24.8556 35.5555 28.157 33.8976 30.7754 31.404C33.3938 28.9104 35.2108 25.6939 35.9949 22.1641C36.14 21.4667 36.1195 20.7449 35.9349 20.0569C35.7504 19.3688 35.407 18.7337 34.9324 18.2025ZM33.0199 21.5721C32.4805 24.0736 31.3175 26.3982 29.6388 28.3296C27.9602 30.2611 25.8205 31.7368 23.4186 32.6196C21.0167 33.5024 18.4306 33.7636 15.9007 33.3789C13.3708 32.9942 10.9792 31.9761 8.94824 30.4193C6.91729 28.8625 5.31292 26.8175 4.28426 24.4743C3.2556 22.1312 2.83605 19.566 3.06461 17.0173C3.29316 14.4685 4.16241 12.0189 5.59153 9.89614C7.02066 7.7734 8.96328 6.04644 11.2388 4.8758C14.4733 3.18471 18.2151 2.73655 21.7575 3.61598C21.9919 3.67357 22.2092 3.78622 22.3913 3.9446C22.5735 4.10299 22.7152 4.30254 22.8048 4.52667C22.8957 4.75 22.9321 4.99178 22.911 5.23198C22.8899 5.47218 22.8119 5.70389 22.6834 5.90792C21.7623 7.33815 21.2723 9.0032 21.2718 10.7043C21.2718 13.1197 22.2313 15.4361 23.9392 17.144C25.6471 18.8519 27.9635 19.8114 30.3788 19.8114C30.7175 19.8341 31.0572 19.8341 31.3958 19.8114C31.6352 19.7866 31.877 19.8192 32.1013 19.9062C32.3256 19.9933 32.526 20.1325 32.686 20.3123C32.8344 20.483 32.9427 20.6847 33.0031 20.9027C33.0635 21.1207 33.0744 21.3494 33.0351 21.5721H33.0199ZM13.6825 15.2579C14.5831 15.2579 15.4635 14.9908 16.2123 14.4905C16.9612 13.9901 17.5448 13.2789 17.8895 12.4469C18.2341 11.6148 18.3243 10.6993 18.1486 9.81598C17.9729 8.93268 17.5392 8.1213 16.9024 7.48448C16.2655 6.84765 15.4542 6.41398 14.5709 6.23828C13.6876 6.06258 12.772 6.15275 11.94 6.4974C11.1079 6.84205 10.3968 7.42567 9.89641 8.1745C9.39606 8.92333 9.12899 9.80372 9.12899 10.7043C9.12899 11.912 9.60874 13.0702 10.4627 13.9242C11.3167 14.7781 12.4749 15.2579 13.6825 15.2579ZM12.1647 9.18647H15.2004V12.2222H12.1647V9.18647ZM10.6468 16.7757C9.74624 16.7757 8.86586 17.0428 8.11703 17.5431C7.36821 18.0435 6.78457 18.7546 6.43992 19.5867C6.09527 20.4187 6.0051 21.3343 6.1808 22.2176C6.35649 23.1009 6.79018 23.9123 7.427 24.5491C8.06383 25.1859 8.87519 25.6196 9.75849 25.7953C10.6418 25.971 11.5574 25.8808 12.3894 25.5362C13.2215 25.1915 13.9326 24.6079 14.433 23.8591C14.9333 23.1102 15.2004 22.2299 15.2004 21.3293C15.2004 20.1216 14.7206 18.9634 13.8667 18.1094C13.0127 17.2555 11.8545 16.7757 10.6468 16.7757ZM12.1647 22.8471H9.12899V19.8114H12.1647V22.8471ZM21.2718 21.3293C20.3712 21.3293 19.4908 21.5963 18.742 22.0967C17.9931 22.597 17.4095 23.3082 17.0648 24.1402C16.7202 24.9723 16.63 25.8878 16.8057 26.7711C16.9814 27.6544 17.4151 28.4658 18.0519 29.1026C18.6888 29.7395 19.5001 30.1731 20.3834 30.3488C21.2667 30.5245 22.1823 30.4344 23.0143 30.0897C23.8464 29.7451 24.5575 29.1614 25.0579 28.4126C25.5582 27.6638 25.8253 26.7834 25.8253 25.8828C25.8253 24.6751 25.3456 23.5169 24.4916 22.6629C23.6377 21.809 22.4794 21.3293 21.2718 21.3293ZM22.7896 27.4006H19.7539V24.3649H22.7896V27.4006Z" fill="#002677"/>
</svg>
