<?xml version="1.0" encoding="utf-8"?>
<!-- Generator: Adobe Illustrator 26.1.0, SVG Export Plug-In . SVG Version: 6.00 Build 0)  -->
<svg version="1.1" id="Layer_1" xmlns="http://www.w3.org/2000/svg" xmlns:xlink="http://www.w3.org/1999/xlink" x="0px" y="0px"
     width="120px" height="15px" viewBox="0 0 120 14.6" style="enable-background:new 0 0 120 14.6;" xml:space="preserve">
<style type="text/css">
	.st0{fill:#009FE3;}
</style>
<path class="st0" d="M0,7.3l7.3,7.3l7.3-7.3L7.3,0L0,7.3z M9.4,10.6c0,0-0.8,0.9-2.2,0.9c-1.9,0-2.8-1.3-3-2.1
	C4.1,8.9,4,8.5,4.1,7.9C4.2,7.1,4.8,5.6,7,5.3c0,0,0,0.1,0,0.1C7,6.2,7.2,7,7.5,7.7c-0.4,0-1.9,0-2.1,1.5c-0.1,0.9,0.5,1.9,1.9,1.9
	c1.5,0,1.6-1.3,1.2-1.6c-0.3-0.4-1,0-1,0v-1h2V10.6z M8.3,2.4c0.6,0.9,0.9,1.9,0.9,3c0,1.1-0.3,2.1-0.9,3c-0.6-0.9-0.9-1.9-0.9-3
	C7.4,4.3,7.8,3.3,8.3,2.4"/>
<path class="st0" d="M8.3,4.7C8.1,5.1,8,5.7,8,6.2c0,0.5,0.1,1.1,0.4,1.5c0.2-0.4,0.4-0.9,0.4-1.5C8.7,5.7,8.6,5.1,8.3,4.7"/>
<polygon class="st0" points="21,3.6 20.9,4.2 21.8,4.3 21.8,10.2 20.9,10.2 21,10.9 23.8,10.9 23.8,10.3 22.8,10.2 22.8,4.3 
	25.2,4.3 25.3,5.6 26,5.6 26,3.6 25.2,3.6 "/>
<path class="st0" d="M31,7.2c0-1.4-0.7-2-1.9-2c-0.7,0-1.2,0.3-1.5,0.5l-0.1-0.4h-0.6l0,1.8h0.7l0-0.7c0.2-0.2,0.6-0.5,1.2-0.5
	c0.9,0,1.3,0.4,1.3,1.4v0.4c-1.4,0.1-3.7,0.2-3.7,1.9c0,1,0.7,1.6,2,1.6c1.2,0,1.7-0.7,1.8-0.9l0.1,0.7h1.4l0-0.6l-0.7,0V7.2z
	 M30.1,9.6c0,0.1-0.4,0.8-1.5,0.8c-0.9,0-1.3-0.4-1.3-1.1c0-1,1.5-1.1,2.8-1.2V9.6z"/>
<path class="st0" d="M35.9,7.9c0.4-0.2,0.9-0.7,0.9-1.4c0-0.9-0.7-1.4-1.9-1.4c-0.6,0-1.1,0.3-1.4,0.5l-0.1-0.4h-0.6l0,1.6h0.7
	l0-0.7c0.2-0.1,0.6-0.4,1.2-0.4c0.9,0,1.2,0.3,1.2,0.9c0,0.8-0.8,1.1-1,1.1h-1v0.6l0.9,0c0.8,0,1.4,0.3,1.4,0.9
	c0,0.6-0.6,1.2-1.6,1.2c-1.5,0-2-0.8-2-0.8l-0.3,0.5c0,0,0.4,0.9,2.4,0.9c1.5,0,2.4-0.9,2.4-1.9C37.1,8.4,36.6,8,35.9,7.9"/>
<polygon class="st0" points="43.2,6 43.9,6 43.9,5.3 37.9,5.3 37.9,6 38.6,6 38.6,10.2 37.9,10.2 37.9,10.9 40.1,10.9 40.1,10.3 
	39.4,10.2 39.4,6 42.3,6 42.3,10.9 43.9,10.9 43.9,10.3 43.2,10.2 "/>
<path class="st0" d="M48.1,5.1c-1.2,0-1.8,0.6-1.9,0.8l-0.1-0.6h-1.4l0,0.7l0.7,0v7l-0.7,0l0,0.7h2.2l0-0.6l-0.7,0v-2.5
	c0,0,0.5,0.5,1.7,0.5c1.7,0,2.6-1.4,2.6-3.2C50.6,6.1,49.6,5.1,48.1,5.1 M47.7,10.4c-0.9,0-1.3-0.4-1.4-0.5V6.6
	c0.1-0.1,0.5-0.8,1.5-0.8c1.2,0,1.9,0.5,1.9,2C49.7,9.4,49.1,10.4,47.7,10.4"/>
<path class="st0" d="M54.3,5.1c-1.8,0-2.8,1.1-2.8,2.9c0,1.8,1,3,2.8,3c1.8,0,2.8-1.2,2.8-3C57.1,6.2,56.1,5.1,54.3,5.1 M54.3,10.4
	c-1.3,0-1.8-0.9-1.8-2.3c0-1.4,0.6-2.3,1.8-2.3c1.3,0,1.8,0.8,1.8,2.3C56.1,9.5,55.6,10.4,54.3,10.4"/>
<polygon class="st0" points="79.9,6 80.5,6 80.5,5.3 78.7,5.3 76.7,10.1 74.7,5.3 72.8,5.3 72.8,6 73.5,6 73.5,6 73.3,10.2 65,10.2 
	64.9,6 65.6,6 65.6,5.3 63.7,5.3 61.7,10.1 59.7,5.3 57.9,5.3 57.8,6 58.5,6 58.6,6 58.4,10.2 57.7,10.2 57.8,10.9 59.7,10.9 
	59.8,10.3 59.2,10.3 59.2,6.4 59.2,6.3 61.3,10.9 62.1,10.9 64.1,6.3 64.1,6.3 64.1,6.7 64.2,10.9 74.1,10.9 74.2,6.4 74.2,6.3 
	76.2,10.9 77.1,10.9 79.1,6.3 79.1,6.3 79.1,6.7 79.1,10.9 80.6,10.9 80.6,10.3 79.9,10.2 "/>
<path class="st0" d="M86.3,7.6c0-1.6-0.8-2.4-2.3-2.4c-1.6,0-2.7,1.1-2.7,2.9c0,1.9,1.1,3,2.8,3c1.5,0,2.1-1,2.1-1l-0.4-0.5
	c0,0-0.5,0.7-1.7,0.7c-1.2,0-1.9-0.7-2-2.1h4C86.2,8.3,86.3,8,86.3,7.6 M85.5,7.6h-3.3c0.1-1.2,0.7-1.8,1.8-1.8c1,0,1.5,0.5,1.5,1.6
	C85.5,7.5,85.5,7.6,85.5,7.6"/>
<path class="st0" d="M92.4,5.3h-4.6l0,0.7l0.9,0c0,1.8-0.2,3-0.8,4.2H87l0,2.3h0.6l0.1-1.6h4.7l0.1,1.6h0.7l0.1-2.3h-0.9V5.3z
	 M91.5,10.2h-2.9C89.2,9,89.4,7.7,89.4,6h2.1V10.2z"/>
<polygon class="st0" points="99.3,6 100,6 100,5.3 98.5,5.3 95.3,9.5 95.3,5.3 93.7,5.3 93.7,6 94.4,6 94.4,10.9 95,10.9 98.4,6.5 
	98.4,10.2 97.8,10.3 97.8,10.9 99.9,10.9 100,10.3 99.3,10.2 "/>
<path class="st0" d="M117.6,8.2l-0.5,0.5l1.6,1.6h-13.1l-0.2,0V7.2c0-1.4-0.7-2-1.9-2c-0.7,0-1.2,0.3-1.5,0.5l-0.1-0.4h-0.6l0,1.8
	h0.7l0-0.7c0.2-0.2,0.6-0.5,1.2-0.5c0.9,0,1.3,0.4,1.3,1.4v0.4c-1.4,0.1-3.7,0.2-3.7,1.9c0,1,0.7,1.6,2,1.6c1.2,0,1.7-0.7,1.8-0.9
	l0.3,0.7h13.9l-1.6,1.6l0.5,0.5l2.4-2.4L117.6,8.2z M104.5,9.6c0,0.1-0.4,0.8-1.5,0.8c-0.9,0-1.3-0.4-1.3-1.1c0-1,1.5-1.1,2.8-1.2
	V9.6z"/>
</svg>
