<svg width="44" height="44" viewBox="0 0 44 44" fill="none" xmlns="http://www.w3.org/2000/svg">
  <path
    d="M27.0002 5C27.8286 5 28.5002 5.67157 28.5002 6.5V6.54645C28.5002 7.37488 27.8286 8.04645 27.0002 8.04645C26.1718 8.04645 25.5002 7.37488 25.5002 6.54645V6.5C25.5002 5.67157 26.1718 5 27.0002 5Z"
    fill="#008264"/>
  <path
    d="M27.0002 10.6202C27.8286 10.6202 28.5002 11.2918 28.5002 12.1202V12.2131C28.5002 13.0415 27.8286 13.7131 27.0002 13.7131C26.1718 13.7131 25.5002 13.0415 25.5002 12.2131V12.1202C25.5002 11.2918 26.1718 10.6202 27.0002 10.6202Z"
    fill="#008264"/>
  <path
    d="M27.0002 16.2869C27.8286 16.2869 28.5002 16.9585 28.5002 17.7869V17.8798C28.5002 18.7082 27.8286 19.3798 27.0002 19.3798C26.1718 19.3798 25.5002 18.7082 25.5002 17.8798V17.7869C25.5002 16.9585 26.1718 16.2869 27.0002 16.2869Z"
    fill="#008264"/>
  <path
    d="M27.0002 21.9536C27.8286 21.9536 28.5002 22.6251 28.5002 23.4536V23.5C28.5002 24.3284 27.8286 25 27.0002 25C26.1718 25 25.5002 24.3284 25.5002 23.5V23.4536C25.5002 22.6251 26.1718 21.9536 27.0002 21.9536Z"
    fill="#008264"/>
  <path fill-rule="evenodd" clip-rule="evenodd"
        d="M15.3821 7.06602C16.3096 5.24676 18.909 5.24676 19.8365 7.06602L22.1138 11.5326C22.3058 11.9091 22.5486 12.2781 22.8468 12.7206L22.9072 12.8102C23.1772 13.2103 23.4929 13.678 23.7646 14.1782C25.2042 16.8282 24.804 20.2118 22.5581 22.4536C19.8246 25.1821 15.394 25.1821 12.6605 22.4536C10.4146 20.2118 10.0144 16.8282 11.454 14.1782C11.7257 13.678 12.0414 13.2103 12.3113 12.8102L12.3718 12.7206C12.67 12.2781 12.9128 11.9091 13.1048 11.5326L15.3821 7.06602ZM17.6093 9.30236L15.7775 12.8952C15.4918 13.4555 15.1511 13.9646 14.8596 14.3972L14.8196 14.4565C14.5304 14.8855 14.2906 15.2412 14.0901 15.6103C13.2683 17.1229 13.5002 19.053 14.7799 20.3304C16.3422 21.8899 18.8764 21.8899 20.4387 20.3304C21.7183 19.053 21.9502 17.1229 21.1285 15.6103C20.928 15.2412 20.6882 14.8855 20.3989 14.4564L20.359 14.3972C20.0675 13.9646 19.7268 13.4555 19.4411 12.8952L17.6093 9.30236Z"
        fill="#008264"/>
  <path
    d="M10.9154 29.1455C10.2677 29.1455 9.63271 29.3252 9.08108 29.6647L3.78636 32.923C3.08082 33.3572 2.1569 33.1372 1.72272 32.4317C1.28855 31.7261 1.50853 30.8022 2.21406 30.368L7.50879 27.1097C8.53324 26.4793 9.71253 26.1455 10.9154 26.1455H33.3596C34.4964 26.1455 35.6053 26.4978 36.5337 27.1538L41.1563 30.4205C41.8329 30.8986 41.9938 31.8346 41.5157 32.5112C41.0376 33.1877 40.1016 33.3486 39.425 32.8705L34.8023 29.6038C34.3803 29.3056 33.8763 29.1455 33.3596 29.1455H10.9154Z"
    fill="#008264"/>
  <path
    d="M12.1093 32.5C12.1093 31.6716 12.7809 31 13.6093 31H30.6093C31.4377 31 32.1093 31.6716 32.1093 32.5C32.1093 33.3284 31.4377 34 30.6093 34H29.1093V39H15.1093V34H13.6093C12.7809 34 12.1093 33.3284 12.1093 32.5Z"
    fill="#008264"/>
  <path
    d="M34.5002 6.5C34.5002 5.67157 33.8286 5 33.0002 5C32.1718 5 31.5002 5.67157 31.5002 6.5V6.54645C31.5002 7.37488 32.1718 8.04645 33.0002 8.04645C33.8286 8.04645 34.5002 7.37488 34.5002 6.54645V6.5Z"
    fill="#008264"/>
  <path
    d="M34.5002 12.1202C34.5002 11.2918 33.8286 10.6202 33.0002 10.6202C32.1718 10.6202 31.5002 11.2918 31.5002 12.1202V12.2131C31.5002 13.0415 32.1718 13.7131 33.0002 13.7131C33.8286 13.7131 34.5002 13.0415 34.5002 12.2131V12.1202Z"
    fill="#008264"/>
  <path
    d="M34.5002 17.7869C34.5002 16.9585 33.8286 16.2869 33.0002 16.2869C32.1718 16.2869 31.5002 16.9585 31.5002 17.7869V17.8798C31.5002 18.7082 32.1718 19.3798 33.0002 19.3798C33.8286 19.3798 34.5002 18.7082 34.5002 17.8798V17.7869Z"
    fill="#008264"/>
  <path
    d="M34.5002 23.4536C34.5002 22.6251 33.8286 21.9536 33.0002 21.9536C32.1718 21.9536 31.5002 22.6251 31.5002 23.4536V23.5C31.5002 24.3284 32.1718 25 33.0002 25C33.8286 25 34.5002 24.3284 34.5002 23.5V23.4536Z"
    fill="#008264"/>
</svg>
