<svg width="44" height="44" viewBox="0 0 44 44" fill="none" xmlns="http://www.w3.org/2000/svg">
<path d="M40.1735 12.3327C39.9682 11.9865 39.6337 11.7361 39.2438 11.6365C38.8538 11.5368 38.4403 11.5962 38.0941 11.8014L19.1361 23.1397C19.3161 21.4426 18.9188 19.7343 18.0084 18.2908C17.0979 16.8473 15.7275 15.7528 14.1184 15.184C12.5093 14.6153 10.7555 14.6055 9.14017 15.1562C7.52482 15.7069 6.14225 16.7861 5.21574 18.2193C4.28922 19.6526 3.87286 21.3563 4.03386 23.0554C4.19486 24.7544 4.92383 26.3496 6.10306 27.5833C7.2823 28.817 8.84295 29.6173 10.533 29.8548C12.223 30.0923 13.9438 29.7533 15.4174 28.8924L15.979 28.5585C15.8728 28.7254 15.7514 28.8772 15.6603 29.0442C14.6514 30.7836 14.3741 32.8523 14.8892 34.796C15.4043 36.7397 16.6697 38.3996 18.4076 39.4111C19.5504 40.0768 20.8493 40.4276 22.1718 40.428C23.8389 40.4255 25.4588 39.8742 26.7812 38.8592C28.1037 37.8442 29.0551 36.4221 29.4887 34.8124C29.9222 33.2026 29.8136 31.495 29.1797 29.9531C28.5459 28.4113 27.422 27.121 25.9816 26.2817C24.8273 25.6022 23.5114 25.2457 22.1718 25.2496C21.8986 25.2496 21.6254 25.2496 21.3674 25.2496L39.5815 14.3666C39.9259 14.1716 40.1804 13.8499 40.291 13.47C40.4016 13.09 40.3594 12.682 40.1735 12.3327ZM15.888 23.504C15.6329 24.4647 15.0706 25.3155 14.2868 25.9266C13.503 26.5378 12.5407 26.8757 11.5469 26.8888C10.848 26.8913 10.1579 26.7328 9.53001 26.4256C8.90216 26.1185 8.35343 25.671 7.92635 25.1177C7.49927 24.5644 7.20529 23.9202 7.06719 23.235C6.92909 22.5498 6.95057 21.8421 7.12998 21.1665C7.28364 20.5864 7.5505 20.0423 7.91519 19.5656C8.27987 19.0889 8.73519 18.689 9.25497 18.3889C10.2996 17.7831 11.5421 17.6171 12.7092 17.9273C13.8762 18.2376 14.8722 18.9987 15.4781 20.0433C15.7804 20.5608 15.9776 21.1329 16.0584 21.7268C16.1391 22.3206 16.1018 22.9246 15.9487 23.504H15.888ZM22.1718 28.2852C22.9701 28.2874 23.7538 28.4994 24.4443 28.8999C25.1348 29.3004 25.7079 29.8754 26.1061 30.5673C26.5043 31.2592 26.7137 32.0436 26.7131 32.8418C26.7126 33.6401 26.5022 34.4242 26.1031 35.1156C25.7044 35.806 25.1316 36.3797 24.4417 36.7792C23.7518 37.1788 22.9691 37.3902 22.1718 37.3923C21.3706 37.3945 20.5838 37.1794 19.8951 36.77C19.033 36.2661 18.3605 35.4929 17.981 34.5693C17.6015 33.6457 17.5361 32.623 17.7949 31.6586C18.0537 30.6942 18.6223 29.8416 19.4132 29.2321C20.204 28.6225 21.1733 28.2899 22.1718 28.2852ZM32.5691 6.29164C32.7743 5.94543 32.8337 5.53187 32.7341 5.14192C32.6344 4.75196 32.384 4.41754 32.0378 4.21219C31.6916 4.00695 31.2781 3.94761 30.8881 4.04724C30.4982 4.14686 30.1637 4.39729 29.9584 4.74344L22.3692 17.6603L27.8182 14.4121L32.5691 6.29164Z" fill="#008264"/>
</svg>
