<svg width="44" height="44" viewBox="0 0 44 44" fill="none" xmlns="http://www.w3.org/2000/svg">
  <path
    d="M4.86941 28.2856H6.38726V26.7678H7.9051V25.2499H6.38726V23.7321H4.86941V25.2499H3.35156V26.7678H4.86941V28.2856ZM38.4594 5.32061C38.0339 4.89858 37.5293 4.56469 36.9745 4.33808C36.4197 4.11148 35.8256 3.99661 35.2263 4.00008C34.0213 3.99711 32.8641 4.47197 32.0085 5.32061L25.2086 12.1206L27.3639 14.2759L34.1639 7.47595C34.4466 7.19553 34.8282 7.03745 35.2263 7.03577C35.5247 7.037 35.8161 7.12615 36.0641 7.29206C36.3121 7.45798 36.5057 7.69332 36.6207 7.96865C36.7357 8.24398 36.767 8.54709 36.7106 8.8401C36.6543 9.13311 36.5129 9.40302 36.304 9.61611L29.5041 16.4161L31.6594 18.5714L38.4442 11.7715C39.2969 10.9177 39.7759 9.76031 39.7759 8.55362C39.7759 7.34692 39.2969 6.18957 38.4442 5.33578L38.4594 5.32061ZM7.9051 20.6964H9.42295V19.1785H10.9408V17.6607H9.42295V16.1429H7.9051V17.6607H6.38726V19.1785H7.9051V20.6964ZM4.68726 32.657C3.83453 33.5108 3.35557 34.6682 3.35557 35.8749C3.35557 37.0816 3.83453 38.2389 4.68726 39.0927C5.10663 39.5198 5.60764 39.8581 6.16045 40.0876C6.71325 40.317 7.30658 40.4329 7.9051 40.4284C9.11237 40.4273 10.2698 39.9469 11.1229 39.0927L29.5192 20.6964L23.0836 14.2607L4.68726 32.657ZM25.2237 20.6964L8.98277 36.9525C8.6919 37.2299 8.30698 37.3871 7.9051 37.3927C7.70534 37.3939 7.50733 37.3556 7.3224 37.28C7.13747 37.2045 6.96926 37.0932 6.82743 36.9525C6.68517 36.8114 6.57224 36.6436 6.49518 36.4586C6.41813 36.2736 6.37846 36.0752 6.37846 35.8749C6.37846 35.6745 6.41813 35.4761 6.49518 35.2911C6.57224 35.1062 6.68517 34.9383 6.82743 34.7972L23.0836 18.5411L25.2237 20.6964ZM20.0479 35.8749H18.53V37.3927H17.0122V38.9106H18.53V40.4284H20.0479V38.9106H21.5657V37.3927H20.0479V35.8749Z"
    fill="#008264"/>
</svg>
