<svg width="44" height="44" viewBox="0 0 44 44" fill="none" xmlns="http://www.w3.org/2000/svg">
  <path
    d="M17.9187 13.2285C17.9254 13.1883 17.9254 13.1473 17.9187 13.1071V10.0714C17.9187 9.66883 17.7587 9.28276 17.4741 8.99811C17.1894 8.71346 16.8034 8.55354 16.4008 8.55354C15.9982 8.55354 15.6122 8.71346 15.3275 8.99811C15.0429 9.28276 14.883 9.66883 14.883 10.0714V13.1071C14.8762 13.1473 14.8762 13.1883 14.883 13.2285C12.3564 13.5932 10.0455 14.8554 8.37319 16.7841C6.70087 18.7129 5.77887 21.1792 5.77588 23.732V37.3926C5.77588 38.1978 6.09571 38.9699 6.66501 39.5392C7.23431 40.1085 8.00646 40.4283 8.81157 40.4283H23.99C24.7952 40.4283 25.5673 40.1085 26.1366 39.5392C26.7059 38.9699 27.0257 38.1978 27.0257 37.3926V23.732C27.0227 21.1792 26.1007 18.7129 24.4284 16.7841C22.7561 14.8554 20.4453 13.5932 17.9187 13.2285ZM23.99 37.3926H8.81157V25.2499H20.9543V22.2142H8.96336C9.33788 20.3697 10.3844 18.7303 11.8997 17.614C13.415 16.4978 15.291 15.9844 17.1635 16.1736C19.036 16.3627 20.7715 17.2409 22.033 18.6376C23.2944 20.0343 23.9919 21.85 23.99 23.732V37.3926ZM22.4722 11.5892C22.7724 11.5892 23.0659 11.5002 23.3155 11.3334C23.5651 11.1666 23.7596 10.9296 23.8745 10.6523C23.9894 10.3749 24.0194 10.0697 23.9609 9.77528C23.9023 9.48085 23.7578 9.21038 23.5455 8.99811C23.3332 8.78583 23.0627 8.64127 22.7683 8.5827C22.4739 8.52414 22.1687 8.55421 21.8913 8.66909C21.614 8.78397 21.3769 8.97851 21.2102 9.22812C21.0434 9.47773 20.9543 9.77119 20.9543 10.0714C20.9543 10.4739 21.1143 10.86 21.3989 11.1447C21.6836 11.4293 22.0696 11.5892 22.4722 11.5892ZM30.0614 11.5892C29.7612 11.5892 29.4678 11.6783 29.2182 11.845C28.9685 12.0118 28.774 12.2489 28.6591 12.5262C28.5442 12.8036 28.5142 13.1088 28.5728 13.4032C28.6313 13.6976 28.7759 13.9681 28.9881 14.1804C29.2004 14.3926 29.4709 14.5372 29.7653 14.5958C30.0597 14.6543 30.3649 14.6243 30.6423 14.5094C30.9196 14.3945 31.1567 14.2 31.3235 13.9504C31.4903 13.7007 31.5793 13.4073 31.5793 13.1071C31.5793 12.7045 31.4194 12.3185 31.1347 12.0338C30.8501 11.7492 30.464 11.5892 30.0614 11.5892ZM30.0614 5.51785C29.7612 5.51785 29.4678 5.60687 29.2182 5.77366C28.9685 5.94044 28.774 6.17748 28.6591 6.45483C28.5442 6.73218 28.5142 7.03737 28.5728 7.3318C28.6313 7.62624 28.7759 7.8967 28.9881 8.10898C29.2004 8.32125 29.4709 8.46582 29.7653 8.52438C30.0597 8.58295 30.3649 8.55288 30.6423 8.438C30.9196 8.32311 31.1567 8.12858 31.3235 7.87897C31.4903 7.62936 31.5793 7.3359 31.5793 7.0357C31.5793 6.63314 31.4194 6.24707 31.1347 5.96242C30.8501 5.67776 30.464 5.51785 30.0614 5.51785ZM37.6507 7.0357C37.9509 7.0357 38.2443 6.94667 38.4939 6.77989C38.7435 6.61311 38.9381 6.37607 39.053 6.09872C39.1679 5.82136 39.1979 5.51618 39.1393 5.22174C39.0808 4.92731 38.9362 4.65684 38.7239 4.44457C38.5117 4.23229 38.2412 4.08773 37.9468 4.02916C37.6523 3.9706 37.3472 4.00067 37.0698 4.11555C36.7925 4.23043 36.5554 4.42497 36.3886 4.67458C36.2218 4.92418 36.1328 5.21765 36.1328 5.51785C36.1328 5.92041 36.2927 6.30648 36.5774 6.59113C36.862 6.87578 37.2481 7.0357 37.6507 7.0357ZM37.6507 13.1071C37.3505 13.1071 37.057 13.1961 36.8074 13.3629C36.5578 13.5297 36.3632 13.7667 36.2484 14.0441C36.1335 14.3214 36.1034 14.6266 36.162 14.921C36.2206 15.2155 36.3651 15.4859 36.5774 15.6982C36.7897 15.9105 37.0601 16.0551 37.3545 16.1136C37.649 16.1722 37.9542 16.1421 38.2315 16.0272C38.5089 15.9123 38.7459 15.7178 38.9127 15.4682C39.0795 15.2186 39.1685 14.9251 39.1685 14.6249C39.1685 14.2224 39.0086 13.8363 38.7239 13.5517C38.4393 13.267 38.0532 13.1071 37.6507 13.1071Z"
    fill="#008264"/>
</svg>
