<svg width="44" height="44" viewBox="0 0 44 44" fill="none" xmlns="http://www.w3.org/2000/svg">
<path d="M37.8529 28.187C36.8234 27.0218 36.2801 25.5061 36.3351 23.9522C36.548 22.3426 36.4012 20.7058 35.9051 19.1598C35.409 17.6139 34.5761 16.1972 33.4663 15.0121L22.8414 4.31123C22.2726 3.74583 21.5032 3.42847 20.7012 3.42847C19.8993 3.42847 19.1298 3.74583 18.5611 4.31123L5.94777 16.9245C5.50284 17.3526 5.14961 17.8667 4.90955 18.4355C4.6695 19.0043 4.54763 19.6161 4.55135 20.2335C4.54876 20.8141 4.66147 21.3894 4.88294 21.9262C5.10441 22.4629 5.43024 22.9504 5.84153 23.3602L14.5995 32.1182C15.4638 32.9594 16.6265 33.4234 17.8325 33.4084C19.0419 33.3745 20.1927 32.8805 21.0503 32.0271L29.1101 23.9522C29.3959 23.6684 29.5573 23.2826 29.5587 22.8799C29.5601 22.4771 29.4015 22.0902 29.1177 21.8044C28.8339 21.5186 28.4482 21.3572 28.0454 21.3558C27.6426 21.3544 27.2558 21.513 26.97 21.7968L18.895 29.8718C18.5924 30.1765 18.1857 30.3555 17.7566 30.3727C17.5507 30.3963 17.3421 30.3776 17.1437 30.3175C16.9453 30.2575 16.7613 30.1574 16.6031 30.0236L7.82991 21.2504C7.70128 21.124 7.59991 20.9726 7.53204 20.8055C7.46417 20.6385 7.43124 20.4593 7.43528 20.279C7.44155 19.8386 7.62156 19.4185 7.93614 19.1102L15.3129 11.7335L22.6593 19.0799C22.8011 19.2205 22.9693 19.3319 23.1542 19.4074C23.3391 19.4829 23.5372 19.5212 23.7369 19.5201C23.9367 19.5212 24.1347 19.4829 24.3197 19.4074C24.5046 19.3319 24.6728 19.2205 24.8146 19.0799C25.0973 18.7955 25.256 18.4108 25.256 18.0098C25.256 17.6088 25.0973 17.2241 24.8146 16.9397L17.4682 9.57816L20.5039 6.54247L31.2047 17.2433C33.5119 19.5656 33.1779 22.1156 33.1779 24.0432C33.1181 26.1283 33.7893 28.1687 35.0753 29.8111C35.7872 30.7566 36.2233 31.8809 36.3351 33.0593C36.3351 33.8644 36.0152 34.6365 35.4459 35.2058C34.8766 35.7751 34.1045 36.0949 33.2994 36.0949C32.4943 36.0949 31.7221 35.7751 31.1528 35.2058C30.5835 34.6365 30.2637 33.8644 30.2637 33.0593C30.2608 32.7442 30.3122 32.431 30.4155 32.1334C30.6219 31.4947 30.9814 30.9163 31.4628 30.4486C31.6143 30.3167 31.7382 30.1561 31.8272 29.976C31.9163 29.7959 31.9686 29.5999 31.9813 29.3994C31.994 29.1989 31.9668 28.9979 31.9013 28.808C31.8357 28.6181 31.7331 28.4432 31.5994 28.2932C31.3335 27.9916 30.9588 27.8079 30.5576 27.7823C30.1563 27.7567 29.7613 27.8913 29.4592 28.1566C28.5609 28.9842 27.8916 30.0299 27.5164 31.1923C27.3202 31.795 27.2228 32.4255 27.228 33.0593C27.228 34.6695 27.8676 36.2138 29.0063 37.3524C30.1449 38.491 31.6891 39.1306 33.2994 39.1306C34.9096 39.1306 36.4539 38.491 37.5925 37.3524C38.7311 36.2138 39.3708 34.6695 39.3708 33.0593C39.3329 31.3248 38.8068 29.6361 37.8529 28.187Z" fill="#008264"/>
</svg>
