<svg xmlns="http://www.w3.org/2000/svg" width="47.999" height="48" viewBox="0 0 47.999 48"><path d="M1350.761,3960.995l-6.7,2.338-7.49-7.565,2.393-6.687-5.964-3.846,1.343-10.567,6.737-2.228-.645-7.074,9.144-5.446,5.9,3.944,5.171-4.864,9.916,3.86.465,6.209,6.2.52,3.769,9.96-4.9,5.133,3.887,5.944-5.521,9.106-7.06-.708-2.286,6.724L1354.551,3967Zm4.808,3.871,8.06-.956,2.39-7.035,7.387.74,4.212-6.949-4.066-6.216,5.13-5.37-2.877-7.6-6.64-.556-.5-6.653-7.565-2.945-5.41,5.088-6.176-4.126-6.976,4.156.675,7.4-7.049,2.332-1.026,8.064,6.24,4.024-2.5,6.995,5.716,5.772,7.011-2.445Zm-1.831-13.48a8.987,8.987,0,1,1,3.26.615A9,9,0,0,1,1353.738,3951.385Zm-3.26-10.922A6.988,6.988,0,1,0,1357,3936,6.958,6.958,0,0,0,1350.478,3940.464Z" transform="translate(-1333 -3919)" fill="#222"/></svg>