<svg xmlns="http://www.w3.org/2000/svg" width="44" height="47.999" viewBox="0 0 44 47.999"><path d="M846,3930.063H832.869c2.526-1.652,5.131-4.605,5.131-7.063a5.733,5.733,0,0,0-6-6c-3.164,0-6.641,4.71-8,7.366-1.36-2.656-4.836-7.366-8-7.366a5.733,5.733,0,0,0-6,6c0,2.458,2.474,5.348,5,7H802v13h4v22h36v-22h4Zm-20.56-4.07c1.021-2.46,4.505-6.994,6.56-6.994a3.745,3.745,0,0,1,4,4c0,2.051-4.292,5.771-6.756,6.789a5.164,5.164,0,0,1-1.927.274,14.794,14.794,0,0,1-2-.151A8.971,8.971,0,0,1,825.44,3925.993Zm-6.685,3.8c-2.464-1.018-6.756-4.739-6.756-6.789a3.746,3.746,0,0,1,4-4c2.055,0,5.539,4.534,6.559,6.994a9.042,9.042,0,0,1,.127,3.918,14.817,14.817,0,0,1-2,.151A5.162,5.162,0,0,1,818.756,3929.789ZM804,3941v-9h19v9Zm4,2h15v20l-15,0Zm32,20-15,0v-20h15Zm4-22H825v-9h19Z" transform="translate(-802 -3916.999)" fill="#222"/></svg>