<svg width="58" height="36" viewBox="0 0 58 36" fill="none" xmlns="http://www.w3.org/2000/svg">
<rect x="0.5" y="0.5" width="57" height="35" rx="7.5" stroke="#EFEFEF"/>
<path fill-rule="evenodd" clip-rule="evenodd" d="M11.9438 12.627C12.3369 12.6247 13.5052 12.5195 14 14.1896C14.3333 15.3146 14.8643 17.1574 15.5929 19.718H15.8897C16.6711 17.0184 17.2078 15.1756 17.5 14.1896C18 12.5021 19.25 12.6271 19.75 12.6271L23.6076 12.6271V24.6271H19.6758V17.5553H19.4122L17.2204 24.6271H14.2622L12.0704 17.55H11.8068V24.6271H7.875V12.6271L11.9438 12.627ZM29.2536 12.6271V19.7041H29.5672L32.2333 13.8847C32.7509 12.7266 33.8539 12.6271 33.8539 12.6271H37.6587V24.6271H33.6448V17.55H33.3312L30.7173 23.3694C30.1998 24.5223 29.0445 24.6271 29.0445 24.6271H25.2397V12.6271H29.2536ZM51.5326 18.3296C50.9727 19.9162 49.2144 21.0525 47.2677 21.0525H43.0583V24.6271H39.2413V18.3296H51.5326Z" fill="#0F754E"/>
<path fill-rule="evenodd" clip-rule="evenodd" d="M47.4516 12.6272H39.041C39.2412 15.2988 41.5419 17.5859 43.9236 17.5859H51.7976C52.252 15.3655 50.6878 12.6272 47.4516 12.6272Z" fill="url(#paint0_linear_1757_12907)"/>
<defs>
<linearGradient id="paint0_linear_1757_12907" x1="51.8749" y1="15.7464" x2="39.041" y2="15.7464" gradientUnits="userSpaceOnUse">
<stop stop-color="#1F5CD7"/>
<stop offset="1" stop-color="#02AEFF"/>
</linearGradient>
</defs>
</svg>
