<svg width="58" height="36" viewBox="0 0 58 36" fill="none" xmlns="http://www.w3.org/2000/svg">
<rect x="0.5" y="0.5" width="57" height="35" rx="7.5" stroke="#EFEFEF"/>
<path fill-rule="evenodd" clip-rule="evenodd" d="M28.1641 11.2465L25.4437 24.788H22.153L24.8742 11.2465H28.1641ZM42.0105 19.9919L43.7438 14.9055L44.7408 19.9919H42.0105ZM45.6846 24.788H48.7273L46.0694 11.2465H43.2612C42.6283 11.2465 42.0958 11.6379 41.8603 12.2401L36.9221 24.788H40.3778L41.0645 22.7647H45.2852L45.6846 24.788ZM37.0942 20.3677C37.1085 16.7937 32.4512 16.5971 32.483 15.0009C32.4936 14.5142 32.9284 13.9966 33.8767 13.8644C34.3501 13.8 35.6497 13.7471 37.125 14.4717L37.7009 11.5975C36.9084 11.294 35.8908 11 34.622 11C31.3681 11 29.0795 12.8398 29.0623 15.4762C29.0407 17.4249 30.6981 18.5104 31.9403 19.1611C33.2246 19.8251 33.6556 20.2493 33.6483 20.8439C33.6412 21.7519 32.6251 22.1528 31.6805 22.1692C30.0241 22.1962 29.0652 21.6932 28.2999 21.3133L27.7031 24.28C28.4738 24.6579 29.8931 24.9827 31.3616 25C34.821 25 37.0834 23.1823 37.0942 20.3677ZM23.4622 11.2475L18.1292 24.789H14.6509L12.0264 13.9829C11.8679 13.3189 11.7294 13.074 11.2439 12.7935C10.4526 12.3357 9.14759 11.9071 8 11.6407L8.07551 11.2475H13.6755C14.3901 11.2475 15.0303 11.7536 15.1942 12.6277L16.5806 20.4631L20.0038 11.2475H23.4622Z" fill="#1A1F71"/>
</svg>
