<svg id="svg317" xmlns="http://www.w3.org/2000/svg" viewBox="0 0 137.5 69.6"><defs><style>.cls-1,.cls-2{fill:#1b1918;fill-rule:evenodd;}.cls-2{stroke:#1b1918;stroke-width:0.22px;}</style></defs><g id="Layer1000"><path id="path4" class="cls-1" d="M81.2,146.3h9.4v1H81.2Z" transform="translate(-75.9 -80.7)"/><path id="path6" class="cls-1" d="M196.6,146.3H206v1h-9.4Z" transform="translate(-75.9 -80.7)"/></g><g id="Layer1001"><g id="Layer1002"><path id="path9" class="cls-1" d="M124.7,95.5h0c-.1,0-.1.1,0,0-.1.2,0,.2,0,0Zm-1.9,0c.1,0,.1-.1.2-.1v-.1c-.1,0-.2,0-.2.2ZM143,107.3a.2.2,0,0,0,0-.4c-.1,0-.1.1-.1.2S142.9,107.3,143,107.3Zm20.4-11.8c.2,0,.2-.2.2-.3a.35.35,0,0,0-.1-.2c-.2,0-.2.2-.3.3A.22.22,0,0,0,163.4,95.5Zm-39-.6c.2,0,.2-.2.3-.4s.1-.4-.2-.4a.32.32,0,0,0-.3.3C124.1,94.6,124.1,94.8,124.4,94.9Zm39.8,1.3a.9.9,0,0,0,.6-.6c0-.2-.1-.2-.2-.2-.3,0-.5.3-.6.6,0,.1.1.1.2.2Zm-36.1-.9a1.8,1.8,0,0,0,1-.2v-.2c-.3-.3-.7-.2-1-.2s-.6.1-.5.4c-.1.3.3.1.5.2Zm15.3,11.2c.1,0,.1-.1.2-.2,0-.4-.6-1.2-1-1.2a.27.27,0,0,0-.3.3A2.91,2.91,0,0,0,143.4,106.5Zm13.8-11.9a8.68,8.68,0,0,0,2.3.1A1.7,1.7,0,0,0,157.2,94.6Zm5.6,1a2,2,0,0,0-1.9-1.1.76.76,0,0,0-.5.2c-.1.3.2.2.4.3C161.5,95.1,162.1,95.5,162.8,95.6Zm-24,2.9a27.55,27.55,0,0,1,2.3,2.7c.1.1.2.4.5.2s.1-.4,0-.6a18.11,18.11,0,0,0-1.8-2.1A1.36,1.36,0,0,0,138.8,98.5Zm-3.6-2.2,2.1,1.2c.2.1.4.5.7.2s0-.5-.2-.8C137.2,95.9,136.2,96.1,135.2,96.3Zm-12.4,8.4a.77.77,0,0,0-.1.9,22,22,0,0,0,.9,4.3c.1.4.2.8.3,1.1a.94.94,0,0,0,1.3.5c.5-.3,0-.6-.2-.9a13.55,13.55,0,0,1-1-2.1,21.13,21.13,0,0,1-1.2-3.8Zm31.9-10.2a1.6,1.6,0,0,0-.8.3,2.79,2.79,0,0,1-1.8.6.75.75,0,0,0-.5.1,21.64,21.64,0,0,0-3.5,2.4,5.49,5.49,0,0,0-2.1,2.4,3.36,3.36,0,0,1-1,1.6.76.76,0,0,0-.2.4c-.1.3-.1.7.2.8s.3-.3.5-.5a26.75,26.75,0,0,1,1.8-2.8,13.71,13.71,0,0,1,7.6-4.6c.2,0,.6,0,.5-.3s-.4-.4-.7-.4Zm-30-7.4V81.5c0-.2.1-.4-.2-.5s-.4.1-.5.3-.1.5-.2.8c-.1,1-.1,2-.2,3a67.72,67.72,0,0,0,.2,7.8c0,.3,0,.6.5.6s.4-.3.4-.7c0-1.8-.1-3.8,0-5.7Zm38.7-.9a28.91,28.91,0,0,1,0,7.2c-.1.7.6.9.6,1.4,0,.2.3.1.3-.1s0-.4.1-.5c.1-1.6-.2-3.1-.1-4.7a27.7,27.7,0,0,0-.3-7.6c-.1-.3.1-.9-.3-.8s-.3.6-.3.9v4.2Zm-.3,12.4c-.1-.6.5-1.2.3-1.8a.37.37,0,0,1-.3-.1c-.2-.1-.5-.2-.4.1s.5,0,.7,0l-.1.1c-.4.3-1.3.1-.7,1.1l-.1.1c-.1,0-.2,0-.2-.1-.2-.7-.6-.8-1.2-.4-.1.1-.3,0-.4,0-.5-.1-.7.1-1,.4-1,1.3-1.1,1.3-2.6.6a1.64,1.64,0,0,0-2,.2c-.3.3-.6.5-.6,1,0,.3-.1.6-.6.3s-.7.2-.6.7c.1.2.2.4-.1.4-.5-.1-.6.3-.9.4a.76.76,0,0,1-.9.1c-.8-.5-1-.4-1.5.3a2.22,2.22,0,0,0-.3,1.6.68.68,0,0,1-.5.9,1.52,1.52,0,0,0-1,1.3,2,2,0,0,1-2,1.6h-.3c-.2,0-.4,0-.5.2s.2.3.3.4a4.35,4.35,0,0,0,1.5.8,1.55,1.55,0,0,0,2.2-.9,2,2,0,0,1,1.2-1.2c.3-.1.7-.2.9.2.3.7.8.4,1.2.2-.4.4-.9.9-1.3.1-.3-.6-.6-.4-.9-.2a1.78,1.78,0,0,0-.7.8,1.8,1.8,0,0,1-1.2,1.2c-.7.3-.8.4-.1.8a15.43,15.43,0,0,0,5,2,2.57,2.57,0,0,0,1.5.1,9.54,9.54,0,0,0,5-5.6c.2-.4.2-.9.6-1.2h0a1.42,1.42,0,0,0-.2.6c-.3.9-.3,2-1,2.7a19.91,19.91,0,0,1-2.8,3c-.2.1-.5.2-.4.5s.4.1.6.1a10.07,10.07,0,0,0,3.8-.9c1.7-.9,3.2-2,3-4.2,0-.1.1-.1.2-.2a1.39,1.39,0,0,0,.2-1.8,3.18,3.18,0,0,1-.3-.9,1,1,0,0,0-.7-.8c-.4-.1-.7-.2-.8-.6-.4-1-.8-1-1.5-.2a1,1,0,0,1-.4.5,1.24,1.24,0,0,1-1.9.3,2,2,0,0,0-1.1-.2,1,1,0,0,1,1.3,0c.6.5.9.2,1.3-.2a5.24,5.24,0,0,1,1-1.1c.3-.2.8-.4.9-.2.6.9,1.6,1.4,2.2,2.3.1.1,0,.4.2.4s.2-.3.2-.5a17.44,17.44,0,0,0-.1-5.1c-.1-.3,0-.7-.4-.8-.5.1-.5.6-.7.8Zm-37.6-1.5c0,.1-.1.2-.1.3-.2,1,0,1.2,1,1,.5-.1.9-.2,1.3-.3a1.1,1.1,0,0,1,1.4.3c-.9-.5-1.7,0-2.5.2-1.8.4-2.1.3-2.8-1.4a4.76,4.76,0,0,0-.7,2.3,16.1,16.1,0,0,0,.3,5.8c.1.2,0,.6.3.6s.3-.3.5-.5a2,2,0,0,0,.4-1.5c-.1-.5-.2-1.3.7-1.4a1.28,1.28,0,0,0-.4,1.4,1.48,1.48,0,0,1-.2,1.3c-.8,1.3-.8,1.8.2,2.9.1.1.3.2.1.3-.5.2-.2.5-.1.7a5.23,5.23,0,0,0,2.1,2.3,6.82,6.82,0,0,0,4.6,1c.1,0,.3,0,.3-.1a.35.35,0,0,0-.1-.2,17,17,0,0,1-2.2-2.4,5,5,0,0,1-1.3-2.5,16.89,16.89,0,0,0,2.9,3.7c.8.9,1.7,1.6,2.9,1.3.9-.2,1.8-.6,2.8-.9,1.4-.5,2.4-1.6,3.9-2a4.07,4.07,0,0,0,1.9-1.3c.2-.2.2-.5-.1-.5a17.65,17.65,0,0,0-2.3,0c-.9.3-1.8-.3-2.8-.3-.3,0-.4-.3-.5-.6a2,2,0,0,0-.8-.8,3.08,3.08,0,0,0-1.9-.3,2.31,2.31,0,0,1-2.5-1.6,1.17,1.17,0,0,0-1.1-.8,2.77,2.77,0,0,0-.9.1c-1.1.3-2.2.7-2.9-.6,0-.1-.2,0-.1-.2a.87.87,0,0,1,.9.5.93.93,0,0,0,1.2.3,5.22,5.22,0,0,1,2.1-.4,1.21,1.21,0,0,1,1.2.8,2,2,0,0,0,2.4,1.4h.6a2.33,2.33,0,0,1,2.1,1.3c.1.3.4.4.8.5,1.3.3,2.6.1,3.8.3.3,0,.7,0,.5-.5a13.55,13.55,0,0,0-1-2.1,1.55,1.55,0,0,0-1.2-.8,2,2,0,0,1-1.5-.9,2.25,2.25,0,0,0-2-.9h-1a1.1,1.1,0,0,1-1.1-1.3,1.14,1.14,0,0,0-.3-.8c-.5-.5-1-.3-1.5-.1-.8.3-2.1.1-2.3-.3a2.5,2.5,0,0,0-1.3-1.2,1.6,1.6,0,0,1,1.4.8,1.15,1.15,0,0,0,.9.6,2.57,2.57,0,0,0,1.5-.1c1.2-.4,2,.1,2,1.3a.76.76,0,0,0,.6.8c.3.2.7.1,1.1.1a2.16,2.16,0,0,1,1.9.5,3.55,3.55,0,0,0,2.5,1.4c.1,0,.2.1.3.2.4.5.7.9,1.5.7.3-.1.6.3.8.5s.3.9.7.8.5-.6.8-.9c.1-.2.3-.3.3-.6q1.2-.15,1.5.6c.1.5-.3,1-1,1.2l-.9.3a.19.19,0,0,0-.1.3c0,.1.1.1.2.1a2.34,2.34,0,0,0,2.7-1.8,1.67,1.67,0,0,1,.9-1.1c.6-.2.6-.6.6-1.1a2.45,2.45,0,0,1,.6-1.6c.4-.6,1-.8,1.5-.4.8.5,1.1,0,1.4-.5s.5-.9,1-1.1a1.83,1.83,0,0,0,1-.7,1.92,1.92,0,0,1,2.9-.5c.9.5,1.2.3,1.7-.3a1.43,1.43,0,0,1,1.7-.8c.4.1,1.4-.5,1.4-.9,0-.6-.6-.6-1-.7a13.81,13.81,0,0,0-10.3,1.5,12.9,12.9,0,0,0-5.2,6.1,2.45,2.45,0,0,0-.4,1.2l-1.1.3a.86.86,0,0,1-.9-.3c-1.1-1.4-2.3-2.7-3.4-4.2a10.58,10.58,0,0,0-4.7-3.4,15.63,15.63,0,0,0-7.4-1.2,4.77,4.77,0,0,0-2,.4c-.5.2-.5.5-.1.8s.7.4.7.9c-.6.1-1.1.1-1.3-.3-.3.2-.6-.6-.9-.1a1.05,1.05,0,0,0,0,1.2c.1.1.2.3.3.3s.2-.2.1-.4a1.1,1.1,0,0,1,.5-1Zm38.8,10.1h0c0-.1.1,0,0,0s-.2.2-.2.3c-.6,1.6-1.2,3.1-2.8,3.9-.2.1-.2.2.1.3a1.61,1.61,0,0,0,2.2-.9,9.22,9.22,0,0,0,.7-3.6Zm-19.4-.8h0c.4-.2.9-.2,1.2-.5s.3-.4.1-.6-.4-.3-.6-.1A1.18,1.18,0,0,0,144.9,106.4Zm-2-3.2Zm3,8.1a1.46,1.46,0,0,1-1.3-1.8,1.7,1.7,0,0,0-.2-1.4.37.37,0,0,0-.5-.2.6.6,0,0,0-.1.4,2.42,2.42,0,0,1-.9,2.7c-.1.1-.1.3-.3.2s0-.3.1-.4a1.88,1.88,0,0,0,.8-1.7c0-.2,0-.5-.2-.6s-.4.1-.5.2a28.28,28.28,0,0,1-7.1,3.7,11.1,11.1,0,0,1-8.4,0,7.51,7.51,0,0,0-2.6-.5c-1,0-1.2-.2-1.5-1.1-.3-1.6-.7-3.2-1-4.7a7.94,7.94,0,0,1,.1-2.2c.1-1.2.2-2.5.3-3.7a7.22,7.22,0,0,1,.8-3.2c.4-.6.1-1-.5-1.1-.3,0-.8.1-.8-.4s.4-.4.7-.4c.7.1.8-.3.8-.8,0-1.3-.1-2.6-.1-3.9a67.69,67.69,0,0,1,.3-9,.82.82,0,0,1,1.1-.6c.5.1.3.5.2.8-.2,2.1-.1,4.3-.2,6.4,0,1.7.1,3.5.2,5.2a12.25,12.25,0,0,1-.2,1.9c0,.5.1.7.6.6a2.23,2.23,0,0,0,1.3-.6,1.85,1.85,0,0,1,2.5-.2,1.42,1.42,0,0,0,1.1.1,4.27,4.27,0,0,1,2.5-.1c.4.1.8.2.9.6a3.82,3.82,0,0,0-3.3-.1,16.06,16.06,0,0,0,3.8.8c-.1-.3-.6-.4-.5-.7a5,5,0,0,0,2.4.6,1.83,1.83,0,0,1,1.8,1.2,1.57,1.57,0,0,0,1.1,1,5.12,5.12,0,0,1,2.8,3.3,2.55,2.55,0,0,0,.7,1,1.76,1.76,0,0,1,.9,1.3c0,.4.2.7.6.5a.58.58,0,0,0,.3-.8c-.1-.3-.4-.6-.3-.9a18.37,18.37,0,0,1,2.5-3.9c.2-.2.6-.4.7-.8a.22.22,0,0,1,.2-.2c1.1-.2,1.5-1.5,2.6-1.7a.86.86,0,0,0,.6-.3,1.42,1.42,0,0,1,1.6-.6,1.69,1.69,0,0,0,1-.3,1.87,1.87,0,0,1,1.9-.4,2.19,2.19,0,0,0,1.6-.1,2.48,2.48,0,0,1,2.5,0,.88.88,0,0,0,.7.1,2.26,2.26,0,0,1,1.8.1c.8.2,1.1.2,1.1-.7a38.66,38.66,0,0,0,.3-4.8c-.1-3-.1-4.3-.2-7.3v-.4c.1-.3-.1-.7.4-.7a.71.71,0,0,1,.8.7c.2,2.9.6,4.2.3,7.1-.2,2,.2,4.1,0,6.1a.37.37,0,0,0,.1.3c.5,1,.5,1-.4,1.6-.3.2-.3.3-.2.6a8.49,8.49,0,0,1,.7,4.2c-.2,1.3.5,2.6.3,3.9a18.64,18.64,0,0,1-1.5,6.5c-.2.4-.4.7-.9.6a16.85,16.85,0,0,0-5,.3,13.71,13.71,0,0,1-8.4-1.4,31.42,31.42,0,0,1-3.9-2.4c-.4-.3-.5-.3-.6.2a2.45,2.45,0,0,0,1.2,2.3Z" transform="translate(-75.9 -80.7)"/><path id="path11" class="cls-1" d="M145.9,111.3Z" transform="translate(-75.9 -80.7)"/><path id="path13" class="cls-1" d="M130.9,105.1c0-.1,0-.2-.2-.1l-.1.1c0,.1,0,.2.2.1S130.9,105.2,130.9,105.1Zm1.2,1.3c-.4.1-.7.3-.9-.2a.82.82,0,0,0-.5-.5,1,1,0,0,1-.4-.9c0-.2,0-.5.3-.5s.3.1.4.3l.3.9C131.4,105.9,131.5,106.4,132.1,106.4Z" transform="translate(-75.9 -80.7)"/><path id="path15" class="cls-1" d="M135,107.3c0,.1,0,.3.2.3s.2-.1.2-.2a.4.4,0,0,0-.2-.4C135.1,107,135,107.1,135,107.3Zm.9,1.1c-.4-.4-1-.5-1.2-1-.1-.3-.3-.6.1-.8a.6.6,0,0,1,.8.4c.1.5.2.9.3,1.4Z" transform="translate(-75.9 -80.7)"/><path id="path17" class="cls-1" d="M126.5,105.2c0-.7-.9-.5-1-1.1,0-.2,0-.5.2-.5s.3.2.2.4.1.3.3.2c.4-.3.3.1.4.3s.3.4.1.7Z" transform="translate(-75.9 -80.7)"/><path id="path19" class="cls-1" d="M138.4,108.8c.2,0,.2,0,.2-.1l-.1-.1c-.1,0-.2,0-.2.1l.1.1Zm.8.5c-.4-.3-1.1.3-1.2-.5,0-.3.1-.6.4-.6.5.1.7.6.9.9C139.4,109.2,139.3,109.3,139.2,109.3Z" transform="translate(-75.9 -80.7)"/><path id="path21" class="cls-1" d="M133.1,101.3c-.1,0-.3-.1-.3-.4a.47.47,0,0,1,.5-.5.27.27,0,0,1,.3.3C133.6,101,133.6,101.3,133.1,101.3Z" transform="translate(-75.9 -80.7)"/><path id="path23" class="cls-1" d="M128.7,99.5c0,.2-.1.4-.3.4s-.4-.3-.4-.5a.27.27,0,0,1,.3-.3C128.6,99.2,128.7,99.4,128.7,99.5Z" transform="translate(-75.9 -80.7)"/><path id="path25" class="cls-1" d="M135.7,102.8a.2.2,0,1,1-.4,0c0-.2.1-.2.3-.2A.35.35,0,0,1,135.7,102.8Z" transform="translate(-75.9 -80.7)"/><path id="path27" class="cls-1" d="M125.5,106.1c0-.2.1-.3.1-.2a.37.37,0,0,1,.1.3c0,.1,0,.2-.1.1A.35.35,0,0,1,125.5,106.1Z" transform="translate(-75.9 -80.7)"/><path id="path29" class="cls-1" d="M138.3,104.1c-.2.1-.3.2-.5,0a.14.14,0,0,1,0-.2c.3-.1.4.1.5.2Z" transform="translate(-75.9 -80.7)"/><path id="path31" class="cls-1" d="M133.7,102.1a.35.35,0,0,1-.1-.2c0-.1.1-.2.2-.1a.22.22,0,0,1,.2.2C133.9,102,133.8,102.1,133.7,102.1Z" transform="translate(-75.9 -80.7)"/><path id="path33" class="cls-1" d="M129.6,100.1a.35.35,0,0,1,.1.2c0,.1-.1.1-.2.1a.35.35,0,0,1-.2-.1C129.3,100.2,129.4,100.1,129.6,100.1Z" transform="translate(-75.9 -80.7)"/><path id="path35" class="cls-1" d="M127.1,109.7c-.1,0-.2-.1-.1-.2l.1-.1.2.2A.31.31,0,0,1,127.1,109.7Z" transform="translate(-75.9 -80.7)"/><path id="path37" class="cls-1" d="M126.6,107.2h0q.3-.15.3,0a.1.1,0,0,1-.1.1C126.7,107.4,126.6,107.3,126.6,107.2Z" transform="translate(-75.9 -80.7)"/><path id="path39" class="cls-1" d="M137,103.2c.1,0,.1-.1.2-.1s.2.1.1.2l-.1.1c-.2,0-.2-.1-.2-.2Z" transform="translate(-75.9 -80.7)"/><path id="path41" class="cls-1" d="M139.9,104.7a.1.1,0,0,1,.1-.1c.1,0,.2,0,.2.1l-.1.1C140,104.7,140,104.7,139.9,104.7Z" transform="translate(-75.9 -80.7)"/><path id="path43" class="cls-1" d="M131.8,101.2a.1.1,0,1,1-.1-.1c-.1.1,0,.1.1.1Z" transform="translate(-75.9 -80.7)"/><path id="path45" class="cls-1" d="M136.1,109.1h0v.2H136A.31.31,0,0,0,136.1,109.1Z" transform="translate(-75.9 -80.7)"/><path id="path47" class="cls-1" d="M137.7,102.9l-.1-.1c0-.1.1-.2.2-.1l.1.1A.31.31,0,0,1,137.7,102.9Z" transform="translate(-75.9 -80.7)"/><path id="path49" class="cls-1" d="M138.3,104.1a.35.35,0,0,0,.1.2c0,.1.1.1.1.2h-.1c-.1,0-.1-.1-.1-.2v-.2Z" transform="translate(-75.9 -80.7)"/><path id="path51" class="cls-1" d="M128.1,111.1c0,.1,0,.1-.1.1a.1.1,0,0,1,0-.2A.1.1,0,0,0,128.1,111.1Z" transform="translate(-75.9 -80.7)"/><path id="path53" class="cls-1" d="M129.7,105.5c0,.1,0,.1-.1.2a.1.1,0,0,1-.1-.1.31.31,0,0,1,.1-.2l.1.1Z" transform="translate(-75.9 -80.7)"/><path id="path55" class="cls-1" d="M125.4,107.4h0c-.1.1-.2.1,0,0Z" transform="translate(-75.9 -80.7)"/><path id="path57" class="cls-1" d="M125.9,109.1h0c-.1-.2-.1-.2,0-.2v.2Z" transform="translate(-75.9 -80.7)"/><path id="path59" class="cls-1" d="M128.8,104.6Z" transform="translate(-75.9 -80.7)"/><path id="path61" class="cls-1" d="M132.7,107.1h0l.1-.1v.1Z" transform="translate(-75.9 -80.7)"/><path id="path63" class="cls-1" d="M136.8,108.8c-.1,0-.1-.1,0,0,0-.1,0-.1.1-.1v.1C136.8,108.7,136.8,108.8,136.8,108.8Z" transform="translate(-75.9 -80.7)"/><path id="path65" class="cls-1" d="M136.8,108.1h0c0,.1,0,.1-.1.1A.1.1,0,0,0,136.8,108.1Z" transform="translate(-75.9 -80.7)"/><path id="path67" class="cls-1" d="M127.4,99.4Z" transform="translate(-75.9 -80.7)"/><path id="path69" class="cls-1" d="M134.9,108.7Z" transform="translate(-75.9 -80.7)"/><path id="path71" class="cls-1" d="M133.8,106.7Z" transform="translate(-75.9 -80.7)"/><path id="path73" class="cls-1" d="M152.4,107.2c.6-.5.7-1.4,1.2-1.9.3-.3.5-.6,1-.3.8.5,1.1.3,1.5-.6.2-.5.3-1.1.9-1.3a3.51,3.51,0,0,0-.6,1.4c-.1.6-.6.8-1,1.1a.47.47,0,0,1-.6-.1c-.7-.5-1-.4-1.3.4-.3.6-.4,1.2-1.1,1.3Z" transform="translate(-75.9 -80.7)"/><path id="path75" class="cls-1" d="M154.3,107.2Zm.5-.2c0,.3-.9,1.4-1.2,1.4s-.3-.1-.2-.3a10.09,10.09,0,0,0,.7-1.5c.1-.1.2-.2.4-.1a1.33,1.33,0,0,1,.3.5Z" transform="translate(-75.9 -80.7)"/><path id="path77" class="cls-1" d="M149.6,109.8c-.2-.1-.4-.2-.2-.4a5.3,5.3,0,0,0,.6-1c.1-.1.2-.3.4-.2s.3.2.3.4C150.8,109,150.1,109.8,149.6,109.8Z" transform="translate(-75.9 -80.7)"/><path id="path79" class="cls-1" d="M157,106.4l-.2-.2a3.1,3.1,0,0,1,.6-1.3c.1,0,.3,0,.3.1a.78.78,0,0,1-.2.8A.74.74,0,0,1,157,106.4Z" transform="translate(-75.9 -80.7)"/><path id="path81" class="cls-1" d="M156,107.4a.45.45,0,0,1-.3.4c-.2.1-.2-.1-.1-.2s.1-.4.3-.4C155.8,107.2,155.9,107.3,156,107.4Z" transform="translate(-75.9 -80.7)"/><path id="path83" class="cls-1" d="M159.4,104.7a.2.2,0,1,1,.2-.2c.1.1,0,.2-.2.2Z" transform="translate(-75.9 -80.7)"/><path id="path85" class="cls-1" d="M154.1,109.3c-.1,0-.2,0-.2-.1a.32.32,0,0,1,.3-.3c.1,0,.2,0,.2.1S154.3,109.3,154.1,109.3Z" transform="translate(-75.9 -80.7)"/><path id="path87" class="cls-1" d="M161.2,103.1c0,.1,0,.1-.1.2-.2-.1-.3-.1-.5-.2s0-.1.1-.1A.4.4,0,0,1,161.2,103.1Z" transform="translate(-75.9 -80.7)"/><path id="path89" class="cls-1" d="M161.3,104.9c-.1,0-.2,0-.2-.1a.22.22,0,0,1,.2-.2.1.1,0,0,1,.1.1C161.5,104.8,161.4,104.8,161.3,104.9Z" transform="translate(-75.9 -80.7)"/><path id="path91" class="cls-1" d="M161.7,105a.35.35,0,0,0,.1-.2c.1-.1.2,0,.2.1a.35.35,0,0,1-.1.2C161.8,105.3,161.8,105.2,161.7,105Z" transform="translate(-75.9 -80.7)"/><path id="path93" class="cls-1" d="M158,106.8c0,.2,0,.3-.1.4a.1.1,0,0,1-.1-.1c0-.2.1-.3.2-.3Z" transform="translate(-75.9 -80.7)"/><path id="path95" class="cls-1" d="M162.8,104.3a.35.35,0,0,0-.1-.2c0-.1.1-.2.2-.1s.1.2.1.2A.35.35,0,0,1,162.8,104.3Z" transform="translate(-75.9 -80.7)"/><path id="path97" class="cls-1" d="M150.4,110.1l.1.1-.1.1h-.1C150.3,110.1,150.3,110.1,150.4,110.1Z" transform="translate(-75.9 -80.7)"/><path id="path99" class="cls-1" d="M151.4,109.1c-.1,0-.2,0-.2-.1s.1-.1.2-.2a.1.1,0,0,1,.1.1C151.5,109,151.5,109.1,151.4,109.1Z" transform="translate(-75.9 -80.7)"/><path id="path101" class="cls-1" d="M152.2,109.7l.1-.1.1.1-.1.1A.1.1,0,0,1,152.2,109.7Z" transform="translate(-75.9 -80.7)"/><path id="path103" class="cls-1" d="M162.4,106a.1.1,0,0,1,0-.2c0,.1.1.2,0,.2Z" transform="translate(-75.9 -80.7)"/><path id="path105" class="cls-1" d="M160.3,105.3Z" transform="translate(-75.9 -80.7)"/><path id="path107" class="cls-1" d="M158.1,106.8Z" transform="translate(-75.9 -80.7)"/><path id="path109" class="cls-1" d="M150.2,102.4c.3,0,.4.1.3.2,0,.3,0,.7-.3.7s-.3-.2-.3-.4.1-.4.3-.5Z" transform="translate(-75.9 -80.7)"/><path id="path111" class="cls-1" d="M160.6,98.5c-.1.3-.2.6-.5.5s-.6-.2-.5-.4.5-.3.8-.4c.1-.1.2.1.2.3Z" transform="translate(-75.9 -80.7)"/><path id="path113" class="cls-1" d="M151.3,103.5a.27.27,0,0,1-.3-.3c0-.2,0-.4.2-.4s.3.1.3.2S151.5,103.4,151.3,103.5Z" transform="translate(-75.9 -80.7)"/><path id="path115" class="cls-1" d="M155.4,99.6c0,.1-.1.1-.2.1s-.1-.1-.1-.2.2-.1.3-.1Z" transform="translate(-75.9 -80.7)"/><path id="path117" class="cls-1" d="M156.4,99.6c-.1,0-.1-.1-.1-.2s0-.2.2-.2a.22.22,0,0,1,.2.2A.77.77,0,0,1,156.4,99.6Z" transform="translate(-75.9 -80.7)"/><path id="path119" class="cls-1" d="M156.7,100.7a.2.2,0,1,1-.2-.2c.1,0,.1.1.2.2Z" transform="translate(-75.9 -80.7)"/><path id="path121" class="cls-1" d="M154.6,100.7l.1-.1a.16.16,0,0,1,.1.3.22.22,0,0,1-.2-.2Z" transform="translate(-75.9 -80.7)"/><path id="path123" class="cls-1" d="M154.1,101.6a.35.35,0,0,0-.1.2c-.1.1-.2,0-.2-.2s.1-.1.2-.2A.31.31,0,0,0,154.1,101.6Z" transform="translate(-75.9 -80.7)"/><path id="path125" class="cls-1" d="M149.5,104.9c-.1-.1-.2-.2-.1-.2a.31.31,0,0,1,.2-.1c.1,0,.1.1.1.2S149.6,104.9,149.5,104.9Z" transform="translate(-75.9 -80.7)"/><path id="path127" class="cls-1" d="M161.2,98.9c0-.1.1-.1.2-.1s.1.1.1.2l-.1.1C161.2,99.1,161.1,99,161.2,98.9Z" transform="translate(-75.9 -80.7)"/><path id="path129" class="cls-1" d="M159,99.9l-.1-.1c0-.1.1-.1.2-.1l.1.1A.35.35,0,0,1,159,99.9Z" transform="translate(-75.9 -80.7)"/><path id="path131" class="cls-1" d="M152.3,102.2c0-.1.1-.1.2-.1s.1.1.1.2l-.1.1C152.3,102.4,152.3,102.3,152.3,102.2Z" transform="translate(-75.9 -80.7)"/><path id="path133" class="cls-1" d="M157.2,100.5a.1.1,0,1,1,.1.1C157.3,100.5,157.3,100.5,157.2,100.5Z" transform="translate(-75.9 -80.7)"/><path id="path135" class="cls-1" d="M148.3,106.5Z" transform="translate(-75.9 -80.7)"/><path id="path137" class="cls-1" d="M163,98.6Z" transform="translate(-75.9 -80.7)"/></g><path id="path140" class="cls-2" d="M168.9,99.6c3,.1,4.1,3.1,1.9,6.4,1.4-3.4.2-5.9-1.8-5.8a1.24,1.24,0,0,0-.5,2.4c-2.4.2-1.8-3.1.4-3Zm2.2,7.8c-2.7,3.3-4.2,4-7.8,4.2,6.4-.9,6.2-6.1,10-6.1a3.23,3.23,0,0,1,1.1,6.2,2.08,2.08,0,0,1-2.5-2.5c.1-.7,1.3-.7,1,.2-1,1.7,2.1,3.1,2.8-.3C176.1,106.3,172.2,105.7,171.1,107.4Zm.6.6c-.5.3.1.6.2.8C172,108.5,172.1,107.8,171.7,108Zm-.9.6c0,.5.6.2.8.2C171.4,108.6,170.8,108.2,170.8,108.6Zm-.1,1.4c.5.3.7-.6.9-.8C171.1,109.2,170.2,109.6,170.7,110Zm11.3-.1c-2,1.6-4.5.5-5.6-3.6,1.5,3.7,4,4.2,5.2,3,.6-.6.4-1.6-.8-1.5C182.4,106.6,183.4,108.9,182,109.9Zm10.1,1.6c-7.4-3.9-12.3,6.8-15.4-3C181.1,117.5,184.3,106.4,192.1,111.5Zm-9.4-.9c.5-.3-.1-.6-.2-.8C182.4,110.1,182.3,110.8,182.7,110.6Zm.9-.6c0-.5-.6-.2-.8-.2C183,110,183.6,110.4,183.6,110Zm.1-1.4c-.5-.3-.7.6-.9.8C183.3,109.4,184.2,109,183.7,108.6Z" transform="translate(-75.9 -80.7)"/><path id="path142" class="cls-2" d="M118.9,99.6c-3,.1-4.1,3.1-1.9,6.4-1.4-3.4-.2-5.9,1.8-5.8a1.24,1.24,0,0,1,.5,2.4C121.7,102.8,121.1,99.5,118.9,99.6Zm-2.2,7.8c2.7,3.3,4.2,4,7.8,4.2-6.4-.9-6.2-6.1-10-6.1a3.23,3.23,0,0,0-1.1,6.2,2.08,2.08,0,0,0,2.5-2.5c-.1-.7-1.3-.7-1,.2,1,1.7-2.1,3.1-2.8-.3C111.7,106.3,115.6,105.7,116.7,107.4Zm-.6.6c.5.3-.1.6-.2.8C115.8,108.5,115.7,107.8,116.1,108Zm.9.6c0,.5-.6.2-.8.2C116.4,108.6,117,108.2,117,108.6Zm.1,1.4c-.5.3-.7-.6-.9-.8C116.7,109.2,117.6,109.6,117.1,110Zm-11.3-.1c2,1.6,4.5.5,5.6-3.6-1.5,3.7-4,4.2-5.2,3-.6-.6-.4-1.6.8-1.5C105.4,106.6,104.4,108.9,105.8,109.9Zm-10.1,1.6c7.4-3.9,12.3,6.8,15.4-3C106.7,117.5,103.5,106.4,95.7,111.5Zm9.4-.9c-.5-.3.1-.6.2-.8C105.4,110.1,105.5,110.8,105.1,110.6Zm-.9-.6c0-.5.6-.2.8-.2C104.8,110,104.2,110.4,104.2,110Zm-.1-1.4c.5-.3.7.6.9.8C104.5,109.4,103.6,109,104.1,108.6Z" transform="translate(-75.9 -80.7)"/></g><g id="Layer1003"><path id="path145" class="cls-1" d="M77.6,127.3a1.7,1.7,0,1,1-1.7,1.7A1.69,1.69,0,0,1,77.6,127.3Z" transform="translate(-75.9 -80.7)"/><path id="path147" class="cls-1" d="M211.7,127.6a1.7,1.7,0,1,1-1.7,1.7A1.75,1.75,0,0,1,211.7,127.6Z" transform="translate(-75.9 -80.7)"/><path id="path149" class="cls-1" d="M91.9,130.2c1.2,0,2,.9,2,2.4a2.11,2.11,0,0,1-2.2,2.4H86V123.3h4.6c1.9,0,3.8.3,4.7,1.1h.1l-.9-3.9H82.6v.2c.7.8.7,2.3.7,3.3v2.8a2.68,2.68,0,0,1-1.3,2.3v.2a2.92,2.92,0,0,1,1.3,2.3v1c0,.9,0,4.3-.7,5.1v.2h9.1c3,0,4.9-2.2,4.9-5.3,0-2.9-1.6-5.2-4.9-5.2H89.6l-1.1-.2h-.1l-1.5,3.3H87a3.81,3.81,0,0,1,1.6-.3Zm11.1-6.1c0-.9,0-2.5.7-3.3v-.2H99.6v.2c.7.8.7,2.3.7,3.3v2.7a2.73,2.73,0,0,1-1.3,2.4v.2a2.92,2.92,0,0,1,1.3,2.3v1c0,.9,0,4.3-.7,5.1v.2h4.1v-.2c-.7-.8-.7-4.1-.7-5.1v-2.1h2.3c.4,4.7,3.6,7.5,7.5,7.5,3.5,0,6.5-2.1,7.4-6.4.3-1.4.4-1.9,1.3-2.3v-.2c-.9-.5-1-1-1.2-1.9-.8-4.6-3.8-6.9-7.4-6.9-3.9,0-7,2.9-7.5,7.2H103Zm5,7.8a4.33,4.33,0,0,0-.1-.5,2,2,0,0,1,1.2-2v-.2a2.27,2.27,0,0,1-1.2-2,1.27,1.27,0,0,1,.1-.6,4.75,4.75,0,0,1,4.8-3.4,4.6,4.6,0,0,1,4.7,3.4,1.27,1.27,0,0,1,.1.6,2.1,2.1,0,0,1-1.2,2v.2a2.27,2.27,0,0,1,1.2,2,.75.75,0,0,1-.1.5c-.4,2.3-2.7,3.4-4.8,3.4S108.4,134.2,108,131.9Zm16.1-.2a7.72,7.72,0,0,0,7.9,6.4,8.63,8.63,0,0,0,4.9-1.5l1-4.6h-.1a6.78,6.78,0,0,1-5.9,3.2c-2.2,0-4.6-1-5.1-3.3a4.33,4.33,0,0,0-.1-.5,2,2,0,0,1,1.2-2v-.2a2.27,2.27,0,0,1-1.2-2,1.27,1.27,0,0,1,.1-.6c.6-2.4,3-3.3,4.9-3.3a6.16,6.16,0,0,1,5.2,2.8h.1l.8-3.7a9.41,9.41,0,0,0-5.9-2c-4,0-7.1,2.2-8.1,6.9a2.47,2.47,0,0,1-1.2,1.9v.2c1,.3,1.2.9,1.5,2.3Zm16.4-7.3h.1a5.14,5.14,0,0,1,3-1h2.2v3.3a2.73,2.73,0,0,1-1.3,2.4v.2a2.73,2.73,0,0,1,1.3,2.4v.9c0,.9,0,4.3-.8,5.1v.2h4.2v-.2c-.8-.8-.8-4.1-.8-5.1v-1a2.68,2.68,0,0,1,1.3-2.3v-.2a2.73,2.73,0,0,1-1.3-2.4v-3.3h2.4c1,0,1.5.4,1.7,1h.1l1.8-4.1h-.1l-1.5.2h-9.1l-1.6-.2H142Zm16.2,8.3c0,.9,0,4.3-.7,5.1v.2h3.7v-.2a5.22,5.22,0,0,1,1.4-3.2l6.6-9.2v7.4c0,.9,0,4.3-.7,5.1v.2h3.9v-.2c-.6-.8-.6-4.1-.6-5.1v-1a2.68,2.68,0,0,1,1.3-2.3v-.2a2.73,2.73,0,0,1-1.3-2.4v-2.7c0-.9,0-2.5.6-3.3v-.2h-4v.2c0,1.3-.9,2.3-1.6,3.3l-6.1,8.5v-8.5c0-.9,0-2.5.7-3.3v-.2H156v.2c.7.8.7,2.3.7,3.3V127a2.68,2.68,0,0,1-1.3,2.3v.2a2.92,2.92,0,0,1,1.3,2.3Zm20.5-5V124c0-.9,0-2.5.7-3.3v-.2h-4.1v.2c.7.8.7,2.3.7,3.3v2.7a2.73,2.73,0,0,1-1.3,2.4v.2a2.92,2.92,0,0,1,1.3,2.3v1c0,.9,0,4.3-.7,5.1v.2h4.1v-.2c-.7-.8-.7-4.1-.7-5.1v-1.9h8.4v1.9c0,.9,0,4.3-.7,5.1v.2H189v-.2c-.7-.8-.7-4.1-.7-5.1v-1a2.68,2.68,0,0,1,1.3-2.3v-.2a2.55,2.55,0,0,1-1.3-2.3V124c0-.9,0-2.5.7-3.3v-.2h-4.1v.2c.7.8.7,2.3.7,3.3v3.7Zm15.3,5c0,.9,0,4.3-.7,5.1v.2h3.7v-.2a5.22,5.22,0,0,1,1.4-3.2l6.6-9.2v7.4c0,.9,0,4.3-.7,5.1v.2h3.9v-.2c-.6-.8-.6-4.1-.6-5.1v-1a2.68,2.68,0,0,1,1.3-2.3v-.2a2.73,2.73,0,0,1-1.3-2.4v-2.7c0-.9,0-2.5.6-3.3v-.2h-4v.2c0,1.3-.9,2.3-1.6,3.3l-6.1,8.5v-8.5c0-.9,0-2.5.7-3.3v-.2h-3.9v.2c.7.8.7,2.3.7,3.3V127a2.68,2.68,0,0,1-1.3,2.3v.2a2.92,2.92,0,0,1,1.3,2.3Z" transform="translate(-75.9 -80.7)"/></g><path id="path154" class="cls-1" d="M101.6,150.1h-1.5c0-1,.1-1.9.1-2.6H97.5c0,.7,0,1.5.1,2.6H96.1c0-1,.1-2,.1-3.1a23.52,23.52,0,0,0-.1-2.8h1.5c0,.8-.1,1.6-.1,2.3h2.7a20.15,20.15,0,0,0-.1-2.3h1.5c0,.8-.1,1.7-.1,2.8S101.6,149.2,101.6,150.1Zm8-1v1H105c0-.9.1-1.9.1-3.1a23.52,23.52,0,0,0-.1-2.8h4.3l-.1,1c-1.1,0-2-.1-2.9-.1,0,.4.1.9.1,1.5h2.4v.9h-2.4v1.7c1.1,0,2.1,0,3.2-.1Zm11.3,1h-1.7a.44.44,0,0,1-.1-.3,5.13,5.13,0,0,0-.8-1.8,1.28,1.28,0,0,0-1-.4h-.1a20.08,20.08,0,0,0,.1,2.5h-1.4c0-.8.1-1.7.1-2.5h-.1a1.16,1.16,0,0,0-1,.4,5.13,5.13,0,0,0-.8,1.8c0,.1-.1.2-.1.3h-1.6a1.69,1.69,0,0,1,.2-.5,6.17,6.17,0,0,1,1-1.9,2,2,0,0,1,1.1-.6h0a3,3,0,0,1-1.1-.7,4.65,4.65,0,0,1-.8-1.6,1.69,1.69,0,0,0-.2-.5h1.5a.44.44,0,0,1,.1.3c.3,1.4.9,2.2,1.8,2.2h.1a20.93,20.93,0,0,0-.1-2.4h1.4c0,.9-.1,1.7-.1,2.4h.1c.9,0,1.5-.7,1.8-2.2,0-.1.1-.2.1-.3h1.4a1.69,1.69,0,0,1-.2.5,5.29,5.29,0,0,1-.7,1.5,2.1,2.1,0,0,1-1.1.7h0a2,2,0,0,1,1.1.6,6.17,6.17,0,0,1,1,1.9.66.66,0,0,0,.1.6Zm8.4,0h-1.5c0-1,.1-1.9.1-2.6h-2.7c0,.7,0,1.5.1,2.6h-1.5c0-1,.1-2,.1-3.1a23.52,23.52,0,0,0-.1-2.8h1.5c0,.8-.1,1.6-.1,2.3h2.7a20.15,20.15,0,0,0-.1-2.3h1.5c0,.8-.1,1.7-.1,2.8a29.12,29.12,0,0,0,.1,3.1Zm9.8-3a2.9,2.9,0,0,1-1,2.3,3.66,3.66,0,0,1-2.5.9,3.57,3.57,0,0,1-2.3-.8,3,3,0,0,1,.1-4.4,3.66,3.66,0,0,1,2.5-.9,3.57,3.57,0,0,1,2.3.8,2.58,2.58,0,0,1,.9,2.1Zm-1.5.1a2,2,0,0,0-.6-1.5,1.82,1.82,0,0,0-1.4-.6,1.61,1.61,0,0,0-1.3.6,2,2,0,0,0-.5,1.5,2,2,0,0,0,.6,1.5,1.82,1.82,0,0,0,1.4.6,1.61,1.61,0,0,0,1.3-.6,2.46,2.46,0,0,0,.5-1.5Zm9.1,1.9v1h-4.5c0-.9.1-1.9.1-3.1a23.52,23.52,0,0,0-.1-2.8h4.3l-.1,1c-1.1,0-2-.1-2.9-.1,0,.4.1.9.1,1.5H146v.9h-2.4v1.7c.9,0,2,0,3.1-.1Zm13-.8c0,1.2-1.1,1.8-3.4,1.8h-1.9c0-.9.1-1.9.1-3.1a21.85,21.85,0,0,0-.1-2.8h4.8v1c-1.3,0-2.5-.1-3.5-.1,0,.4.1.9.1,1.5h.7C158.7,146.6,159.7,147.2,159.7,148.3Zm-1.4.1q0-.9-1.8-.9h-.6v1.7h.5a4.14,4.14,0,0,0,1.4-.2.56.56,0,0,0,.5-.6Zm8.9.7v1h-4.5c0-.9.1-1.9.1-3.1a23.52,23.52,0,0,0-.1-2.8H167l-.1,1c-1.1,0-2-.1-2.9-.1,0,.4.1.9.1,1.5h2.4v.9h-2.4v1.7c.9,0,2,0,3.1-.1Zm8.1-4.9c0,.8-.1,1.7-.1,2.7a30.09,30.09,0,0,0,.1,3.1h-1.5c0-.9.1-1.9.1-3v-2h-.8c-.1.2-.1.5-.2.7s-.2.5-.3.8a2,2,0,0,1-.4.8c-.1.3-.3.5-.4.8a4.23,4.23,0,0,1-.5.7,2.65,2.65,0,0,0-.5.6,2.09,2.09,0,0,1-.6.4,1.42,1.42,0,0,1-.6.2l-.1-1.1a.54.54,0,0,0,.4-.3c.2-.2.3-.4.5-.6a5.58,5.58,0,0,0,.5-.8c.2-.3.3-.7.5-1a3.58,3.58,0,0,0,.4-1.1c.1-.4.2-.7.3-1Zm8.7,4a1.65,1.65,0,0,1-.9,1.5,5.36,5.36,0,0,1-2.4.5h-1.9c0-.9.1-1.9.1-3.1a21.85,21.85,0,0,0-.1-2.8h1.5c0,.2,0,.9-.1,2.2h.8C183,146.4,184,147,184,148.2Zm-1.5,0c0-.7-.6-1-1.7-1h-.7v2h.6c1.2.1,1.8-.3,1.8-1Zm8.9.9v1h-4.5c0-.9.1-1.9.1-3.1a23.52,23.52,0,0,0-.1-2.8h4.3l-.1,1c-1.1,0-2-.1-2.9-.1,0,.4.1.9.1,1.5h2.4v.9h-2.4v1.7c1,0,2,0,3.1-.1Zm-.5-6c0,.2-.1.3-.2.5a.85.85,0,0,1-.6.2.76.76,0,0,1-.5-.2.52.52,0,0,1-.2-.4c0-.2.1-.3.2-.5a.85.85,0,0,1,.6-.2.76.76,0,0,1,.5.2.52.52,0,0,1,.2.4Zm-2.1,0c0,.2-.1.3-.2.5a.85.85,0,0,1-.6.2.76.76,0,0,1-.5-.2.52.52,0,0,1-.2-.4c0-.2.1-.3.2-.5a.85.85,0,0,1,.6-.2.76.76,0,0,1,.5.2.52.52,0,0,1,.2.4Z" transform="translate(-75.9 -80.7)"/></svg>