<svg width="35" height="35" viewBox="0 0 35 35" fill="none" xmlns="http://www.w3.org/2000/svg">
<rect y="15" width="35" height="3" rx="1" fill="#333333"/>
<rect x="4" y="17" width="3" height="6" rx="1" fill="#333333"/>
<rect x="4" y="25" width="3" height="3" rx="1" fill="#333333"/>
<rect x="4" y="32" width="3" height="3" rx="1" fill="#333333"/>
<path d="M5.5 2C5.5 1.72386 5.72386 1.5 6 1.5H21.9698C22.1001 1.5 22.2253 1.55086 22.3186 1.64174L29.3488 8.48591C29.4455 8.58004 29.5 8.70925 29.5 8.84417V16C29.5 16.2761 29.2761 16.5 29 16.5H6C5.72386 16.5 5.5 16.2761 5.5 16V2Z" stroke="#333333" stroke-width="3"/>
<rect x="10" y="17" width="3" height="10" rx="1" fill="#333333"/>
<rect x="16" y="17" width="3" height="7" rx="1" fill="#333333"/>
<rect x="16" y="28" width="3" height="4" rx="1" fill="#333333"/>
<rect x="28" y="17" width="3" height="7" rx="1" fill="#333333"/>
<rect x="28" y="31" width="3" height="3" rx="1" fill="#333333"/>
<rect x="22" y="17" width="3" height="4" rx="1" fill="#333333"/>
<rect x="22" y="23" width="3" height="6" rx="1" fill="#333333"/>
<path d="M21 3.10097C21 2.25894 21.9771 1.79388 22.6306 2.32486L28.6306 7.19986C28.8643 7.38975 29 7.67484 29 7.97597V10C29 10.5523 28.5523 11 28 11H22C21.4477 11 21 10.5523 21 10V3.10097Z" fill="#333333"/>
</svg>
