<svg width="48" height="48" viewBox="0 0 48 48" fill="none" xmlns="http://www.w3.org/2000/svg">
<rect width="48" height="48" rx="16" fill="#EFEFEF"/>
<path d="M31.6001 15H16.3999C13.4176 15 11 17.3653 11 20.283V27.717C11 30.6347 13.4176 33 16.3999 33H31.6001C34.5824 33 37 30.6347 37 27.717V20.283C37 17.3653 34.5824 15 31.6001 15ZM27.9482 24.3617L20.8386 27.6792C20.6491 27.7676 20.4303 27.6324 20.4303 27.4271V20.5848C20.4303 20.3766 20.6549 20.2416 20.8447 20.3357L27.9544 23.8606C28.1658 23.9653 28.1621 24.2619 27.9482 24.3617Z" fill="#002677"/>
</svg>
