<svg width="24" height="25" viewBox="0 0 24 25" fill="none" xmlns="http://www.w3.org/2000/svg">
<rect y="0.861816" width="24" height="24" rx="4" fill="#408CDB"/>
<path fill-rule="evenodd" clip-rule="evenodd" d="M8.889 10.5288C9.24266 10.5288 9.58184 10.3883 9.83192 10.1382C10.082 9.88816 10.2225 9.54898 10.2225 9.19532C10.2225 8.84165 10.082 8.50247 9.83192 8.25239C9.58184 8.00231 9.24266 7.86182 8.889 7.86182C8.53533 7.86182 8.19615 8.00231 7.94607 8.25239C7.69599 8.50247 7.5555 8.84165 7.5555 9.19532C7.5555 9.54898 7.69599 9.88816 7.94607 10.1382C8.19615 10.3883 8.53533 10.5288 8.889 10.5288ZM15.111 10.5288C15.4647 10.5288 15.8038 10.3883 16.0539 10.1382C16.304 9.88816 16.4445 9.54898 16.4445 9.19532C16.4445 8.84165 16.304 8.50247 16.0539 8.25239C15.8038 8.00231 15.4647 7.86182 15.111 7.86182C14.7573 7.86182 14.4181 8.00231 14.1681 8.25239C13.918 8.50247 13.7775 8.84165 13.7775 9.19532C13.7775 9.54898 13.918 9.88816 14.1681 10.1382C14.4181 10.3883 14.7573 10.5288 15.111 10.5288ZM19.881 16.6368L18.079 13.6088C17.9601 13.4128 17.7694 13.2711 17.5474 13.2137C17.3255 13.1564 17.09 13.188 16.891 13.3018C16.7928 13.3568 16.7066 13.4308 16.6375 13.5196C16.5684 13.6084 16.5178 13.7102 16.4886 13.8188C16.4595 13.9275 16.4524 14.0409 16.4677 14.1524C16.483 14.2638 16.5205 14.3711 16.578 14.4678L16.792 14.8278C16.1655 15.4625 15.4188 15.9659 14.5955 16.3086C13.7721 16.6513 12.8888 16.8264 11.997 16.8238C11.106 16.8265 10.2234 16.6518 9.40066 16.3098C8.57792 15.9677 7.83152 15.4653 7.205 14.8318L7.422 14.4678C7.47931 14.371 7.5167 14.2638 7.53197 14.1524C7.54724 14.0409 7.54009 13.9276 7.51093 13.8189C7.48177 13.7103 7.43119 13.6086 7.36217 13.5198C7.29314 13.431 7.20707 13.3569 7.109 13.3018C6.91001 13.1874 6.67414 13.1555 6.4519 13.2129C6.22966 13.2703 6.03873 13.4124 5.92 13.6088L4.12 16.6368C4.06264 16.7335 4.02519 16.8407 4.00985 16.9521C3.9945 17.0635 4.00157 17.1768 4.03064 17.2855C4.0597 17.3941 4.11018 17.4958 4.1791 17.5847C4.24803 17.6735 4.33401 17.7477 4.432 17.8028C4.6311 17.9167 4.86681 17.9483 5.0889 17.891C5.31099 17.8336 5.50191 17.6919 5.621 17.4958L6.304 16.3488C7.86538 17.7574 9.89512 18.5345 11.998 18.5288C14.1028 18.5347 16.1343 17.7561 17.696 16.3448L18.381 17.4958C18.4988 17.6932 18.6898 17.8362 18.9124 17.8937C19.135 17.9512 19.3713 17.9185 19.57 17.8028C19.668 17.7477 19.754 17.6735 19.8229 17.5847C19.8918 17.4958 19.9423 17.3941 19.9714 17.2855C20.0004 17.1768 20.0075 17.0635 19.9921 16.9521C19.9768 16.8407 19.9393 16.7335 19.882 16.6368H19.881Z" fill="white"/>
</svg>
