<svg width="24" height="25" viewBox="0 0 24 25" fill="none" xmlns="http://www.w3.org/2000/svg">
<rect y="0.861816" width="24" height="24" rx="4" fill="#4BAAE7"/>
<path fill-rule="evenodd" clip-rule="evenodd" d="M20 8.40081C19.401 8.66631 18.7656 8.84057 18.115 8.91781C18.8003 8.50745 19.3131 7.86207 19.558 7.10181C18.9134 7.48402 18.2083 7.75323 17.473 7.89781C16.9788 7.36974 16.324 7.01966 15.6104 6.90194C14.8968 6.78422 14.1643 6.90544 13.5266 7.24678C12.889 7.58811 12.3819 8.13046 12.0842 8.78959C11.7864 9.44871 11.7146 10.1877 11.88 10.8918C10.5748 10.8264 9.29789 10.4872 8.13225 9.89632C6.9666 9.3054 5.93827 8.47595 5.114 7.46181C4.69297 8.18412 4.56366 9.03995 4.7525 9.85441C4.94134 10.6689 5.43407 11.3805 6.13 11.8438C5.60875 11.8275 5.09894 11.687 4.643 11.4338V11.4748C4.64338 12.2326 4.90573 12.9669 5.38558 13.5534C5.86544 14.1399 6.5333 14.5424 7.276 14.6928C6.79262 14.8235 6.28586 14.8426 5.794 14.7488C6.00361 15.401 6.41183 15.9714 6.96156 16.3802C7.51129 16.789 8.17505 17.0158 8.86 17.0288C8.17891 17.5634 7.39908 17.9584 6.56513 18.1913C5.73119 18.4241 4.85952 18.4902 4 18.3858C5.50081 19.3508 7.24774 19.8632 9.032 19.8618C15.07 19.8618 18.372 14.8618 18.372 10.5248C18.372 10.3818 18.368 10.2398 18.362 10.0998C19.0047 9.63501 19.5594 9.05933 20 8.39981V8.40081Z" fill="white"/>
</svg>
