<svg width="24" height="25" viewBox="0 0 24 25" fill="none" xmlns="http://www.w3.org/2000/svg">
<rect y="0.861816" width="24" height="24" rx="4" fill="#5380BD"/>
<path fill-rule="evenodd" clip-rule="evenodd" d="M19.623 8.52182C19.743 8.14982 19.623 7.87882 19.098 7.87882H17.353C16.913 7.87882 16.709 8.11582 16.59 8.36982C16.59 8.36982 15.692 10.5398 14.438 11.9458C14.032 12.3518 13.845 12.4878 13.625 12.4878C13.506 12.4878 13.354 12.3518 13.354 11.9798V8.50582C13.354 8.06582 13.218 7.86182 12.845 7.86182H10.1C9.83 7.86182 9.66 8.06482 9.66 8.26882C9.66 8.69182 10.287 8.79382 10.354 9.97982V12.5558C10.354 13.1148 10.253 13.2158 10.032 13.2158C9.439 13.2158 7.999 11.0308 7.135 8.53982C6.965 8.04782 6.796 7.86182 6.355 7.86182H4.593C4.085 7.86182 4 8.09882 4 8.35282C4 8.81082 4.593 11.1148 6.762 14.1658C8.202 16.2498 10.252 17.3678 12.1 17.3678C13.218 17.3678 13.354 17.1138 13.354 16.6898V15.1148C13.354 14.6058 13.455 14.5208 13.811 14.5208C14.065 14.5208 14.523 14.6568 15.557 15.6568C16.743 16.8428 16.947 17.3848 17.607 17.3848H19.352C19.861 17.3848 20.098 17.1308 19.962 16.6398C19.81 16.1478 19.234 15.4368 18.488 14.5898C18.081 14.1148 17.471 13.5898 17.285 13.3348C17.031 12.9958 17.099 12.8608 17.285 12.5548C17.268 12.5548 19.403 9.53982 19.623 8.52282" fill="white"/>
</svg>
