<svg width="47" height="50" viewBox="0 0 47 50" fill="none" xmlns="http://www.w3.org/2000/svg">
<path d="M23.5298 0C10.5898 0 0.0550835 11.1963 0.0504932 24.9609C0.0481979 29.3604 1.13151 33.656 3.18566 37.4414L0 50L12.2974 46.9092C15.7263 48.8989 19.5868 49.9438 23.5161 49.9463H23.5252C36.463 49.9463 46.9931 38.7476 47 24.9854C47.0046 18.313 44.566 12.0398 40.1329 7.31934C35.6998 2.60132 29.8094 0.00244125 23.5298 0ZM23.5252 5C28.5459 5.00244 33.2635 7.08496 36.8095 10.8545C40.3555 14.6289 42.3041 19.646 42.2995 24.9805C42.2949 35.99 33.8752 44.9463 23.5207 44.9463C20.3878 44.9438 17.2847 44.1064 14.5512 42.5195L12.9676 41.6016L11.2187 42.041L6.59166 43.2031L7.72087 38.7402L8.23039 36.7383L7.25725 34.9414C5.61622 31.9214 4.74866 28.468 4.75095 24.9609C4.75554 13.9563 13.1776 5 23.5252 5ZM15.2214 13.4375C14.8289 13.4375 14.1943 13.5938 13.6561 14.2188C13.1179 14.8413 11.5997 16.3489 11.5997 19.4189C11.5997 22.489 13.702 25.4565 13.9958 25.874C14.2873 26.2891 18.0536 32.7881 24.0164 35.2881C28.9705 37.3657 29.9769 36.9556 31.0533 36.8506C32.1297 36.748 34.5259 35.3442 35.0147 33.8867C35.5036 32.4292 35.5048 31.1755 35.359 30.918C35.2133 30.658 34.822 30.5029 34.2344 30.1904C33.6491 29.8779 30.7653 28.3716 30.2271 28.1641C29.6889 27.9565 29.2952 27.8516 28.9051 28.4766C28.5149 29.1016 27.3937 30.5029 27.0506 30.918C26.7075 31.3354 26.3666 31.3916 25.7791 31.0791C25.1915 30.7642 23.3026 30.1038 21.0603 27.9785C19.3159 26.3257 18.1397 24.2871 17.7966 23.6621C17.4557 23.0396 17.7644 22.6978 18.0582 22.3877C18.321 22.1082 18.6412 21.6589 18.935 21.2939C19.2264 20.929 19.3274 20.6689 19.5225 20.2539C19.7176 19.8389 19.6178 19.4727 19.472 19.1602C19.3263 18.8477 18.1856 15.7666 17.6634 14.5312C17.2239 13.4937 16.7603 13.4692 16.3414 13.4521C16.0006 13.4375 15.6116 13.4375 15.2214 13.4375Z" fill="#63FF2D"/>
</svg>
