<svg width="47" height="50" viewBox="0 0 47 50" fill="none" xmlns="http://www.w3.org/2000/svg">
<path d="M43.0077 0.00461769C42.3283 0.0398523 41.7051 0.270233 41.1577 0.525008C40.6516 0.76081 38.835 1.66201 35.943 3.09443C33.051 4.52686 29.218 6.42683 25.1326 8.45553C16.9616 12.5129 7.78076 17.0786 3.07558 19.4162C2.91377 19.4962 2.25734 19.7334 1.5332 20.3866C0.806767 21.0411 0 22.4641 0 24.0184C0 25.2733 0.530194 26.5499 1.17056 27.2817C1.81092 28.0135 2.45932 28.355 3.00214 28.6098C4.58927 29.3565 9.49184 31.6685 11.6229 32.6754C12.37 35.318 14.1224 41.541 14.5333 43.0723H14.5287C14.8626 44.3191 15.1874 45.1322 15.6396 45.8098C15.8656 46.1486 16.1353 46.4562 16.4658 46.6988C16.5932 46.7923 16.7332 46.8641 16.8744 46.9319C16.8939 46.9414 16.9146 46.9441 16.9341 46.9536L16.879 46.9373C16.9203 46.9563 16.957 46.9847 16.9983 47.0023C17.066 47.0294 17.1131 47.0294 17.2049 47.0511C17.5274 47.1677 17.8487 47.2463 18.1459 47.2463C19.4232 47.2463 20.207 46.4277 20.207 46.4277L20.2575 46.3844L25.7752 40.8715L32.5323 48.2491C32.6528 48.451 33.6191 50 35.8604 50C37.1962 50 38.2554 49.2248 38.9314 48.4063C39.6073 47.5878 40.0273 46.7503 40.2167 45.6146V45.5984C40.3475 44.792 46.8361 6.33603 46.8361 6.33603L46.8223 6.40108C47.0243 5.33997 47.0828 4.3141 46.8452 3.2679C46.6077 2.2217 45.965 1.20124 45.1927 0.665947C44.4204 0.13065 43.687 -0.0306169 43.0077 0.00461769ZM42.0804 6.08125C41.8256 7.59228 36.052 41.8459 35.6768 44.1185L28.9656 36.7951C27.2361 34.906 24.5381 34.8396 22.7409 36.6325L19.3165 40.053L21.1435 31.6183C21.1435 31.6183 33.7465 16.5527 34.5062 15.6759C35.1167 14.974 35.2453 14.7273 35.2453 14.4834C35.2453 14.1581 35.1041 13.925 34.777 13.925C34.4832 13.925 34.0839 14.2571 33.8727 14.4129C31.1735 16.3996 19.616 24.1784 14.0191 27.9376C13.8091 27.7886 13.6026 27.6341 13.3719 27.5257C11.5357 26.6583 8.00569 24.986 5.94 24.013C10.815 21.59 19.1719 17.4377 26.955 13.5727C31.0393 11.544 34.8711 9.64267 37.7608 8.2116C40.2006 7.00278 41.4722 6.37804 42.0804 6.08125ZM35.6033 44.5196H35.6079C35.6079 44.521 35.6033 44.54 35.6033 44.5413C35.6067 44.5183 35.601 44.5373 35.6033 44.5196Z" fill="#21D2DD"/>
</svg>
