<svg width="80" height="80" viewBox="0 0 80 80" fill="none" xmlns="http://www.w3.org/2000/svg">
  <circle cx="40" cy="40" r="40" fill="white"/>
  <path d="M55.5139 59.8258V58.1928C55.5139 51.4286 50.0304 45.9451 43.2661 45.9451H36.734C29.9698 45.9451 24.4863 51.4286 24.4863 58.1928V59.8258" stroke="#008264" stroke-width="4"/>
  <path d="M47.7981 29.2064C47.7981 31.5373 46.831 34.288 45.2095 36.4472C43.575 38.6236 41.5491 39.8624 39.5917 39.8624C37.6343 39.8624 35.6084 38.6236 33.9739 36.4472C32.3523 34.288 31.3853 31.5373 31.3853 29.2064C31.3853 24.6741 35.0594 21 39.5917 21C44.124 21 47.7981 24.6741 47.7981 29.2064Z" stroke="#008264" stroke-width="4"/>
  <path d="M35.5 28.5L55.5 24" stroke="#008264" stroke-width="4"/>
  <path d="M33 51L34.8529 51.9882C38.3824 53.8706 42.6176 53.8706 46.1471 51.9882L48 51" stroke="#008264" stroke-width="5"/>
</svg>
