<svg width="312" height="97" viewBox="0 0 312 97" fill="none" xmlns="http://www.w3.org/2000/svg">
<path d="M105.589 89.9855L105.356 95.4806L105.589 89.9855ZM223.168 1.0815C172.387 -1.26351 127.546 2.30353 91.7878 9.14548C56.229 15.9492 29.0472 26.1049 14.0873 37.3725C6.71412 42.9259 1.2418 49.5599 0.568292 57.1069C-0.150972 65.1666 4.71503 71.8298 12.3899 76.8455C20.057 81.8561 31.5026 85.9643 46.6887 89.0913C61.9642 92.2367 81.4074 94.4644 105.356 95.4806L105.822 84.4905C82.2584 83.4906 63.4347 81.3087 48.9072 78.3173C34.2905 75.3076 24.3971 71.5518 18.4076 67.6375C12.4259 63.7283 11.3176 60.4056 11.5247 58.0847C11.7776 55.251 14.1324 51.1096 20.7052 46.159C33.6373 36.4187 58.8234 26.6523 93.855 19.9495C128.687 13.2848 172.659 9.76075 222.66 12.0698L223.168 1.0815ZM105.356 95.4806C170.659 98.2517 220.23 94.2453 254.148 86.8533C271.081 83.1629 284.353 78.5776 293.784 73.4135C302.919 68.4117 309.735 62.1512 311.212 54.4937C312.821 46.1536 307.712 39.1995 300.195 34.1387C292.586 29.0161 281.164 24.7717 266.374 21.5922C236.677 15.208 191.728 12.7728 131.876 17.6146L132.763 28.5787C192.029 23.7843 235.804 26.2715 264.062 32.3465C278.25 35.3965 288.114 39.2659 294.052 43.2635C300.081 47.3229 300.78 50.4954 300.411 52.4106C299.91 55.0084 296.963 59.132 288.501 63.7652C280.336 68.236 268.18 72.5368 251.805 76.1056C219.107 83.232 170.544 87.2369 105.822 84.4905L105.356 95.4806Z" fill="white"/>
</svg>
