<svg width="0" height="0" xmlns="http://www.w3.org/2000/svg">
    <symbol id="icon1" viewBox="0 0 576 512">
        <path d="M244 246c-3.2-2-6.3-2.9-10.1-2.9-6.6 0-12.6 3.2-19.3 3.7l1.7 4.9zm135.9 197.9c-19 0-64.1 9.5-79.9 19.8l6.9 45.1c35.7 6.1 70.1 3.6 106-9.8-4.8-10-23.5-55.1-33-55.1zM340.8 177c6.6 2.8 11.5 9.2 22.7 22.1 2-1.4 7.5-5.2 7.5-8.6 0-4.9-11.8-13.2-13.2-23 11.2-5.7 25.2-6 37.6-8.9 68.1-16.4 116.3-52.9 146.8-116.7C548.3 29.3 554 16.1 554.6 2l-2 2.6c-28.4 50-33 63.2-81.3 100-31.9 24.4-69.2 40.2-106.6 54.6l-6.3-.3v-21.8c-19.6 1.6-19.7-14.6-31.6-23-18.7 20.6-31.6 40.8-58.9 51.1-12.7 4.8-19.6 10-25.9 21.8 34.9-16.4 91.2-13.5 98.8-10zM555.5 0l-.6 1.1-.3.9.6-.6zm-59.2 382.1c-33.9-56.9-75.3-118.4-150-115.5l-.3-6c-1.1-13.5 32.8 3.2 35.1-31l-14.4 7.2c-19.8-45.7-8.6-54.3-65.5-54.3-14.7 0-26.7 1.7-41.4 4.6 2.9 18.6 2.2 36.7-10.9 50.3l19.5 5.5c-1.7 3.2-2.9 6.3-2.9 9.8 0 21 42.8 2.9 42.8 33.6 0 18.4-36.8 60.1-54.9 60.1-8 0-53.7-50-53.4-60.1l.3-4.6 52.3-11.5c13-2.6 12.3-22.7-2.9-22.7-3.7 0-43.1 9.2-49.4 10.6-2-5.2-7.5-14.1-13.8-14.1-3.2 0-6.3 3.2-9.5 4-9.2 2.6-31 2.9-21.5 20.1L15.9 298.5c-5.5 1.1-8.9 6.3-8.9 11.8 0 6 5.5 10.9 11.5 10.9 8 0 131.3-28.4 147.4-32.2 2.6 3.2 4.6 6.3 7.8 8.6 20.1 14.4 59.8 85.9 76.4 85.9 24.1 0 58-22.4 71.3-41.9 3.2-4.3 6.9-7.5 12.4-6.9.6 13.8-31.6 34.2-33 43.7-1.4 10.2-1 35.2-.3 41.1 26.7 8.1 52-3.6 77.9-2.9 4.3-21 10.6-41.9 9.8-63.5l-.3-9.5c-1.4-34.2-10.9-38.5-34.8-58.6-1.1-1.1-2.6-2.6-3.7-4 2.2-1.4 1.1-1 4.6-1.7 88.5 0 56.3 183.6 111.5 229.9 33.1-15 72.5-27.9 103.5-47.2-29-25.6-52.6-45.7-72.7-79.9zm-196.2 46.1v27.2l11.8-3.4-2.9-23.8zm-68.7-150.4l24.1 61.2 21-13.8-31.3-50.9zm84.4 154.9l2 12.4c9-1.5 58.4-6.6 58.4-14.1 0-1.4-.6-3.2-.9-4.6-26.8 0-36.9 3.8-59.5 6.3z"/>
    </symbol>
    <symbol id="icon2" viewBox="0 0 448 512">
        <path d="M319.5 114.7c-22.2-14-43.5-19.5-64.7-33.5-13-8.8-31.3-30-46.5-48.3-2.7 29.3-11.5 41.2-22 49.5-21.3 17-34.8 22.2-53.5 32.3C117 123 32 181.5 32 290.5 32 399.7 123.8 480 225.8 480 327.5 480 416 406 416 294c0-112.3-83-171-96.5-179.3zm2.5 325.6c-20.1 20.1-90.1 28.7-116.7 4.2-4.8-4.8.3-12 6.5-12 0 0 17 13.3 51.5 13.3 27 0 46-7.7 54.5-14 6.1-4.6 8.4 4.3 4.2 8.5zm-54.5-52.6c8.7-3.6 29-3.8 36.8 1.3 4.1 2.8 16.1 18.8 6.2 23.7-8.4 4.2-1.2-15.7-26.5-15.7-14.7 0-19.5 5.2-26.7 11-7 6-9.8 8-12.2 4.7-6-8.2 15.9-22.3 22.4-25zM360 405c-15.2-1-45.5-48.8-65-49.5-30.9-.9-104.1 80.7-161.3 42-38.8-26.6-14.6-104.8 51.8-105.2 49.5-.5 83.8 49 108.5 48.5 21.3-.3 61.8-41.8 81.8-41.8 48.7 0 23.3 109.3-15.8 106z"/>
    </symbol>
    <symbol id="icon3" viewBox="0 0 512 512">
        <path d="M301.1 212c4.4 4.4 4.4 11.9 0 16.3l-9.7 9.7c-4.4 4.7-11.9 4.7-16.6 0l-10.5-10.5c-4.4-4.7-4.4-11.9 0-16.6l9.7-9.7c4.4-4.4 11.9-4.4 16.6 0l10.5 10.8zm-30.2-19.7c3-3 3-7.8 0-10.5-2.8-3-7.5-3-10.5 0-2.8 2.8-2.8 7.5 0 10.5 3.1 2.8 7.8 2.8 10.5 0zm-26 5.3c-3 2.8-3 7.5 0 10.2 2.8 3 7.5 3 10.5 0 2.8-2.8 2.8-7.5 0-10.2-3-3-7.7-3-10.5 0zm72.5-13.3c-19.9-14.4-33.8-43.2-11.9-68.1 21.6-24.9 40.7-17.2 59.8.8 11.9 11.3 29.3 24.9 17.2 48.2-12.5 23.5-45.1 33.2-65.1 19.1zm47.7-44.5c-8.9-10-23.3 6.9-15.5 16.1 7.4 9 32.1 2.4 15.5-16.1zM504 256c0 137-111 248-248 248S8 393 8 256 119 8 256 8s248 111 248 248zm-66.2 42.6c2.5-16.1-20.2-16.6-25.2-25.7-13.6-24.1-27.7-36.8-54.5-30.4 11.6-8 23.5-6.1 23.5-6.1.3-6.4 0-13-9.4-24.9 3.9-12.5.3-22.4.3-22.4 15.5-8.6 26.8-24.4 29.1-43.2 3.6-31-18.8-59.2-49.8-62.8-22.1-2.5-43.7 7.7-54.3 25.7-23.2 40.1 1.4 70.9 22.4 81.4-14.4-1.4-34.3-11.9-40.1-34.3-6.6-25.7 2.8-49.8 8.9-61.4 0 0-4.4-5.8-8-8.9 0 0-13.8 0-24.6 5.3 11.9-15.2 25.2-14.4 25.2-14.4 0-6.4-.6-14.9-3.6-21.6-5.4-11-23.8-12.9-31.7 2.8.1-.2.3-.4.4-.5-5 11.9-1.1 55.9 16.9 87.2-2.5 1.4-9.1 6.1-13 10-21.6 9.7-56.2 60.3-56.2 60.3-28.2 10.8-77.2 50.9-70.6 79.7.3 3 1.4 5.5 3 7.5-2.8 2.2-5.5 5-8.3 8.3-11.9 13.8-5.3 35.2 17.7 24.4 15.8-7.2 29.6-20.2 36.3-30.4 0 0-5.5-5-16.3-4.4 27.7-6.6 34.3-9.4 46.2-9.1 8 3.9 8-34.3 8-34.3 0-14.7-2.2-31-11.1-41.5 12.5 12.2 29.1 32.7 28 60.6-.8 18.3-15.2 23-15.2 23-9.1 16.6-43.2 65.9-30.4 106 0 0-9.7-14.9-10.2-22.1-17.4 19.4-46.5 52.3-24.6 64.5 26.6 14.7 108.8-88.6 126.2-142.3 34.6-20.8 55.4-47.3 63.9-65 22 43.5 95.3 94.5 101.1 59z"/>
    </symbol>
    <symbol id="icon4" viewBox="0 0 576 512">
        <path d="M572.6 421.4c5.6-9.5 4.7-15.2-5.4-11.6-3-4.9-7-9.5-11.1-13.8 2.9-9.7-.7-14.2-10.8-9.2-4.6-3.2-10.3-6.5-15.9-9.2 0-15.1-11.6-11.6-17.6-5.7-10.4-1.5-18.7-.3-26.8 5.7.3-6.5.3-13 .3-19.7 12.6 0 40.2-11 45.9-36.2 1.4-6.8 1.6-13.8-.3-21.9-3-13.5-14.3-21.3-25.1-25.7-.8-5.9-7.6-14.3-14.9-15.9s-12.4 4.9-14.1 10.3c-8.5 0-19.2 2.8-21.1 8.4-5.4-.5-11.1-1.4-16.8-1.9 2.7-1.9 5.4-3.5 8.4-4.6 5.4-9.2 14.6-11.4 25.7-11.6V256c19.5-.5 43-5.9 53.8-18.1 12.7-13.8 14.6-37.3 12.4-55.1-2.4-17.3-9.7-37.6-24.6-48.1-8.4-5.9-21.6-.8-22.7 9.5-2.2 19.6 1.2 30-38.6 25.1-10.3-23.8-24.6-44.6-42.7-60C341 49.6 242.9 55.5 166.4 71.7c19.7 4.6 41.1 8.6 59.7 16.5-26.2 2.4-52.7 11.3-76.2 23.2-32.8 17-44 29.9-56.7 42.4 14.9-2.2 28.9-5.1 43.8-3.8-9.7 5.4-18.4 12.2-26.5 20-25.8.9-23.8-5.3-26.2-25.9-1.1-10.5-14.3-15.4-22.7-9.7-28.1 19.9-33.5 79.9-12.2 103.5 10.8 12.2 35.1 17.3 54.9 17.8-.3 1.1-.3 1.9-.3 2.7 10.8.5 19.5 2.7 24.6 11.6 3 1.1 5.7 2.7 8.1 4.6-5.4.5-11.1 1.4-16.5 1.9-3.3-6.6-13.7-8.1-21.1-8.1-1.6-5.7-6.5-12.2-14.1-10.3-6.8 1.9-14.1 10-14.9 15.9-22.5 9.5-30.1 26.8-25.1 47.6 5.3 24.8 33 36.2 45.9 36.2v19.7c-6.6-5-14.3-7.5-26.8-5.7-5.5-5.5-17.3-10.1-17.3 5.7-5.9 2.7-11.4 5.9-15.9 9.2-9.8-4.9-13.6-1.7-11.1 9.2-4.1 4.3-7.8 8.6-11.1 13.8-10.2-3.7-11 2.2-5.4 11.6-1.1 3.5-1.6 7-1.9 10.8-.5 31.6 44.6 64 73.5 65.1 17.3.5 34.6-8.4 43-23.5 113.2 4.9 226.7 4.1 340.2 0 8.1 15.1 25.4 24.3 42.7 23.5 29.2-1.1 74.3-33.5 73.5-65.1.2-3.7-.7-7.2-1.7-10.7zm-73.8-254c1.1-3 2.4-8.4 2.4-14.6 0-5.9 6.8-8.1 14.1-.8 11.1 11.6 14.9 40.5 13.8 51.1-4.1-13.6-13-29-30.3-35.7zm-4.6 6.7c19.5 6.2 28.6 27.6 29.7 48.9-1.1 2.7-3 5.4-4.9 7.6-5.7 5.9-15.4 10-26.2 12.2 4.3-21.3.3-47.3-12.7-63 4.9-.8 10.9-2.4 14.1-5.7zm-24.1 6.8c13.8 11.9 20 39.2 14.1 63.5-4.1.5-8.1.8-11.6.8-1.9-21.9-6.8-44-14.3-64.6 3.7.3 8.1.3 11.8.3zM47.5 203c-1.1-10.5 2.4-39.5 13.8-51.1 7-7.3 14.1-5.1 14.1.8 0 6.2 1.4 11.6 2.4 14.6-17.3 6.8-26.2 22.2-30.3 35.7zm9.7 27.6c-1.9-2.2-3.5-4.9-4.9-7.6 1.4-21.3 10.3-42.7 29.7-48.9 3.2 3.2 9.2 4.9 14.1 5.7-13 15.7-17 41.6-12.7 63-10.8-2.2-20.5-6-26.2-12.2zm47.9 14.6c-4.1 0-8.1-.3-12.7-.8-4.6-18.6-1.9-38.9 5.4-53v.3l12.2-5.1c4.9-1.9 9.7-3.8 14.9-4.9-10.7 19.7-17.4 41.3-19.8 63.5zm184-162.7c41.9 0 76.2 34 76.2 75.9 0 42.2-34.3 76.2-76.2 76.2s-76.2-34-76.2-76.2c0-41.8 34.3-75.9 76.2-75.9zm115.6 174.3c-.3 17.8-7 48.9-23 57-13.2 6.6-6.5-7.5-16.5-58.1 13.3.3 26.6.3 39.5 1.1zm-54-1.6c.8 4.9 3.8 40.3-1.6 41.9-11.6 3.5-40 4.3-51.1-1.1-4.1-3-4.6-35.9-4.3-41.1v.3c18.9-.3 38.1-.3 57 0zM278.3 309c-13 3.5-41.6 4.1-54.6-1.6-6.5-2.7-3.8-42.4-1.9-51.6 19.2-.5 38.4-.5 57.8-.8v.3c1.1 8.3 3.3 51.2-1.3 53.7zm-106.5-51.1c12.2-.8 24.6-1.4 36.8-1.6-2.4 15.4-3 43.5-4.9 52.2-1.1 6.8-4.3 6.8-9.7 4.3-21.9-9.8-27.6-35.2-22.2-54.9zm-35.4 31.3c7.8-1.1 15.7-1.9 23.5-2.7 1.6 6.2 3.8 11.9 7 17.6 10 17 44 35.7 45.1 7 6.2 14.9 40.8 12.2 54.9 10.8 15.7-1.4 23.8-1.4 26.8-14.3 12.4 4.3 30.8 4.1 44 3 11.3-.8 20.8-.5 24.6-8.9 1.1 5.1 1.9 11.6 4.6 16.8 10.8 21.3 37.3 1.4 46.8-31.6 8.6.8 17.6 1.9 26.5 2.7-.4 1.3-3.8 7.3 7.3 11.6-47.6 47-95.7 87.8-163.2 107-63.2-20.8-112.1-59.5-155.9-106.5 9.6-3.4 10.4-8.8 8-12.5zm-21.6 172.5c-3.8 17.8-21.9 29.7-39.7 28.9-19.2-.8-46.5-17-59.2-36.5-2.7-31.1 43.8-61.3 66.2-54.6 14.9 4.3 27.8 30.8 33.5 54 0 3-.3 5.7-.8 8.2zm-8.7-66c-.5-13.5-.5-27-.3-40.5h.3c2.7-1.6 5.7-3.8 7.8-6.5 6.5-1.6 13-5.1 15.1-9.2 3.3-7.1-7-7.5-5.4-12.4 2.7-1.1 5.7-2.2 7.8-3.5 29.2 29.2 58.6 56.5 97.3 77-36.8 11.3-72.4 27.6-105.9 47-1.2-18.6-7.7-35.9-16.7-51.9zm337.6 64.6c-103 3.5-206.2 4.1-309.4 0 0 .3 0 .3-.3.3v-.3h.3c35.1-21.6 72.2-39.2 112.4-50.8 11.6 5.1 23 9.5 34.9 13.2 2.2.8 2.2.8 4.3 0 14.3-4.1 28.4-9.2 42.2-15.4 41.5 11.7 78.8 31.7 115.6 53zm10.5-12.4c-35.9-19.5-73-35.9-111.9-47.6 38.1-20 71.9-47.3 103.5-76.7 2.2 1.4 4.6 2.4 7.6 3.2 0 .8.3 1.9.5 2.4-4.6 2.7-7.8 6.2-5.9 10.3 2.2 3.8 8.6 7.6 15.1 8.9 2.4 2.7 5.1 5.1 8.1 6.8 0 13.8-.3 27.6-.8 41.3l.3-.3c-9.3 15.9-15.5 37-16.5 51.7zm105.9 6.2c-12.7 19.5-40 35.7-59.2 36.5-19.3.9-40.5-13.2-40.5-37 5.7-23.2 18.9-49.7 33.5-54 22.7-6.9 69.2 23.4 66.2 54.5zM372.9 75.2c-3.8-72.1-100.8-79.7-126-23.5 44.6-24.3 90.3-15.7 126 23.5zM74.8 407.1c-15.7 1.6-49.5 25.4-49.5 43.2 0 11.6 15.7 19.5 32.2 14.9 12.2-3.2 31.1-17.6 35.9-27.3 6-11.6-3.7-32.7-18.6-30.8zm215.9-176.2c28.6 0 51.9-21.6 51.9-48.4 0-36.1-40.5-58.1-72.2-44.3 9.5 3 16.5 11.6 16.5 21.6 0 23.3-33.3 32-46.5 11.3-7.3 34.1 19.4 59.8 50.3 59.8zM68 474.1c.5 6.5 12.2 12.7 21.6 9.5 6.8-2.7 14.6-10.5 17.3-16.2 3-7-1.1-20-9.7-18.4-8.9 1.6-29.7 16.7-29.2 25.1zm433.2-67c-14.9-1.9-24.6 19.2-18.9 30.8 4.9 9.7 24.1 24.1 36.2 27.3 16.5 4.6 32.2-3.2 32.2-14.9 0-17.8-33.8-41.6-49.5-43.2zM478.8 449c-8.4-1.6-12.4 11.3-9.5 18.4 2.4 5.7 10.3 13.5 17.3 16.2 9.2 3.2 21.1-3 21.3-9.5.9-8.4-20.2-23.5-29.1-25.1z"/>
    </symbol>
    <symbol id="icon5" viewBox="0 0 480 512">
        <path d="M186.1 328.7c0 20.9-10.9 55.1-36.7 55.1s-36.7-34.2-36.7-55.1 10.9-55.1 36.7-55.1 36.7 34.2 36.7 55.1zM480 278.2c0 31.9-3.2 65.7-17.5 95-37.9 76.6-142.1 74.8-216.7 74.8-75.8 0-186.2 2.7-225.6-74.8-14.6-29-20.2-63.1-20.2-95 0-41.9 13.9-81.5 41.5-113.6-5.2-15.8-7.7-32.4-7.7-48.8 0-21.5 4.9-32.3 14.6-51.8 45.3 0 74.3 9 108.8 36 29-6.9 58.8-10 88.7-10 27 0 54.2 2.9 80.4 9.2 34-26.7 63-35.2 107.8-35.2 9.8 19.5 14.6 30.3 14.6 51.8 0 16.4-2.6 32.7-7.7 48.2 27.5 32.4 39 72.3 39 114.2zm-64.3 50.5c0-43.9-26.7-82.6-73.5-82.6-18.9 0-37 3.4-56 6-14.9 2.3-29.8 3.2-45.1 3.2-15.2 0-30.1-.9-45.1-3.2-18.7-2.6-37-6-56-6-46.8 0-73.5 38.7-73.5 82.6 0 87.8 80.4 101.3 150.4 101.3h48.2c70.3 0 150.6-13.4 150.6-101.3zm-82.6-55.1c-25.8 0-36.7 34.2-36.7 55.1s10.9 55.1 36.7 55.1 36.7-34.2 36.7-55.1-10.9-55.1-36.7-55.1z"/>
    </symbol>
    <symbol id="icon6" viewBox="0 0 512 512">
        <path d="M208 88.286c0-10 6.286-21.714 17.715-21.714 11.142 0 17.714 11.714 17.714 21.714 0 10.285-6.572 21.714-17.714 21.714C214.286 110 208 98.571 208 88.286zm304 160c0 36.001-11.429 102.286-36.286 129.714-22.858 24.858-87.428 61.143-120.857 70.572l-1.143.286v32.571c0 16.286-12.572 30.571-29.143 30.571-10 0-19.429-5.714-24.572-14.286-5.427 8.572-14.856 14.286-24.856 14.286-10 0-19.429-5.714-24.858-14.286-5.142 8.572-14.571 14.286-24.57 14.286-10.286 0-19.429-5.714-24.858-14.286-5.143 8.572-14.571 14.286-24.571 14.286-18.857 0-29.429-15.714-29.429-32.857-16.286 12.285-35.715 19.428-56.571 19.428-22 0-43.429-8.285-60.286-22.857 10.285-.286 20.571-2.286 30.285-5.714-20.857-5.714-39.428-18.857-52-36.286 21.37 4.645 46.209 1.673 67.143-11.143-22-22-56.571-58.857-68.572-87.428C1.143 321.714 0 303.714 0 289.429c0-49.714 20.286-160 86.286-160 10.571 0 18.857 4.858 23.143 14.857a158.792 158.792 0 0 1 12-15.428c2-2.572 5.714-5.429 7.143-8.286 7.999-12.571 11.714-21.142 21.714-34C182.571 45.428 232 17.143 285.143 17.143c6 0 12 .285 17.714 1.143C313.714 6.571 328.857 0 344.572 0c14.571 0 29.714 6 40 16.286.857.858 1.428 2.286 1.428 3.428 0 3.714-10.285 13.429-12.857 16.286 4.286 1.429 15.714 6.858 15.714 12 0 2.857-2.857 5.143-4.571 7.143 31.429 27.714 49.429 67.143 56.286 108 4.286-5.143 10.285-8.572 17.143-8.572 10.571 0 20.857 7.144 28.571 14.001C507.143 187.143 512 221.714 512 248.286zM188 89.428c0 18.286 12.571 37.143 32.286 37.143 19.714 0 32.285-18.857 32.285-37.143 0-18-12.571-36.857-32.285-36.857-19.715 0-32.286 18.858-32.286 36.857zM237.714 194c0-19.714 3.714-39.143 8.571-58.286-52.039 79.534-13.531 184.571 68.858 184.571 21.428 0 42.571-7.714 60-20 2-7.429 3.714-14.857 3.714-22.572 0-14.286-6.286-21.428-20.572-21.428-4.571 0-9.143.857-13.429 1.714-63.343 12.668-107.142 3.669-107.142-63.999zm-41.142 254.858c0-11.143-8.858-20.857-20.286-20.857-11.429 0-20 9.715-20 20.857v32.571c0 11.143 8.571 21.142 20 21.142 11.428 0 20.286-9.715 20.286-21.142v-32.571zm49.143 0c0-11.143-8.572-20.857-20-20.857-11.429 0-20.286 9.715-20.286 20.857v32.571c0 11.143 8.857 21.142 20.286 21.142 11.428 0 20-10 20-21.142v-32.571zm49.713 0c0-11.143-8.857-20.857-20.285-20.857-11.429 0-20.286 9.715-20.286 20.857v32.571c0 11.143 8.857 21.142 20.286 21.142 11.428 0 20.285-9.715 20.285-21.142v-32.571zm49.715 0c0-11.143-8.857-20.857-20.286-20.857-11.428 0-20.286 9.715-20.286 20.857v32.571c0 11.143 8.858 21.142 20.286 21.142 11.429 0 20.286-10 20.286-21.142v-32.571zM421.714 286c-30.857 59.142-90.285 102.572-158.571 102.572-96.571 0-160.571-84.572-160.571-176.572 0-16.857 2-33.429 6-49.714-20 33.715-29.714 72.572-29.714 111.429 0 60.286 24.857 121.715 71.429 160.857 5.143-9.714 14.857-16.286 26-16.286 10 0 19.428 5.714 24.571 14.286 5.429-8.571 14.571-14.286 24.858-14.286 10 0 19.428 5.714 24.571 14.286 5.429-8.571 14.857-14.286 24.858-14.286 10 0 19.428 5.714 24.857 14.286 5.143-8.571 14.571-14.286 24.572-14.286 10.857 0 20.857 6.572 25.714 16 43.427-36.286 68.569-92 71.426-148.286zm10.572-99.714c0-53.714-34.571-105.714-92.572-105.714-30.285 0-58.571 15.143-78.857 36.857C240.862 183.812 233.41 254 302.286 254c28.805 0 97.357-28.538 84.286 36.857 28.857-26 45.714-65.714 45.714-104.571z"/>
    </symbol>
</svg>