<svg width="0" height="0" xmlns="http://www.w3.org/2000/svg">
    <symbol id="reddit" viewBox="0 0 512 512">
        <path d="M440.3 203.5c-15 0-28.2 6.2-37.9 15.9-35.7-24.7-83.8-40.6-137.1-42.3L293 52.3l88.2 19.8c0 21.6 17.6 39.2 39.2 39.2 22 0 39.7-18.1 39.7-39.7s-17.6-39.7-39.7-39.7c-15.4 0-28.7 9.3-35.3 22l-97.4-21.6c-4.9-1.3-9.7 2.2-11 7.1L246.3 177c-52.9 2.2-100.5 18.1-136.3 42.8-9.7-10.1-23.4-16.3-38.4-16.3-55.6 0-73.8 74.6-22.9 100.1-1.8 7.9-2.6 16.3-2.6 24.7 0 83.8 94.4 151.7 210.3 151.7 116.4 0 210.8-67.9 210.8-151.7 0-8.4-.9-17.2-3.1-25.1 49.9-25.6 31.5-99.7-23.8-99.7zM129.4 308.9c0-22 17.6-39.7 39.7-39.7 21.6 0 39.2 17.6 39.2 39.7 0 21.6-17.6 39.2-39.2 39.2-22 .1-39.7-17.6-39.7-39.2zm214.3 93.5c-36.4 36.4-139.1 36.4-175.5 0-4-3.5-4-9.7 0-13.7 3.5-3.5 9.7-3.5 13.2 0 27.8 28.5 120 29 149 0 3.5-3.5 9.7-3.5 13.2 0 4.1 4 4.1 10.2.1 13.7zm-.8-54.2c-21.6 0-39.2-17.6-39.2-39.2 0-22 17.6-39.7 39.2-39.7 22 0 39.7 17.6 39.7 39.7-.1 21.5-17.7 39.2-39.7 39.2z"/>
    </symbol>
    <symbol id="connect" viewBox="0 0 576 512">
        <path d="M550.5 241l-50.089-86.786c1.071-2.142 1.875-4.553 1.875-7.232 0-8.036-6.696-14.733-14.732-15.001l-55.447-95.893c.536-1.607 1.071-3.214 1.071-4.821 0-8.571-6.964-15.268-15.268-15.268-4.821 0-8.839 2.143-11.786 5.625H299.518C296.839 18.143 292.821 16 288 16s-8.839 2.143-11.518 5.625H170.411C167.464 18.143 163.447 16 158.625 16c-8.303 0-15.268 6.696-15.268 15.268 0 1.607.536 3.482 1.072 4.821l-55.983 97.233c-5.356 2.41-9.107 7.5-9.107 13.661 0 .535.268 1.071.268 1.607l-53.304 92.143c-7.232 1.339-12.59 7.5-12.59 15 0 7.232 5.089 13.393 12.054 15l55.179 95.358c-.536 1.607-.804 2.946-.804 4.821 0 7.232 5.089 13.393 12.054 14.732l51.697 89.732c-.536 1.607-1.071 3.482-1.071 5.357 0 8.571 6.964 15.268 15.268 15.268 4.821 0 8.839-2.143 11.518-5.357h106.875C279.161 493.857 283.447 496 288 496s8.839-2.143 11.518-5.357h107.143c2.678 2.946 6.696 4.821 10.982 4.821 8.571 0 15.268-6.964 15.268-15.268 0-1.607-.267-2.946-.803-4.285l51.697-90.268c6.964-1.339 12.054-7.5 12.054-14.732 0-1.607-.268-3.214-.804-4.821l54.911-95.358c6.964-1.339 12.322-7.5 12.322-15-.002-7.232-5.092-13.393-11.788-14.732zM153.535 450.732l-43.66-75.803h43.66v75.803zm0-83.839h-43.66c-.268-1.071-.804-2.142-1.339-3.214l44.999-47.41v50.624zm0-62.411l-50.357 53.304c-1.339-.536-2.679-1.34-4.018-1.607L43.447 259.75c.535-1.339.535-2.679.535-4.018s0-2.41-.268-3.482l51.965-90c2.679-.268 5.357-1.072 7.768-2.679l50.089 51.965v92.946zm0-102.322l-45.803-47.41c1.339-2.143 2.143-4.821 2.143-7.767 0-.268-.268-.804-.268-1.072l43.928-15.804v72.053zm0-80.625l-43.66 15.804 43.66-75.536v59.732zm326.519 39.108l.804 1.339L445.5 329.125l-63.75-67.232 98.036-101.518.268.268zM291.75 355.107l11.518 11.786H280.5l11.25-11.786zm-.268-11.25l-83.303-85.446 79.553-84.375 83.036 87.589-79.286 82.232zm5.357 5.893l79.286-82.232 67.5 71.25-5.892 28.125H313.714l-16.875-17.143zM410.411 44.393c1.071.536 2.142 1.072 3.482 1.34l57.857 100.714v.536c0 2.946.803 5.624 2.143 7.767L376.393 256l-83.035-87.589L410.411 44.393zm-9.107-2.143L287.732 162.518l-57.054-60.268 166.339-60h4.287zm-123.483 0c2.678 2.678 6.16 4.285 10.179 4.285s7.5-1.607 10.179-4.285h75L224.786 95.821 173.893 42.25h103.928zm-116.249 5.625l1.071-2.142a33.834 33.834 0 0 0 2.679-.804l51.161 53.84-54.911 19.821V47.875zm0 79.286l60.803-21.964 59.732 63.214-79.553 84.107-40.982-42.053v-83.304zm0 92.678L198 257.607l-36.428 38.304v-76.072zm0 87.858l42.053-44.464 82.768 85.982-17.143 17.678H161.572v-59.196zm6.964 162.053c-1.607-1.607-3.482-2.678-5.893-3.482l-1.071-1.607v-89.732h99.91l-91.607 94.821h-1.339zm129.911 0c-2.679-2.41-6.428-4.285-10.447-4.285s-7.767 1.875-10.447 4.285h-96.429l91.607-94.821h38.304l91.607 94.821H298.447zm120-11.786l-4.286 7.5c-1.339.268-2.41.803-3.482 1.339l-89.196-91.875h114.376l-17.412 83.036zm12.856-22.232l12.858-60.803h21.964l-34.822 60.803zm34.822-68.839h-20.357l4.553-21.16 17.143 18.214c-.535.803-1.071 1.874-1.339 2.946zm66.161-107.411l-55.447 96.697c-1.339.535-2.679 1.071-4.018 1.874l-20.625-21.964 34.554-163.928 45.803 79.286c-.267 1.339-.803 2.678-.803 4.285 0 1.339.268 2.411.536 3.75z"/>
    </symbol>
    <symbol id="linux" viewBox="0 0 448 512">
        <path d="M220.8 123.3c1 .5 1.8 1.7 3 1.7 1.1 0 2.8-.4 2.9-1.5.2-1.4-1.9-2.3-3.2-2.9-1.7-.7-3.9-1-5.5-.1-.4.2-.8.7-.6 1.1.3 1.3 2.3 1.1 3.4 1.7zm-21.9 1.7c1.2 0 2-1.2 3-1.7 1.1-.6 3.1-.4 3.5-1.6.2-.4-.2-.9-.6-1.1-1.6-.9-3.8-.6-5.5.1-1.3.6-3.4 1.5-3.2 2.9.1 1 1.8 1.5 2.8 1.4zM420 403.8c-3.6-4-5.3-11.6-7.2-19.7-1.8-8.1-3.9-16.8-10.5-22.4-1.3-1.1-2.6-2.1-4-2.9-1.3-.8-2.7-1.5-4.1-2 9.2-27.3 5.6-54.5-3.7-79.1-11.4-30.1-31.3-56.4-46.5-74.4-17.1-21.5-33.7-41.9-33.4-72C311.1 85.4 315.7.1 234.8 0 132.4-.2 158 103.4 156.9 135.2c-1.7 23.4-6.4 41.8-22.5 64.7-18.9 22.5-45.5 58.8-58.1 96.7-6 17.9-8.8 36.1-6.2 53.3-6.5 5.8-11.4 14.7-16.6 20.2-4.2 4.3-10.3 5.9-17 8.3s-14 6-18.5 14.5c-2.1 3.9-2.8 8.1-2.8 12.4 0 3.9.6 7.9 1.2 11.8 1.2 8.1 2.5 15.7.8 20.8-5.2 14.4-5.9 24.4-2.2 31.7 3.8 7.3 11.4 10.5 20.1 12.3 17.3 3.6 40.8 2.7 59.3 12.5 19.8 10.4 39.9 14.1 55.9 10.4 11.6-2.6 21.1-9.6 25.9-20.2 12.5-.1 26.3-5.4 48.3-6.6 14.9-1.2 33.6 5.3 55.1 4.1.6 2.3 1.4 4.6 2.5 6.7v.1c8.3 16.7 23.8 24.3 40.3 23 16.6-1.3 34.1-11 48.3-27.9 13.6-16.4 36-23.2 50.9-32.2 7.4-4.5 13.4-10.1 13.9-18.3.4-8.2-4.4-17.3-15.5-29.7zM223.7 87.3c9.8-22.2 34.2-21.8 44-.4 6.5 14.2 3.6 30.9-4.3 40.4-1.6-.8-5.9-2.6-12.6-4.9 1.1-1.2 3.1-2.7 3.9-4.6 4.8-11.8-.2-27-9.1-27.3-7.3-.5-13.9 10.8-11.8 23-4.1-2-9.4-3.5-13-4.4-1-6.9-.3-14.6 2.9-21.8zM183 75.8c10.1 0 20.8 14.2 19.1 33.5-3.5 1-7.1 2.5-10.2 4.6 1.2-8.9-3.3-20.1-9.6-19.6-8.4.7-9.8 21.2-1.8 28.1 1 .8 1.9-.2-5.9 5.5-15.6-14.6-10.5-52.1 8.4-52.1zm-13.6 60.7c6.2-4.6 13.6-10 14.1-10.5 4.7-4.4 13.5-14.2 27.9-14.2 7.1 0 15.6 2.3 25.9 8.9 6.3 4.1 11.3 4.4 22.6 9.3 8.4 3.5 13.7 9.7 10.5 18.2-2.6 7.1-11 14.4-22.7 18.1-11.1 3.6-19.8 16-38.2 14.9-3.9-.2-7-1-9.6-2.1-8-3.5-12.2-10.4-20-15-8.6-4.8-13.2-10.4-14.7-15.3-1.4-4.9 0-9 4.2-12.3zm3.3 334c-2.7 35.1-43.9 34.4-75.3 18-29.9-15.8-68.6-6.5-76.5-21.9-2.4-4.7-2.4-12.7 2.6-26.4v-.2c2.4-7.6.6-16-.6-23.9-1.2-7.8-1.8-15 .9-20 3.5-6.7 8.5-9.1 14.8-11.3 10.3-3.7 11.8-3.4 19.6-9.9 5.5-5.7 9.5-12.9 14.3-18 5.1-5.5 10-8.1 17.7-6.9 8.1 1.2 15.1 6.8 21.9 16l19.6 35.6c9.5 19.9 43.1 48.4 41 68.9zm-1.4-25.9c-4.1-6.6-9.6-13.6-14.4-19.6 7.1 0 14.2-2.2 16.7-8.9 2.3-6.2 0-14.9-7.4-24.9-13.5-18.2-38.3-32.5-38.3-32.5-13.5-8.4-21.1-18.7-24.6-29.9s-3-23.3-.3-35.2c5.2-22.9 18.6-45.2 27.2-59.2 2.3-1.7.8 3.2-8.7 20.8-8.5 16.1-24.4 53.3-2.6 82.4.6-20.7 5.5-41.8 13.8-61.5 12-27.4 37.3-74.9 39.3-112.7 1.1.8 4.6 3.2 6.2 4.1 4.6 2.7 8.1 6.7 12.6 10.3 12.4 10 28.5 9.2 42.4 1.2 6.2-3.5 11.2-7.5 15.9-9 9.9-3.1 17.8-8.6 22.3-15 7.7 30.4 25.7 74.3 37.2 95.7 6.1 11.4 18.3 35.5 23.6 64.6 3.3-.1 7 .4 10.9 1.4 13.8-35.7-11.7-74.2-23.3-84.9-4.7-4.6-4.9-6.6-2.6-6.5 12.6 11.2 29.2 33.7 35.2 59 2.8 11.6 3.3 23.7.4 35.7 16.4 6.8 35.9 17.9 30.7 34.8-2.2-.1-3.2 0-4.2 0 3.2-10.1-3.9-17.6-22.8-26.1-19.6-8.6-36-8.6-38.3 12.5-12.1 4.2-18.3 14.7-21.4 27.3-2.8 11.2-3.6 24.7-4.4 39.9-.5 7.7-3.6 18-6.8 29-32.1 22.9-76.7 32.9-114.3 7.2zm257.4-11.5c-.9 16.8-41.2 19.9-63.2 46.5-13.2 15.7-29.4 24.4-43.6 25.5s-26.5-4.8-33.7-19.3c-4.7-11.1-2.4-23.1 1.1-36.3 3.7-14.2 9.2-28.8 9.9-40.6.8-15.2 1.7-28.5 4.2-38.7 2.6-10.3 6.6-17.2 13.7-21.1.3-.2.7-.3 1-.5.8 13.2 7.3 26.6 18.8 29.5 12.6 3.3 30.7-7.5 38.4-16.3 9-.3 15.7-.9 22.6 5.1 9.9 8.5 7.1 30.3 17.1 41.6 10.6 11.6 14 19.5 13.7 24.6zM173.3 148.7c2 1.9 4.7 4.5 8 7.1 6.6 5.2 15.8 10.6 27.3 10.6 11.6 0 22.5-5.9 31.8-10.8 4.9-2.6 10.9-7 14.8-10.4s5.9-6.3 3.1-6.6-2.6 2.6-6 5.1c-4.4 3.2-9.7 7.4-13.9 9.8-7.4 4.2-19.5 10.2-29.9 10.2s-18.7-4.8-24.9-9.7c-3.1-2.5-5.7-5-7.7-6.9-1.5-1.4-1.9-4.6-4.3-4.9-1.4-.1-1.8 3.7 1.7 6.5z"/>
    </symbol>
    <symbol id="bomb" viewBox="0 0 512 512">
        <path d="M440.5 88.5l-52 52L415 167c9.4 9.4 9.4 24.6 0 33.9l-17.4 17.4c11.8 26.1 18.4 55.1 18.4 85.6 0 114.9-93.1 208-208 208S0 418.9 0 304 93.1 96 208 96c30.5 0 59.5 6.6 85.6 18.4L311 97c9.4-9.4 24.6-9.4 33.9 0l26.5 26.5 52-52 17.1 17zM500 60h-24c-6.6 0-12 5.4-12 12s5.4 12 12 12h24c6.6 0 12-5.4 12-12s-5.4-12-12-12zM440 0c-6.6 0-12 5.4-12 12v24c0 6.6 5.4 12 12 12s12-5.4 12-12V12c0-6.6-5.4-12-12-12zm33.9 55l17-17c4.7-4.7 4.7-12.3 0-17-4.7-4.7-12.3-4.7-17 0l-17 17c-4.7 4.7-4.7 12.3 0 17 4.8 4.7 12.4 4.7 17 0zm-67.8 0c4.7 4.7 12.3 4.7 17 0 4.7-4.7 4.7-12.3 0-17l-17-17c-4.7-4.7-12.3-4.7-17 0-4.7 4.7-4.7 12.3 0 17l17 17zm67.8 34c-4.7-4.7-12.3-4.7-17 0-4.7 4.7-4.7 12.3 0 17l17 17c4.7 4.7 12.3 4.7 17 0 4.7-4.7 4.7-12.3 0-17l-17-17zM112 272c0-35.3 28.7-64 64-64 8.8 0 16-7.2 16-16s-7.2-16-16-16c-52.9 0-96 43.1-96 96 0 8.8 7.2 16 16 16s16-7.2 16-16z"/>
    </symbol>
    <symbol id="calc1" viewBox="0 0 50 50">
        <path d="M 12.718452,13.502761 8.3866075,13.837429 C 7.181234,13.930594 6.1076968,14.562333 5.4410939,15.570636 L 0.44528342,23.12651 c -0.50556738,0.76465 -0.58593863,1.721586 -0.21513713,2.559868 0.37089916,0.838283 1.13310771,1.422464 2.03887111,1.562796 l 3.9663163,0.61426 C 7.1631676,22.939595 9.3842658,18.027867 12.718452,13.502761 Z" id="path2" style="stroke-width:0.0976565" />
        <path d="m 22.136731,43.764832 0.614358,3.966316 c 0.140332,0.905763 0.724513,1.667971 1.562698,2.038773 0.348732,0.154298 0.717873,0.23047 1.085158,0.23047 0.51592,0 1.028225,-0.150294 1.474808,-0.445607 l 7.55607,-4.995713 c 1.008302,-0.666701 1.640042,-1.740335 1.73301,-2.945513 l 0.334668,-4.331844 c -4.525203,3.334282 -9.436833,5.555381 -14.36077,6.483118 z" id="path4" style="stroke-width:0.0976565" />
        <path d="m 20.64503,41.015706 c 0.137695,0 0.276172,-0.01133 0.414356,-0.03438 2.062894,-0.344922 4.05118,-0.925977 5.947863,-1.686526 L 10.70546,22.993014 c -0.7605488,1.896585 -1.3416045,3.884871 -1.6865271,5.947863 -0.1359377,0.813185 0.1368167,1.641605 0.7197281,2.224613 l 9.096112,9.096112 c 0.483985,0.483888 1.137208,0.754104 1.810257,0.754104 z" id="path6" style="stroke-width:0.0976565" />
        <path d="M 46.01334,22.168305 C 50.002509,14.455985 50.150263,6.3059693 49.941767,2.4836963 49.87038,1.1740257 48.826237,0.12988307 47.516468,0.05849621 46.894105,0.02451177 46.156505,0 45.325155,0 41.051125,0 34.288318,0.64736454 27.83186,3.9869218 22.700796,6.6409309 15.97256,12.48479 12.003021,20.164687 c 0.04687,0.03662 0.09268,0.07549 0.13584,0.118654 L 29.71702,37.861499 c 0.04316,0.04316 0.08193,0.08887 0.118556,0.135743 C 37.515472,34.027605 43.359331,27.29937 46.01334,22.168305 Z M 29.071902,10.570333 c 2.855571,-2.8555719 7.502163,-2.8558649 10.35793,0 1.383401,1.383304 2.145218,3.222663 2.145218,5.179014 0,1.956351 -0.761817,3.795711 -2.145218,5.179014 -1.427639,1.427639 -3.30362,2.141606 -5.178916,2.141802 -1.875883,9.8e-5 -3.750984,-0.713772 -5.179014,-2.141802 -1.383402,-1.383303 -2.145317,-3.222663 -2.145317,-5.179014 0,-1.956351 0.761915,-3.79571 2.145317,-5.179014 z" id="path8" style="stroke-width:0.0976565" />
        <path d="m 31.143488,18.856677 c 1.713383,1.713383 4.501474,1.71348 6.214855,0 0.829982,-0.83008 1.287112,-1.933598 1.287112,-3.107428 0,-1.17383 -0.45713,-2.277348 -1.287112,-3.10733 -0.856642,-0.85674 -1.982035,-1.285061 -3.107427,-1.285061 -1.125295,0 -2.250688,0.428321 -3.10733,1.285061 -0.829982,0.829982 -1.28721,1.9335 -1.28721,3.10733 0,1.17383 0.45713,2.277446 1.287112,3.107428 z" id="path10" style="stroke-width:0.0976565" />
        <path d="m 1.4944066,41.204963 c 0.3749031,0 0.7498062,-0.142969 1.0357441,-0.429102 l 4.7825289,-4.782529 c 0.5720715,-0.572071 0.5720715,-1.499514 0,-2.071587 -0.5719737,-0.572071 -1.4995146,-0.572071 -2.071586,0 l -4.78252889,4.78253 c -0.57207143,0.57207 -0.57207143,1.499515 0,2.071586 0.2860357,0.286035 0.66093879,0.429102 1.03584189,0.429102 z" id="path12" style="stroke-width:0.0976565" />
        <path d="m 11.695598,38.304665 c -0.571974,-0.572071 -1.499514,-0.572071 -2.0715858,0 l -9.19484208,9.194842 c -0.57207143,0.572071 -0.57207143,1.499515 0,2.071586 0.2860357,0.286035 0.66093878,0.429004 1.03584188,0.429004 0.374903,0 0.7498061,-0.142969 1.0357442,-0.429102 l 9.1947448,-9.194744 c 0.572169,-0.572072 0.572169,-1.499515 9.7e-5,-2.071586 z" id="path14" style="stroke-width:0.0976565" />
        <path d="m 14.006833,42.687583 -4.7824309,4.782529 c -0.5720715,0.572071 -0.5720715,1.499514 0,2.071586 0.2860357,0.286036 0.6609387,0.429102 1.0357439,0.429102 0.374806,0 0.749806,-0.142968 1.035745,-0.429102 l 4.782529,-4.782529 c 0.572071,-0.572071 0.572071,-1.499514 0,-2.071586 -0.571975,-0.572071 -1.499515,-0.572071 -2.071587,0 z" id="path16" style="stroke-width:0.0976565" />
    </symbol>
    <symbol id="calc2" viewBox="0 0 38 50">
        <path d="m 33.70988,45.384339 2.299313,0.03256 c 1.287415,0.02254 1.525361,0.25047 1.542894,1.560427 0,0.641202 0.02004,1.28491 -0.01503,1.923608 -0.03507,0.638698 -0.390733,1.014402 -1.054478,1.079524 -0.278022,0.02755 -0.558548,0.01503 -0.839074,0.01503 H 2.3660939 A 7.195997,7.195997 0 0 1 1.4067946,49.965431 0.96931807,0.96931807 0 0 1 0.50009398,49.008637 c -0.0375705,-0.839074 -0.0425799,-1.683157 0,-2.522231 0.0300564,-0.696306 0.35566709,-1.001879 1.05698252,-1.049469 0.6386979,-0.03757 1.2824053,0 1.9211032,-0.02254 0.2354416,0 0.4683785,-0.03507 0.6537262,-0.05009 0.3105825,-0.340639 0.1678147,-0.663745 0.1352536,-0.966813 A 19.306211,19.306211 0 0 1 4.8282119,37.25409 10.973081,10.973081 0 0 1 8.6128103,31.408125 c 0.9417664,-0.75141 1.9361317,-1.417659 2.9154687,-2.113965 0.751409,-0.533501 1.53037,-1.026926 2.254228,-1.585474 a 6.9655648,6.9655648 0 0 0 1.207263,-1.159675 c 0.798998,-1.001879 0.809017,-2.086414 0.02755,-3.085789 A 6.6174118,6.6174118 0 0 0 13.81757,22.296033 C 13.021079,21.692401 12.174491,21.153891 11.357959,20.575306 10.473801,19.951636 9.5821284,19.337985 8.7305311,18.67424 6.1181313,16.637921 4.8307166,13.867725 4.3648428,10.659207 a 19.606775,19.606775 0 0 1 -0.075141,-5.3876052 4.1853501,4.1853501 0 0 0 0,-0.5410148 3.5366334,3.5366334 0 0 0 -0.6687543,-0.1477771 c -0.6412027,-0.022542 -1.2824053,0 -1.923608,-0.017533 C 0.85075168,4.5377253 0.50259868,4.2271428 0.4725423,3.4256394 0.4424859,2.6241361 0.4424859,1.822633 0.4725423,1.0236344 0.50259868,0.4074787 0.85075168,0.07936328 1.4568885,0.02175523 A 7.8522278,7.8522278 0 0 1 2.298467,0.00422234 h 33.415172 c 0.280526,0 0.561052,0 0.839073,0.01753289 0.553539,0.06011274 0.934253,0.37319998 0.956795,0.90169123 0.04258,0.91671944 0.04258,1.84095274 0,2.75516744 -0.02505,0.5209772 -0.41578,0.8440832 -0.971823,0.879149 -0.556043,0.035066 -1.122104,0 -1.683157,0.020038 -0.350657,0 -0.69881,0.04258 -1.024421,0.065122 -0.220414,0.4608644 -0.07765,0.854102 -0.04258,1.2523489 a 18.922992,18.922992 0 0 1 -0.603632,6.9004422 10.835323,10.835323 0 0 1 -3.641831,5.668131 c -0.931747,0.75141 -1.923608,1.435192 -2.90044,2.134003 -0.781466,0.558548 -1.600501,1.069506 -2.366938,1.645586 a 6.9705741,6.9705741 0 0 0 -1.217283,1.149657 c -0.87414,1.07201 -0.864121,2.221668 0.04508,3.273641 a 9.0169123,9.0169123 0 0 0 1.422669,1.28491 c 0.768941,0.573575 1.587977,1.079524 2.374452,1.633063 0.786475,0.553538 1.57295,1.104571 2.334378,1.690671 2.254228,1.740765 3.581718,4.06262 4.177836,6.817787 a 19.085798,19.085798 0 0 1 0.353163,6.209146 c -0.03006,0.298059 -0.02505,0.613651 -0.0551,1.08203 z M 6.3059836,45.271627 c 0.8941771,0.323106 1.5028187,0.112712 1.9711972,-0.583594 a 3.8998146,3.8998146 0 0 1 0.3080779,-0.365686 q 4.4608673,-5.202258 8.9217323,-10.40201 a 7.5717016,7.5717016 0 0 1 0.728867,-0.796494 1.069506,1.069506 0 0 1 1.522857,0 8.2204184,8.2204184 0 0 1 0.809017,0.884158 c 3.078274,3.586727 6.166565,7.168445 9.222296,10.770201 0.551034,0.651221 1.129619,0.806513 1.906075,0.500939 0.04007,-0.170319 0.08766,-0.320601 0.112712,-0.473387 a 16.989366,16.989366 0 0 0 -0.07514,-5.510336 c -0.445836,-2.675017 -1.645587,-4.919226 -3.879777,-6.539766 -0.778961,-0.563557 -1.570446,-1.109581 -2.35692,-1.660615 -0.723857,-0.500939 -1.482781,-0.961804 -2.166563,-1.502818 a 11.058241,11.058241 0 0 1 -1.730747,-1.655606 4.5410172,4.5410172 0 0 1 0,-5.868507 12.002512,12.002512 0 0 1 1.918599,-1.800878 c 0.786475,-0.616156 1.65811,-1.122105 2.47464,-1.703195 0.816532,-0.58109 1.693176,-1.212273 2.504698,-1.868504 A 8.6487217,8.6487217 0 0 0 31.297856,12.437542 15.827186,15.827186 0 0 0 31.981639,7.9290862 12.107709,12.107709 0 0 0 31.676066,4.6579508 C 31.355464,4.6278944 31.044882,4.5778005 30.734299,4.5727911 21.729912,4.4300233 7.3579567,4.5101736 6.3185071,4.7155588 6.2759272,4.8858783 6.2183192,5.0737306 6.1882628,5.2665924 a 17.031945,17.031945 0 0 0 0.2504698,6.2066416 9.2824103,9.2824103 0 0 0 3.4940535,5.577962 c 0.7964939,0.606137 1.6230439,1.172198 2.4445849,1.753288 0.721353,0.50094 1.480277,0.961804 2.169069,1.502819 a 11.646845,11.646845 0 0 1 1.753287,1.628054 c 1.562931,1.866 1.545398,4.303071 -0.03507,6.159052 a 10.970577,10.970577 0 0 1 -1.673137,1.54039 c -0.751409,0.586099 -1.587978,1.082029 -2.369444,1.643081 -0.941766,0.676269 -1.893552,1.347528 -2.7927382,2.0789 a 8.5936184,8.5936184 0 0 0 -2.6925502,4.047591 14.04885,14.04885 0 0 0 -0.6412026,3.173453 14.835325,14.835325 0 0 0 0.2179087,4.693803 z" id="path142" style="stroke-width:0.25047" />
        <path d="m 24.718016,16.26973 c -0.846588,0.593613 -1.557922,1.041954 -2.214153,1.560427 a 17.051983,17.051983 0 0 0 -1.971197,1.753288 23.088305,23.088305 0 0 0 -1.527865,2.068881 c -0.29305,-0.230432 -0.388229,-0.588604 -0.583595,-0.866626 -0.232937,-0.32561 -0.45335,-0.66124 -0.706325,-0.969318 a 9.557927,9.557927 0 0 0 -0.751409,-0.786475 c -0.25047,-0.25047 -0.533501,-0.485911 -0.811522,-0.713839 -0.278022,-0.227927 -0.568567,-0.445836 -0.861616,-0.656231 -0.29305,-0.210394 -0.658736,-0.45335 -0.98685,-0.683782 -0.28804,-0.202881 -0.571071,-0.413275 -0.859111,-0.62367 0.08266,-0.09518 0.127739,-0.192862 0.177833,-0.197871 1.745773,-0.125235 10.068884,-0.05761 11.09581,0.115216 z" id="path144" style="stroke-width:0.25047" />
    </symbol>
    <symbol id="calc3" viewBox="0 0 42 48">
        <path d="M9-9H6.834A19.41,19.41,0,0,1,0-7.5,19.41,19.41,0,0,1-6.834-9H-9A12,12,0,0,0-21,3a3,3,0,0,0,3,3H18a3,3,0,0,0,3-3A12,12,0,0,0,9-9ZM-16.5-21A1.5,1.5,0,0,0-15-22.5V-24A15.018,15.018,0,0,1,0-39,15.018,15.018,0,0,1,15-24v1.5A7.515,7.515,0,0,1,7.5-15h-3a3,3,0,0,0-3-3h-3a3,3,0,0,0-3,3,3,3,0,0,0,3,3h9A10.522,10.522,0,0,0,18-22.5V-24A18.02,18.02,0,0,0,0-42,18.02,18.02,0,0,0-18-24v1.5A1.5,1.5,0,0,0-16.5-21Zm15,0h3a6.634,6.634,0,0,1,5.195,3H7.5A4.508,4.508,0,0,0,12-22.5V-24A12,12,0,0,0,0-36,12,12,0,0,0-12-24a11.927,11.927,0,0,0,4.533,9.325c-.006-.11-.033-.214-.033-.325A6.011,6.011,0,0,1-1.5-21Z" transform="translate(21 42)"/>
    </symbol>
</svg>