<svg width="0" height="0" xmlns="http://www.w3.org/2000/svg">
    <symbol id="status1" viewBox="0 0 30 21">
        <path d="M2.25-9a12.756,12.756,0,0,1,2.6-7.711.744.744,0,0,0-.1-1.025l-.572-.488a.757.757,0,0,0-1.085.1A15.007,15.007,0,0,0,0-9,15.015,15.015,0,0,0,3.092.123a.757.757,0,0,0,1.085.1l.571-.488a.744.744,0,0,0,.1-1.025A12.764,12.764,0,0,1,2.25-9ZM15-19.5A10.5,10.5,0,0,0,4.5-9,10.5,10.5,0,0,0,15,1.5,10.5,10.5,0,0,0,25.5-9,10.5,10.5,0,0,0,15-19.5ZM15-3a1.5,1.5,0,0,1-1.5-1.5A1.5,1.5,0,0,1,15-6a1.5,1.5,0,0,1,1.5,1.5A1.5,1.5,0,0,1,15-3Zm1.193-5.175a.75.75,0,0,1-.746.675h-.892a.75.75,0,0,1-.746-.675l-.6-6A.75.75,0,0,1,13.954-15h2.093a.75.75,0,0,1,.746.825ZM26.847-18.2a.757.757,0,0,0-1.086-.094l-.57.493a.744.744,0,0,0-.088,1.025A12.744,12.744,0,0,1,27.75-9,12.748,12.748,0,0,1,25.1-1.221.744.744,0,0,0,25.192-.2l.57.492A.757.757,0,0,0,26.847.2,15,15,0,0,0,30-9,15,15,0,0,0,26.847-18.2Z" transform="translate(0 19.5)"/>
    </symbol>
    <symbol id="status2" viewBox="0 0 24 24">
        <path d="M12-1.5a9.748,9.748,0,0,0,9.75-9.75A9.748,9.748,0,0,0,12-21a9.748,9.748,0,0,0-9.75,9.75A9.748,9.748,0,0,0,12-1.5ZM10.959-16.434v-.788A.776.776,0,0,1,11.738-18h.52a.776.776,0,0,1,.778.778v.8a3.7,3.7,0,0,1,2.016.722.526.526,0,0,1,.056.8l-.764.727a.528.528,0,0,1-.656.047,1.543,1.543,0,0,0-.834-.239H11.03a.815.815,0,0,0-.764.858.847.847,0,0,0,.567.825l2.92.877A2.937,2.937,0,0,1,15.8-8.991a2.89,2.89,0,0,1-2.77,2.925v.788a.776.776,0,0,1-.778.778h-.52a.776.776,0,0,1-.778-.778v-.8A3.7,3.7,0,0,1,8.939-6.8a.526.526,0,0,1-.056-.8l.764-.727a.528.528,0,0,1,.656-.047,1.543,1.543,0,0,0,.834.239h1.823a.815.815,0,0,0,.764-.858.847.847,0,0,0-.567-.825l-2.92-.877a2.937,2.937,0,0,1-2.048-2.817A2.893,2.893,0,0,1,10.959-16.434ZM22.5-4.5H20.977a11.36,11.36,0,0,1-3.422,3h2.991a.418.418,0,0,1,.45.375v.75a.418.418,0,0,1-.45.375H3.45A.418.418,0,0,1,3-.375v-.75A.418.418,0,0,1,3.45-1.5H6.441a11.417,11.417,0,0,1-3.422-3H1.5A1.5,1.5,0,0,0,0-3V1.5A1.5,1.5,0,0,0,1.5,3h21A1.5,1.5,0,0,0,24,1.5V-3A1.5,1.5,0,0,0,22.5-4.5Z" transform="translate(0 21)"/>
    </symbol>
    <symbol id="status3" viewBox="0 0 30 24">
        <path d="M24-12.047a4.165,4.165,0,0,0,1.486,0l.384.67a.579.579,0,0,0,.708.253,5.242,5.242,0,0,0,1.5-.872.576.576,0,0,0,.131-.736l-.384-.67a4.047,4.047,0,0,0,.745-1.284h.773a.583.583,0,0,0,.572-.488,5.281,5.281,0,0,0,0-1.739.579.579,0,0,0-.572-.483H28.58a4.047,4.047,0,0,0-.745-1.284l.384-.67a.582.582,0,0,0-.131-.736,5.178,5.178,0,0,0-1.5-.872.579.579,0,0,0-.708.253l-.384.67a4.167,4.167,0,0,0-1.486,0l-.384-.67a.579.579,0,0,0-.708-.253,5.24,5.24,0,0,0-1.5.872.577.577,0,0,0-.131.736l.384.67a4.046,4.046,0,0,0-.745,1.284h-.773a.583.583,0,0,0-.572.487,5.282,5.282,0,0,0,0,1.739.579.579,0,0,0,.572.483h.773a4.047,4.047,0,0,0,.745,1.284l-.384.67a.582.582,0,0,0,.131.736,5.18,5.18,0,0,0,1.5.872.579.579,0,0,0,.708-.253ZM23.512-14.8a1.751,1.751,0,0,1,2.475-2.475A1.751,1.751,0,0,1,23.512-14.8Zm-5.4,7.214a8.145,8.145,0,0,0,0-2.977l1.58-.787a1.12,1.12,0,0,0,.469-1.364A10.991,10.991,0,0,0,18.183-15.8a1.122,1.122,0,0,0-1.42-.248l-1.364.788a8.14,8.14,0,0,0-2.573-1.486v-1.575a1.126,1.126,0,0,0-.937-1.106,10.691,10.691,0,0,0-3.563,0,1.116,1.116,0,0,0-.919,1.1v1.58a8.053,8.053,0,0,0-2.573,1.486l-1.364-.787a1.121,1.121,0,0,0-1.42.248A11.006,11.006,0,0,0,.07-12.713a1.118,1.118,0,0,0,.492,1.359l1.561.792a8.122,8.122,0,0,0,0,2.972L.563-6.8A1.131,1.131,0,0,0,.07-5.437a11.05,11.05,0,0,0,1.978,3.08,1.122,1.122,0,0,0,1.42.248l1.364-.783A8.141,8.141,0,0,0,7.406-1.406V.169a1.126,1.126,0,0,0,.938,1.106,10.542,10.542,0,0,0,3.558,0A1.122,1.122,0,0,0,12.825.169V-1.406A8.051,8.051,0,0,0,15.4-2.892l1.364.787a1.121,1.121,0,0,0,1.42-.248,11.066,11.066,0,0,0,2-3.084A1.127,1.127,0,0,0,19.688-6.8ZM12.6-6.6c-3.609,2.775-7.73-1.345-4.955-4.955C11.25-14.33,15.37-10.209,12.6-6.6ZM24,1.964a4.167,4.167,0,0,0,1.486,0l.384.67a.579.579,0,0,0,.708.253,5.241,5.241,0,0,0,1.5-.872.577.577,0,0,0,.131-.736l-.384-.67A4.047,4.047,0,0,0,28.58-.675h.773a.583.583,0,0,0,.572-.487,5.282,5.282,0,0,0,0-1.739.579.579,0,0,0-.572-.483H28.58a4.047,4.047,0,0,0-.745-1.284l.384-.67a.582.582,0,0,0-.131-.736,5.18,5.18,0,0,0-1.5-.872.579.579,0,0,0-.708.253l-.384.67a4.165,4.165,0,0,0-1.486,0l-.384-.67a.579.579,0,0,0-.708-.253,5.242,5.242,0,0,0-1.5.872.576.576,0,0,0-.131.736l.384.67a4.047,4.047,0,0,0-.745,1.284h-.773a.583.583,0,0,0-.572.488,5.281,5.281,0,0,0,0,1.739.579.579,0,0,0,.572.483h.773A4.046,4.046,0,0,0,21.661.609l-.384.67a.582.582,0,0,0,.131.736,5.179,5.179,0,0,0,1.5.872.579.579,0,0,0,.708-.253ZM23.512-.8a1.751,1.751,0,0,1,2.475-2.475A1.751,1.751,0,0,1,23.512-.8Z" transform="translate(0 20.995)"/>
    </symbol>
    <symbol id="status4" viewBox="0 0 30 24">
        <path d="M29.25-4.5H28.5V-9.567a2.25,2.25,0,0,0-.661-1.589l-4.683-4.683a2.25,2.25,0,0,0-1.589-.661H19.5v-2.25A2.251,2.251,0,0,0,17.25-21h-12A2.251,2.251,0,0,0,3-18.75v2.25H.375A.376.376,0,0,0,0-16.125v.75A.376.376,0,0,0,.375-15h12.75a.376.376,0,0,1,.375.375v.75a.376.376,0,0,1-.375.375H1.875a.376.376,0,0,0-.375.375v.75A.376.376,0,0,0,1.875-12h9.75a.376.376,0,0,1,.375.375v.75a.376.376,0,0,1-.375.375H.375A.376.376,0,0,0,0-10.125v.75A.376.376,0,0,0,.375-9h9.75a.376.376,0,0,1,.375.375v.75a.376.376,0,0,1-.375.375H3v6A4.5,4.5,0,0,0,7.5,3,4.5,4.5,0,0,0,12-1.5h6A4.5,4.5,0,0,0,22.5,3,4.5,4.5,0,0,0,27-1.5h2.25A.752.752,0,0,0,30-2.25v-1.5A.752.752,0,0,0,29.25-4.5ZM7.5.75A2.251,2.251,0,0,1,5.25-1.5,2.251,2.251,0,0,1,7.5-3.75,2.251,2.251,0,0,1,9.75-1.5,2.251,2.251,0,0,1,7.5.75Zm15,0A2.251,2.251,0,0,1,20.25-1.5,2.251,2.251,0,0,1,22.5-3.75,2.251,2.251,0,0,1,24.75-1.5,2.251,2.251,0,0,1,22.5.75ZM26.25-9H19.5v-5.25h2.067L26.25-9.567Z" transform="translate(0 21)"/>
    </symbol>
    <symbol id="status5" viewBox="0 0 30 18">
        <path d="M20.377-18H16.35a1.5,1.5,0,0,0-1.012.394L10.73-13.387s-.009.014-.014.019a1.865,1.865,0,0,0-.1,2.625,1.955,1.955,0,0,0,2.63.127s.014,0,.019-.009l3.745-3.431a.753.753,0,0,1,1.059.047.749.749,0,0,1-.047,1.059L16.8-11.831l6.825,5.541A3.378,3.378,0,0,1,24-5.93V-15l-2.559-2.559A1.489,1.489,0,0,0,20.377-18ZM25.5-14.991V-4.5A1.5,1.5,0,0,0,27-3h3v-12ZM27.75-4.5a.752.752,0,0,1-.75-.75A.752.752,0,0,1,27.75-6a.752.752,0,0,1,.75.75A.752.752,0,0,1,27.75-4.5ZM0-3H3A1.5,1.5,0,0,0,4.5-4.5V-14.991H0ZM2.25-6a.752.752,0,0,1,.75.75.752.752,0,0,1-.75.75.752.752,0,0,1-.75-.75A.749.749,0,0,1,2.25-6Zm20.433.872-7-5.681L14.278-9.516a3.38,3.38,0,0,1-4.767-.206,3.377,3.377,0,0,1,.206-4.767L13.552-18H9.623a1.5,1.5,0,0,0-1.059.441L6-15V-4.5h.858L11.1-.666A3,3,0,0,0,15.319-1.1l.009-.009.839.727a1.742,1.742,0,0,0,2.452-.253l1.472-1.809.253.206a1.5,1.5,0,0,0,2.109-.22l.445-.548A1.5,1.5,0,0,0,22.683-5.123Z" transform="translate(0 18)"/>
    </symbol>
</svg>