<svg width="0" height="0" xmlns="http://www.w3.org/2000/svg"> 
    <symbol id="check" viewBox="0 0 24 18">
        <path d="M8.151-.4a1.2,1.2,0,0,0,1.7,0l13.8-13.8a1.2,1.2,0,0,0,0-1.7l-1.7-1.7a1.2,1.2,0,0,0-1.7,0L9-6.343,3.746-11.6a1.2,1.2,0,0,0-1.7,0L.351-9.9a1.2,1.2,0,0,0,0,1.7Z" transform="translate(0 17.949)"/>
    </symbol>
    <symbol id="minus" viewBox="0 0 21 5">
        <path d="M19.5-11.25H1.5A1.5,1.5,0,0,0,0-9.75v1.5a1.5,1.5,0,0,0,1.5,1.5h18A1.5,1.5,0,0,0,21-8.25v-1.5A1.5,1.5,0,0,0,19.5-11.25Z" transform="translate(0 11.25)"/>
    </symbol>
    <symbol id="layout" viewBox="0 0 24 24">
        <path d="M14.25-14.25h3v3a.75.75,0,0,0,.75.75h1.5a.75.75,0,0,0,.75-.75v-3h3A.75.75,0,0,0,24-15v-1.5a.75.75,0,0,0-.75-.75h-3v-3A.75.75,0,0,0,19.5-21H18a.75.75,0,0,0-.75.75v3h-3a.75.75,0,0,0-.75.75V-15A.75.75,0,0,0,14.25-14.25ZM23.418-3.933,20.674-5.176,13.118-1.752A2.69,2.69,0,0,1,12-1.509a2.692,2.692,0,0,1-1.118-.242L3.326-5.176.582-3.933a1.046,1.046,0,0,0,0,1.875L11.5,2.892a1.2,1.2,0,0,0,1,0l10.92-4.95A1.046,1.046,0,0,0,23.418-3.933ZM.582-8.067,11.5-3.118a1.2,1.2,0,0,0,1,0L21-6.971v-.871a8.148,8.148,0,0,1-2.25.342,8.244,8.244,0,0,1-8.143-6.986L.582-9.942A1.046,1.046,0,0,0,.582-8.067Z" transform="translate(0 21)"/>
    </symbol>
    <symbol id="edit" viewBox="0 0 24 24">
        <path d="M23.339-14.339a2.246,2.246,0,0,0,0-3.183l-2.817-2.817a2.255,2.255,0,0,0-3.183,0l-2.161,2.161a.563.563,0,0,0,0,.8l5.2,5.2a.563.563,0,0,0,.8,0ZM13.322-16.322,1.012-4.012l-.994,5.7a1.126,1.126,0,0,0,1.3,1.3l5.7-1L19.327-10.322a.563.563,0,0,0,0-.8l-5.2-5.2A.569.569,0,0,0,13.322-16.322Zm-9.2,15.2h2.25v1.7l-3.023.53L1.894-.352l.53-3.023h1.7Z" transform="translate(-0.001 20.996)"/>
    </symbol>
    <symbol id="delete" viewBox="0 0 21 24">
        <path d="M32.025-19.5H26.4l-.441-.877A1.231,1.231,0,0,0,24.952-21H19.589a1.215,1.215,0,0,0-1,.623l-.441.877H12.525a.75.75,0,0,0-.75.75v1.5a.75.75,0,0,0,.75.75h19.5a.75.75,0,0,0,.75-.75v-1.5A.75.75,0,0,0,32.025-19.5ZM14.269.891A2.28,2.28,0,0,0,16.514,3H28.036A2.28,2.28,0,0,0,30.281.891L31.275-15h-18Z" transform="translate(-11.775 21)"/>
    </symbol>
    <symbol id="str" viewBox="0 0 20 21">
        <path d="M19.364-10.57a1.118,1.118,0,0,0-1.608.019L12.375-4.9V-18.375A1.122,1.122,0,0,0,11.25-19.5H9.75a1.122,1.122,0,0,0-1.125,1.125V-4.9L3.244-10.552a1.126,1.126,0,0,0-1.608-.019L.6-9.53a1.12,1.12,0,0,0,0,1.589L9.708,1.172a1.12,1.12,0,0,0,1.589,0L20.4-7.941a1.12,1.12,0,0,0,0-1.589Z" transform="translate(-0.265 19.5)"/>
    </symbol>
    <symbol id="method1" viewBox="0 0 75 60">
        <path d="M35.625-11.25H33.75V-23.918A5.625,5.625,0,0,0,32.1-27.891L20.391-39.6a5.625,5.625,0,0,0-3.973-1.652H11.25v-5.625A5.626,5.626,0,0,0,5.625-52.5h-37.5A5.626,5.626,0,0,0-37.5-46.875v37.5A5.626,5.626,0,0,0-31.875-3.75H-30A11.253,11.253,0,0,0-18.75,7.5,11.253,11.253,0,0,0-7.5-3.75h15A11.253,11.253,0,0,0,18.75,7.5,11.253,11.253,0,0,0,30-3.75h5.625A1.881,1.881,0,0,0,37.5-5.625v-3.75A1.881,1.881,0,0,0,35.625-11.25ZM-18.75,1.875A5.626,5.626,0,0,1-24.375-3.75,5.626,5.626,0,0,1-18.75-9.375,5.626,5.626,0,0,1-13.125-3.75,5.626,5.626,0,0,1-18.75,1.875Zm37.5,0A5.626,5.626,0,0,1,13.125-3.75,5.626,5.626,0,0,1,18.75-9.375,5.626,5.626,0,0,1,24.375-3.75,5.626,5.626,0,0,1,18.75,1.875ZM28.125-22.5H11.25V-35.625h5.168L28.125-23.918Z" transform="translate(37.5 52.5)"/>
    </symbol>
    <symbol id="method2" viewBox="0 0 75 60">
        <path d="M-22.5-41.25a5.626,5.626,0,0,0,5.625-5.625A5.626,5.626,0,0,0-22.5-52.5a5.626,5.626,0,0,0-5.625,5.625A5.626,5.626,0,0,0-22.5-41.25Zm45,0a5.626,5.626,0,0,0,5.625-5.625A5.626,5.626,0,0,0,22.5-52.5a5.626,5.626,0,0,0-5.625,5.625A5.626,5.626,0,0,0,22.5-41.25ZM37.23,2.355,32.074-10.535,27.258-5.1l-.234,2.133L30.27,5.145A3.747,3.747,0,0,0,33.75,7.5a3.645,3.645,0,0,0,1.395-.27A3.748,3.748,0,0,0,37.23,2.355ZM33.223-22.23l-2.168-9.4a7.594,7.594,0,0,0-4.395-5.262,7.23,7.23,0,0,0-6.574.387,12.839,12.839,0,0,0-5.637,6.961L13.125-25.57l-1.875,1.2v-11.25A1.881,1.881,0,0,0,9.375-37.5H-9.375a1.881,1.881,0,0,0-1.875,1.875v11.25l-1.887-1.2-1.324-3.973A12.748,12.748,0,0,0-20.1-36.5a7.233,7.233,0,0,0-6.574-.387,7.594,7.594,0,0,0-4.395,5.262l-2.156,9.4a7.508,7.508,0,0,0,1.688,6.645l7.875,8.895L-22.477,4.16A3.753,3.753,0,0,0-18.75,7.5c.141,0,.27-.012.41-.023A3.744,3.744,0,0,0-15.023,3.34L-16.207-7.535a7.489,7.489,0,0,0-1.828-4.1l-5.074-5.742,2.063-8.238.8,2.391a7.579,7.579,0,0,0,2.871,3.82l5.988,3.809a4.992,4.992,0,0,0,2.016.586H9.375a4.992,4.992,0,0,0,2.016-.586l5.988-3.809a7.531,7.531,0,0,0,2.871-3.82l.8-2.391,2.063,8.238-5.074,5.742a7.489,7.489,0,0,0-1.828,4.1L15.023,3.34A3.752,3.752,0,0,0,18.34,7.477c.141.012.27.023.41.023a3.752,3.752,0,0,0,3.727-3.34L23.66-6.691l7.875-8.895A7.542,7.542,0,0,0,33.223-22.23Zm-65.3,11.7L-37.23,2.355A3.748,3.748,0,0,0-35.145,7.23,3.757,3.757,0,0,0-30.27,5.145l3.246-8.109L-27.258-5.1Z" transform="translate(37.502 52.5)"/>
    </symbol>
    <symbol id="shs" viewBox="0 0 20 24">
        <path d="M17.263,1.286H2.29V-5.143H.147V3.429H19.406V-5.143H17.263ZM4.647-5.732l.442-2.1,10.487,2.21-.442,2.089Zm1.379-5.009.9-1.955,9.71,4.54-.9,1.942Zm2.692-4.768,1.366-1.647,8.223,6.871L16.942-8.638Zm5.317-5.063,6.388,8.585L18.71-10.7l-6.388-8.585ZM4.42-.871V-3H15.134V-.871Z" transform="translate(-0.147 20.571)"/>
    </symbol>
    <symbol id="print" viewBox="0 0 36 36">
        <path d="M31.5-18v-8.068a2.251,2.251,0,0,0-.659-1.591l-3.182-3.182a2.25,2.25,0,0,0-1.591-.659H6.75A2.25,2.25,0,0,0,4.5-29.25V-18A4.5,4.5,0,0,0,0-13.5v7.875A1.125,1.125,0,0,0,1.125-4.5H4.5V2.25A2.25,2.25,0,0,0,6.75,4.5h22.5A2.25,2.25,0,0,0,31.5,2.25V-4.5h3.375A1.125,1.125,0,0,0,36-5.625V-13.5A4.5,4.5,0,0,0,31.5-18ZM27,0H9V-6.75H27Zm0-15.75H9V-27H22.5v3.375A1.125,1.125,0,0,0,23.625-22.5H27Zm3.375,5.063a1.688,1.688,0,0,1-1.687-1.687,1.687,1.687,0,0,1,1.688-1.687,1.687,1.687,0,0,1,1.688,1.688A1.688,1.688,0,0,1,30.375-10.687Z" transform="translate(0 31.5)"/>
    </symbol>
</svg>