<svg width="0" height="0" xmlns="http://www.w3.org/2000/svg">
    <symbol id="a" viewBox="0 0 77 49"><path d="M4.554-13.929a1.919,1.919,0,0,0,1.875,1.071A1.919,1.919,0,0,0,8.3-13.929a2.277,2.277,0,0,0,0-2.143,1.919,1.919,0,0,0-1.875-1.071,1.919,1.919,0,0,0-1.875,1.071A2.277,2.277,0,0,0,4.554-13.929ZM55.748-14.8l-1.289-1.674q-.954-1.239-1.39-1.808T51.8-19.922q-.837-1.071-1.423-1.775T49.018-23.27q-.77-.871-1.507-1.641l-4.185,4.688a8.721,8.721,0,0,1-6.981,3.08,8.746,8.746,0,0,1-6.881-3.281,8,8,0,0,1-1.892-5.29,7.933,7.933,0,0,1,1.959-5.257l5.926-6.9a6.528,6.528,0,0,0-1.708-.552,10.4,10.4,0,0,0-1.59-.2q-.619-.017-1.892.017t-1.641.033a7.218,7.218,0,0,0-5.29,2.21l-5.29,5.29h-5.19v18.214q.167,0,.7-.017t.737,0q.2.017.653.067a2.539,2.539,0,0,1,.686.151q.234.1.586.285a2.528,2.528,0,0,1,.619.452l9.944,9.777q3.85,3.717,7.6,3.717A5.657,5.657,0,0,0,38.571,0a4.638,4.638,0,0,0,3.767-.268,4.544,4.544,0,0,0,2.427-2.846,5.308,5.308,0,0,0,4.252-1.473A6.266,6.266,0,0,0,50.223-6.11,2.9,2.9,0,0,0,50.692-7.8a2.138,2.138,0,0,0,1.44.335,4.806,4.806,0,0,0,2.578-.7,4.271,4.271,0,0,0,1.657-1.775,4.484,4.484,0,0,0,.4-2.394A4.549,4.549,0,0,0,55.748-14.8Zm5.324,1.942h3.214V-30H61.172l-5.257-6.027a7.157,7.157,0,0,0-5.658-2.545H44.665a6.13,6.13,0,0,0-4.888,2.243l-7,8.136a3.775,3.775,0,0,0-.937,2.511,3.858,3.858,0,0,0,.9,2.511,4.7,4.7,0,0,0,3.683,1.741,4.64,4.64,0,0,0,3.717-1.641l6.462-7.3a2.41,2.41,0,0,1,1.791-.72,2.013,2.013,0,0,1,1.574.9,2.006,2.006,0,0,1,.285,1.892q.536.636,1.875,2.109t2.009,2.277q.971,1.205,2.762,3.532t2.16,2.829A9.083,9.083,0,0,1,61.071-12.857Zm7.768-1.071a1.919,1.919,0,0,0,1.875,1.071,1.919,1.919,0,0,0,1.875-1.071,2.277,2.277,0,0,0,0-2.143,1.919,1.919,0,0,0-1.875-1.071,1.919,1.919,0,0,0-1.875,1.071A2.277,2.277,0,0,0,68.839-13.929Zm8.3-18.214v21.429a2.059,2.059,0,0,1-.636,1.507A2.059,2.059,0,0,1,75-8.571H60.469a8.434,8.434,0,0,1-2.746,3.566,8.928,8.928,0,0,1-4.185,1.724,10.8,10.8,0,0,1-2.7,2.729A9.372,9.372,0,0,1,47.411.971a9.343,9.343,0,0,1-3.5,2.729,8.929,8.929,0,0,1-4.3.82,10.189,10.189,0,0,1-4.219,1.323,10.974,10.974,0,0,1-4.269-.469A17.735,17.735,0,0,1,27.2,3.583,19.521,19.521,0,0,1,23.739.871L14.129-8.571H2.143A2.059,2.059,0,0,1,.636-9.208,2.059,2.059,0,0,1,0-10.714v-22.5a2.059,2.059,0,0,1,.636-1.507,2.059,2.059,0,0,1,1.507-.636h14.1q.469-.469,1.574-1.607t1.59-1.607q.485-.469,1.473-1.339a9.952,9.952,0,0,1,1.691-1.256q.7-.385,1.708-.854a8.157,8.157,0,0,1,2.076-.653,13.439,13.439,0,0,1,2.277-.184h3.917a10.514,10.514,0,0,1,6.06,1.875,10.514,10.514,0,0,1,6.06-1.875h5.592a12.155,12.155,0,0,1,2.243.2,13.266,13.266,0,0,1,1.892.485,7.7,7.7,0,0,1,1.724.887q.9.6,1.49,1.038a12.411,12.411,0,0,1,1.44,1.323q.854.887,1.306,1.406t1.373,1.607q.921,1.088,1.39,1.624H75a2.059,2.059,0,0,1,1.507.636A2.059,2.059,0,0,1,77.143-32.143Z" transform="translate(0 42.857)"/></symbol>
    <symbol id="b" viewBox="0 0 68 53"><path d="M61.875-48.75a5.429,5.429,0,0,1,2.813.762,5.733,5.733,0,0,1,2.051,2.051,5.429,5.429,0,0,1,.762,2.813v41.25a5.425,5.425,0,0,1-1.641,3.984A5.425,5.425,0,0,1,61.875,3.75H5.625A5.425,5.425,0,0,1,1.641,2.109,5.425,5.425,0,0,1,0-1.875v-41.25a5.425,5.425,0,0,1,1.641-3.984A5.425,5.425,0,0,1,5.625-48.75ZM6.328-43.125a.621.621,0,0,0-.7.7V-37.5h56.25v-4.922a.621.621,0,0,0-.7-.7ZM61.172-1.875a.621.621,0,0,0,.7-.7V-22.5H5.625V-2.578a.621.621,0,0,0,.7.7ZM22.5-13.594v4.688A1.243,1.243,0,0,1,21.094-7.5H12.656A1.243,1.243,0,0,1,11.25-8.906v-4.687A1.243,1.243,0,0,1,12.656-15h8.438A1.243,1.243,0,0,1,22.5-13.594Zm22.5,0v4.688A1.243,1.243,0,0,1,43.594-7.5H27.656A1.243,1.243,0,0,1,26.25-8.906v-4.687A1.243,1.243,0,0,1,27.656-15H43.594A1.243,1.243,0,0,1,45-13.594Z" transform="translate(0 48.75)"/></symbol>
    <symbol id="c" viewBox="0 0 68 60"><path d="M66.68-32.93a3.194,3.194,0,0,1,.82,2.168,2.782,2.782,0,0,1-.82,2.051L63.4-25.43,55.43-33.4l3.281-3.281a2.782,2.782,0,0,1,2.051-.82,3.194,3.194,0,0,1,2.168.82ZM38.555-16.641l14.3-14.18,7.969,7.969L45-6.914V1.875a5.425,5.425,0,0,1-1.641,3.984A5.425,5.425,0,0,1,39.375,7.5H5.625A5.425,5.425,0,0,1,1.641,5.859,5.425,5.425,0,0,1,0,1.875v-48.75a5.429,5.429,0,0,1,.762-2.812,5.733,5.733,0,0,1,2.051-2.051A5.429,5.429,0,0,1,5.625-52.5H29.531a5.425,5.425,0,0,1,3.984,1.641l9.844,9.844A5.425,5.425,0,0,1,45-37.031v8.672l-5.625,5.625v-9.141H27.188A2.712,2.712,0,0,1,25.2-32.7a2.712,2.712,0,0,1-.82-1.992V-46.875H5.625V1.875h33.75V-3.75H31.992a4.756,4.756,0,0,1-4.57-2.812,1.212,1.212,0,0,0-1.172-.7,1.212,1.212,0,0,0-1.172.7L24.141-4.8A1.659,1.659,0,0,1,22.5-3.75h-.117a1.721,1.721,0,0,1-1.641-1.289L18.75-10.9,17.461-7.266a4.566,4.566,0,0,1-1.816,2.578,5.116,5.116,0,0,1-2.988.938H11.25A1.825,1.825,0,0,1,9.9-4.277a1.825,1.825,0,0,1-.527-1.348A1.825,1.825,0,0,1,9.9-6.973,1.825,1.825,0,0,1,11.25-7.5h1.406a1.289,1.289,0,0,0,1.289-.937l2.109-6.328a2.667,2.667,0,0,1,2.7-1.992,2.667,2.667,0,0,1,2.7,1.992l1.641,4.8a4.607,4.607,0,0,1,4.16-.879A4.868,4.868,0,0,1,30.82-8.2a1.212,1.212,0,0,0,1.172.7h2.93l1.758-5.977A6.258,6.258,0,0,1,38.555-16.641ZM30-46.406V-37.5h8.906Z" transform="translate(0 52.5)"/></symbol>
    <symbol id="d" viewBox="0 0 68 53"><path d="M67.617-26.953V1.875a2.08,2.08,0,0,1-.234.938,1.533,1.533,0,0,1-.7.7,2.08,2.08,0,0,1-.937.234A1.679,1.679,0,0,1,64.1,2.813L55.43-13.242a1.04,1.04,0,0,0-.469.117H52.617q-8.906,0-17.812,5.742a26.2,26.2,0,0,1-4.687,2.344V1.875A1.805,1.805,0,0,1,28.242,3.75H26.367a1.805,1.805,0,0,1-1.875-1.875V-3.867q-1.641.117-1.875.117a23.115,23.115,0,0,1-5.625-.7V1.875A1.805,1.805,0,0,1,15.117,3.75H13.242a1.805,1.805,0,0,1-1.875-1.875V-6.8a21.886,21.886,0,0,1-8.2-8.145A22.027,22.027,0,0,1,.117-26.25,22.016,22.016,0,0,1,6.563-42.07a21.4,21.4,0,0,1,16.055-6.68,21.9,21.9,0,0,1,12.773,3.984,29.792,29.792,0,0,0,17.227,5.391h1.172A13.8,13.8,0,0,1,63.223-35.8,12.52,12.52,0,0,1,67.617-26.953Zm-13.125,8.2a7.162,7.162,0,0,0,5.391-2.344,7.466,7.466,0,0,0,2.109-5.625,6.634,6.634,0,0,0-2.578-4.98,8.54,8.54,0,0,0-5.625-2.051H52.617A35.444,35.444,0,0,1,32.109-40.2a16.252,16.252,0,0,0-9.492-2.93,16.535,16.535,0,0,0-11.895,4.8,16.071,16.071,0,0,0-4.98,12.07A16.177,16.177,0,0,0,10.723-14.3,16.331,16.331,0,0,0,22.617-9.375a16.286,16.286,0,0,0,9.141-2.7q10.2-6.68,20.859-6.68ZM63.867-5.508v-11.6a13.512,13.512,0,0,1-4.687,3.047ZM54.492-29.062a2.711,2.711,0,0,1,1.113.234,2.881,2.881,0,0,1,.879.586,2.881,2.881,0,0,1,.586.879A2.711,2.711,0,0,1,57.3-26.25a2.712,2.712,0,0,1-.82,1.992,2.712,2.712,0,0,1-1.992.82,2.712,2.712,0,0,1-1.992-.82,2.712,2.712,0,0,1-.82-1.992,2.712,2.712,0,0,1,.82-1.992A2.712,2.712,0,0,1,54.492-29.062Z" transform="translate(-0.117 48.75)"/></symbol>
    <symbol id="e" viewBox="0 0 75 60"><path d="M19.1-42.891a5.425,5.425,0,0,1-3.984,1.641,5.425,5.425,0,0,1-3.984-1.641,5.425,5.425,0,0,1-1.641-3.984,5.425,5.425,0,0,1,1.641-3.984A5.425,5.425,0,0,1,15.117-52.5,5.425,5.425,0,0,1,19.1-50.859a5.425,5.425,0,0,1,1.641,3.984A5.425,5.425,0,0,1,19.1-42.891Zm45,0a5.425,5.425,0,0,1-3.984,1.641,5.425,5.425,0,0,1-3.984-1.641,5.425,5.425,0,0,1-1.641-3.984,5.425,5.425,0,0,1,1.641-3.984A5.425,5.425,0,0,1,60.117-52.5,5.425,5.425,0,0,1,64.1-50.859a5.425,5.425,0,0,1,1.641,3.984A5.425,5.425,0,0,1,64.1-42.891Zm6.328,19.8a6.382,6.382,0,0,1-2.109,6.68L60.234-9.375A3.458,3.458,0,0,0,58.945-6.8L58.008,4.922a3.427,3.427,0,0,1-.879,1.816,2.426,2.426,0,0,1-2.168.762,2.636,2.636,0,0,1-1.875-1,3.186,3.186,0,0,1-.7-2.051L53.438-8.32a6.4,6.4,0,0,1,2.344-4.57l6.094-5.391-2.93-10.781-2.227,6.094a7.008,7.008,0,0,1-2.7,3.4l-4.336,2.227a3.486,3.486,0,0,1-1.758.469H27.3a3.486,3.486,0,0,1-1.758-.469L21.211-19.57a6.343,6.343,0,0,1-2.578-3.4q-1.992-5.508-2.344-6.094l-2.93,10.781,6.094,5.391A6.4,6.4,0,0,1,21.8-8.32L22.852,4.453A2.61,2.61,0,0,1,22.207,6.5a2.843,2.843,0,0,1-1.934,1,2.426,2.426,0,0,1-2.168-.762,3.427,3.427,0,0,1-.879-1.816L16.289-6.8A3.747,3.747,0,0,0,15-9.375L6.914-16.406A6.382,6.382,0,0,1,4.8-23.086l2.227-9.258a6.663,6.663,0,0,1,3.926-4.57,6.359,6.359,0,0,1,6.035.234q3.4,1.992,5.508,7.734l1.406,4.1a.755.755,0,0,0,.352.469L26.367-23.2V-37.5a1.825,1.825,0,0,1,.527-1.348,1.825,1.825,0,0,1,1.348-.527h18.75a1.825,1.825,0,0,1,1.348.527,1.825,1.825,0,0,1,.527,1.348v14.3l2.109-1.172a.755.755,0,0,0,.352-.469l1.406-4.1q2.109-5.742,5.508-7.734a6.47,6.47,0,0,1,6.094-.234,6.675,6.675,0,0,1,3.867,4.57ZM43.242-22.5V-33.75H31.992V-22.5ZM74.883,3.633a2.326,2.326,0,0,1,.234,1.055A2.711,2.711,0,0,1,74.883,5.8a2.881,2.881,0,0,1-.586.879,2.751,2.751,0,0,1-.937.586,2.623,2.623,0,0,1-2.168,0,2.456,2.456,0,0,1-1.465-1.523L64.1-7.734l4.453-3.984Zm-74.531,0L6.563-11.719l4.57,3.984L5.508,5.742A2.9,2.9,0,0,1,3.984,7.266a2.49,2.49,0,0,1-2.109,0A2.9,2.9,0,0,1,.352,5.742,2.49,2.49,0,0,1,.352,3.633Z" transform="translate(-0.117 52.5)"/></symbol>
    <symbol id="f" viewBox="0 0 45 60"><path d="M13.359-42.891A5.425,5.425,0,0,1,9.375-41.25a5.425,5.425,0,0,1-3.984-1.641A5.425,5.425,0,0,1,3.75-46.875a5.425,5.425,0,0,1,1.641-3.984A5.425,5.425,0,0,1,9.375-52.5a5.425,5.425,0,0,1,3.984,1.641A5.425,5.425,0,0,1,15-46.875,5.425,5.425,0,0,1,13.359-42.891ZM43.125-41.25a1.825,1.825,0,0,1,1.348.527A1.825,1.825,0,0,1,45-39.375v18.75a1.825,1.825,0,0,1-.527,1.348,1.825,1.825,0,0,1-1.348.527H17.344a3.478,3.478,0,0,1-3.516-2.344L11.25-27.3v13.242L15.7-10.547A6,6,0,0,1,18.047-6.8L20.508,4.1a2.281,2.281,0,0,1-.293,2.051A2.714,2.714,0,0,1,18.4,7.383a2.352,2.352,0,0,1-2.109-.293,2.774,2.774,0,0,1-1.172-1.816L12.773-4.57A3.353,3.353,0,0,0,11.484-6.68L2.461-13.828A6.329,6.329,0,0,1,0-18.984V-30.937a6.315,6.315,0,0,1,1.934-4.629A6.315,6.315,0,0,1,6.563-37.5H8.789a6.329,6.329,0,0,1,3.633,1.113,6.2,6.2,0,0,1,2.344,2.871l3.75,9.141H22.5v-15a1.825,1.825,0,0,1,.527-1.348,1.825,1.825,0,0,1,1.348-.527Zm-3.75,16.875v-11.25H28.125v11.25ZM0,4.688v-15.7Q3.281-8.437,5.625-6.562V4.688A2.712,2.712,0,0,1,4.8,6.68a2.712,2.712,0,0,1-1.992.82A2.712,2.712,0,0,1,.82,6.68,2.712,2.712,0,0,1,0,4.688Z" transform="translate(0 52.5)"/></symbol>
    <symbol id="g" viewBox="0 0 60 60"><path d="M13.359-42.891A5.425,5.425,0,0,1,9.375-41.25a5.425,5.425,0,0,1-3.984-1.641A5.425,5.425,0,0,1,3.75-46.875a5.425,5.425,0,0,1,1.641-3.984A5.425,5.425,0,0,1,9.375-52.5a5.425,5.425,0,0,1,3.984,1.641A5.425,5.425,0,0,1,15-46.875,5.425,5.425,0,0,1,13.359-42.891ZM58.945-8.437,60-4.8a.854.854,0,0,1-.7,1.172L41.133,1.289a7.349,7.349,0,0,1-2.52,4.453A7.231,7.231,0,0,1,33.75,7.5a7.208,7.208,0,0,1-5.273-2.227A7.208,7.208,0,0,1,26.25,0a7.059,7.059,0,0,1,3.164-6.094l-3.4-12.656H17.344a3.478,3.478,0,0,1-3.516-2.344L11.25-27.3v13.242L15.7-10.547A6,6,0,0,1,18.047-6.8L20.508,3.984a2.494,2.494,0,0,1-.293,2.168A2.714,2.714,0,0,1,18.4,7.383a2.254,2.254,0,0,1-2.109-.352,2.957,2.957,0,0,1-1.172-1.758L12.773-4.687A3.307,3.307,0,0,0,11.484-6.68L2.461-13.828A6.329,6.329,0,0,1,0-18.984V-30.937a6.315,6.315,0,0,1,1.934-4.629A6.315,6.315,0,0,1,6.563-37.5H8.672a6.521,6.521,0,0,1,3.75,1.113,6.2,6.2,0,0,1,2.344,2.871l3.75,9.141h5.977l-1.875-7.266a.854.854,0,0,1,.7-1.172l3.633-.937q.82-.234,1.055.7l2.7,9.961,17.578-4.687a1.728,1.728,0,0,1,1.465.176,2.061,2.061,0,0,1,.879,1.113l4.8,18.047,2.461-.586A.754.754,0,0,1,58.945-8.437ZM32.4,1.348a1.986,1.986,0,0,0,2.7,0A1.825,1.825,0,0,0,35.625,0,1.825,1.825,0,0,0,35.1-1.348a1.825,1.825,0,0,0-1.348-.527,1.825,1.825,0,0,0-1.348.527A1.825,1.825,0,0,0,31.875,0,1.825,1.825,0,0,0,32.4,1.348Zm7.559-5.566,10.078-2.7L46.172-21.328,32.227-17.7l2.7,10.313A6.9,6.9,0,0,1,39.961-4.219ZM0,4.688v-15.7Q3.281-8.437,5.625-6.562V4.688A2.712,2.712,0,0,1,4.8,6.68a2.712,2.712,0,0,1-1.992.82A2.712,2.712,0,0,1,.82,6.68,2.712,2.712,0,0,1,0,4.688Z" transform="translate(0 52.5)"/></symbol>
</svg>