<svg width="49" height="30" viewBox="0 0 49 30" fill="none" xmlns="http://www.w3.org/2000/svg">
<path d="M12.2192 10.664V20.664L19.5 25.4999L38 20.9999V10.9999M12.2192 10.664L19.5 15.4999L38 10.9999M12.2192 10.664L30.7192 6.16411L38 10.9999" stroke="#008264" stroke-width="2" stroke-linejoin="round"/>
<path d="M33.7764 7.83296C34.2831 4.49476 37.1653 1.93665 40.645 1.93665C44.4821 1.93665 47.5926 5.04721 47.5926 8.88429C47.5926 12.7214 44.4821 15.8319 40.645 15.8319C39.7956 15.8319 38.9819 15.6795 38.2295 15.4005" stroke="#008264" stroke-width="2" stroke-linejoin="round"/>
<path d="M40.6289 4.36121V8.99329L43.1435 10.6609" stroke="#008264" stroke-width="2" stroke-linejoin="round"/>
<path fill-rule="evenodd" clip-rule="evenodd" d="M16.6956 13.8001L34.5467 9.25403L32.2713 7.85228L15.4486 12.0539C15.0056 12.1668 14.6956 12.5657 14.6956 13.0229L14.6956 16.0938L16.6956 17.4897L16.6956 13.8001Z" fill="#008264"/>
<path d="M6.7981 15.016L12.0924 13.667" stroke="#008264" stroke-width="2" stroke-linejoin="round"/>
<path d="M7.96802 24.8416L19.1202 22" stroke="#008264" stroke-width="2" stroke-linejoin="round"/>
<path d="M0.861328 21.4284L12.5338 18.4542" stroke="#008264" stroke-width="2" stroke-linejoin="round"/>
<ellipse cx="25" cy="25.7526" rx="3" ry="3.75256" fill="#008264"/>
<ellipse cx="34.1887" cy="23.5201" rx="3" ry="3.75256" fill="#008264"/>
<path d="M26.5867 25.6405C26.5867 27.7129 27.028 30.0713 23.5867 29.393C22.1682 29.1134 20.6729 27.7129 20.6729 25.6405C20.6729 23.568 22.2083 24.8674 23.8652 24.8674C25.522 24.8674 26.5867 23.568 26.5867 25.6405Z" fill="#008264"/>
<path d="M35.7755 23.408C35.7755 25.4805 36.2167 27.8389 32.7755 27.1606C31.3569 26.881 29.8617 25.4805 29.8617 23.408C29.8617 21.3356 31.397 22.635 33.0539 22.635C34.7108 22.635 35.7755 21.3356 35.7755 23.408Z" fill="#008264"/>
</svg>
