<?xml version="1.0" encoding="UTF-8"?>
<svg xmlns="http://www.w3.org/2000/svg" xmlns:xlink="http://www.w3.org/1999/xlink" width="119px" height="54px" viewBox="0 0 119 54" version="1.1">
<style type="text/css">
	.st0{fill:#002677;}
	.st1{fill:#008969;}
</style>
<path class="st0" d="M19.5,0C8.7,0,0,8.7,0,19.5v34.2h6.8V34.2c3.4,2.9,7.8,4.7,12.7,4.7c10.7,0,19.5-8.7,19.5-19.5
	C38.9,8.7,30.2,0,19.5,0z M19.5,32.1c-6.9,0-12.6-5.7-12.6-12.6S12.6,6.9,19.5,6.9s12.6,5.7,12.6,12.6S26.4,32.1,19.5,32.1z"/>
<path class="st0" d="M71.5,0c-4.9,0-9.2,2.2-12,5.7C56.7,2.3,52.4,0,47.5,0C39,0,32.1,6.9,32.1,15.4v23.5H39V15.4
	c0-4.7,3.9-8.6,8.6-8.6s8.6,3.9,8.6,8.6v23.5h6.9V15.4c0-4.7,3.9-8.6,8.6-8.6s8.6,3.9,8.6,8.6v23.5h6.9V15.4C86.9,6.9,80,0,71.5,0z"
	/>
<path class="st0" d="M99.5,0C88.7,0,80,8.7,80,19.5C80,30.2,88.7,39,99.5,39c4.8,0,9.2-1.8,12.6-4.6c0,6.9-5.7,12.5-12.6,12.5v6.8
	c10.7,0,19.3-8.6,19.5-19.3V19.5C119,8.7,110.2,0,99.5,0z M99.5,32.1c-6.9,0-12.6-5.7-12.6-12.6S92.6,6.9,99.5,6.9
	s12.6,5.7,12.6,12.6S106.4,32.1,99.5,32.1z"/>
<path class="st1" d="M15.2,48.4c-0.1-0.3-0.3-0.5-0.6-0.7s-0.6-0.4-0.9-0.5c-0.4-0.1-0.8-0.2-1.2-0.2h-1.8v6.6h0.7v-2.1h1
	c0.5,0,0.9-0.1,1.2-0.2c0.4-0.1,0.7-0.3,0.9-0.5c0.3-0.2,0.5-0.4,0.6-0.7s0.2-0.6,0.2-0.9C15.4,49,15.4,48.7,15.2,48.4z M14.5,49.9
	c-0.1,0.2-0.2,0.4-0.4,0.5s-0.4,0.3-0.7,0.3c-0.3,0.1-0.6,0.1-0.9,0.1h-1v-3.2h1c0.3,0,0.6,0,0.9,0.1c0.3,0.1,0.5,0.2,0.7,0.3
	s0.3,0.3,0.4,0.5s0.2,0.4,0.2,0.6C14.7,49.5,14.6,49.7,14.5,49.9z"/>
<path class="st1" d="M22.9,50.8c0.3-0.1,0.5-0.2,0.8-0.4c0.2-0.1,0.4-0.3,0.5-0.5c0.2-0.2,0.2-0.5,0.2-0.9c0-0.3-0.1-0.5-0.2-0.8
	s-0.3-0.4-0.5-0.6c-0.2-0.2-0.5-0.3-0.8-0.4c-0.3-0.1-0.7-0.2-1.1-0.2h-2.3v6.6h0.7v-2.7h1.9l1.8,2.7h0.9L22.9,50.8z M21.8,50.3
	h-1.5v-2.7h1.5c0.3,0,0.6,0,0.8,0.1c0.2,0.1,0.4,0.2,0.6,0.3s0.3,0.3,0.4,0.4c0.1,0.2,0.1,0.3,0.1,0.5s0,0.4-0.1,0.5
	c-0.1,0.2-0.2,0.3-0.4,0.4c-0.2,0.1-0.4,0.2-0.6,0.3C22.4,50.3,22.1,50.3,21.8,50.3z"/>
<path class="st1" d="M28.8,47h0.7v6.6h-0.7V47z"/>
<path class="st1" d="M39.3,53.8L35,48.6h-0.1v5h-0.7v-6.8h0.1l4.3,5.2h0.1v-5h0.7L39.3,53.8L39.3,53.8z"/>
<path class="st1" d="M46.2,47.6v6h-0.7v-6h-2.2V47h5v0.6H46.2z"/>
<path class="st1" d="M56.7,50.8H53v2.8h-0.8V47H53v3.2h3.7V47h0.8v6.6h-0.8V50.8z"/>
<path class="st1" d="M69,48.9c-0.2-0.4-0.5-0.8-0.8-1.1c-0.4-0.3-0.8-0.6-1.2-0.8c-0.5-0.2-1-0.3-1.5-0.3s-1,0.1-1.5,0.3
	s-0.9,0.4-1.2,0.8c-0.4,0.3-0.6,0.7-0.8,1.1c-0.2,0.4-0.3,0.9-0.3,1.4s0.1,0.9,0.3,1.4c0.2,0.4,0.5,0.8,0.8,1.1
	c0.4,0.3,0.8,0.6,1.2,0.8c0.5,0.2,1,0.3,1.5,0.3s1-0.1,1.5-0.3s0.9-0.4,1.2-0.8c0.4-0.3,0.6-0.7,0.8-1.1c0.2-0.4,0.3-0.9,0.3-1.4
	S69.2,49.4,69,48.9z M68.2,51.4c-0.2,0.3-0.4,0.6-0.7,0.9s-0.6,0.5-1,0.6c-0.4,0.2-0.7,0.2-1.1,0.2s-0.8-0.1-1.1-0.2
	c-0.4-0.2-0.7-0.4-1-0.6c-0.3-0.3-0.5-0.6-0.7-0.9c-0.2-0.3-0.3-0.7-0.3-1.1c0-0.4,0.1-0.8,0.3-1.1s0.4-0.6,0.7-0.9s0.6-0.5,1-0.6
	c0.4-0.2,0.7-0.2,1.1-0.2s0.8,0.1,1.1,0.2c0.4,0.2,0.7,0.4,1,0.6c0.3,0.3,0.5,0.6,0.7,0.9s0.3,0.7,0.3,1.1S68.4,51.1,68.2,51.4z"/>
<path class="st1" d="M77.7,47h0.7v4.4c0,0.4-0.1,0.7-0.2,1s-0.3,0.5-0.5,0.7s-0.5,0.4-0.8,0.5s-0.6,0.2-1,0.2s-0.7-0.1-1-0.2
	c-0.3-0.1-0.6-0.3-0.8-0.5c-0.2-0.2-0.4-0.5-0.5-0.7c-0.1-0.3-0.2-0.6-0.2-1V47h0.7v4.4c0,0.5,0.2,1,0.5,1.3s0.8,0.5,1.3,0.5
	s1-0.2,1.3-0.5s0.5-0.7,0.5-1.3V47z"/>
<path class="st1" d="M85.2,46.8c0.4,0,0.7,0.1,0.9,0.2c0.3,0.1,0.5,0.2,0.7,0.4s0.4,0.3,0.5,0.5l-0.6,0.3c-0.1-0.1-0.2-0.3-0.4-0.4
	c-0.1-0.1-0.3-0.2-0.5-0.3s-0.4-0.1-0.6-0.1c-0.5,0-0.9,0.1-1.1,0.3c-0.3,0.2-0.4,0.5-0.4,0.8s0.1,0.5,0.3,0.6
	c0.2,0.2,0.4,0.3,0.7,0.4s0.6,0.2,0.9,0.3s0.6,0.2,0.9,0.4s0.5,0.4,0.7,0.6s0.3,0.5,0.3,0.9c0,0.3-0.1,0.5-0.2,0.7S87,52.8,86.8,53
	s-0.5,0.3-0.8,0.4c-0.3,0.1-0.6,0.2-1,0.2c-0.5,0-0.8-0.1-1.2-0.2c-0.3-0.1-0.6-0.3-0.8-0.5c-0.2-0.2-0.4-0.4-0.6-0.7l0.6-0.3
	c0.1,0.2,0.3,0.4,0.5,0.5s0.4,0.3,0.6,0.4c0.2,0.1,0.5,0.2,0.9,0.2c0.3,0,0.5,0,0.7-0.1s0.4-0.2,0.5-0.3c0.2-0.1,0.3-0.3,0.4-0.4
	c0.1-0.2,0.1-0.3,0.1-0.5c0-0.3-0.1-0.5-0.3-0.7c-0.2-0.2-0.4-0.3-0.7-0.4c-0.3-0.1-0.6-0.2-0.9-0.4c-0.3-0.1-0.6-0.2-0.9-0.4
	s-0.5-0.3-0.7-0.6c-0.2-0.2-0.3-0.5-0.3-0.8c0-0.2,0.1-0.4,0.2-0.6c0.1-0.2,0.3-0.4,0.5-0.6c0.2-0.2,0.5-0.3,0.7-0.4
	C84.6,46.9,84.9,46.8,85.2,46.8z"/>
<path class="st1" d="M91.4,47h4.1v0.6h-3.3v2.3h2.4v0.6h-2.4v2.4h3.4v0.7h-4.2V47z"/>
</svg>
