<svg width="48" height="48" viewBox="0 0 48 48" fill="none" xmlns="http://www.w3.org/2000/svg">
  <rect width="48" height="48" rx="16" fill="#EFEFEF"/>
  <path fill-rule="evenodd" clip-rule="evenodd"
        d="M24 17.8358C20.5973 17.8358 17.8358 20.5965 17.8358 24C17.8358 27.4035 20.5965 30.1643 24 30.1643C27.4035 30.1643 30.1643 27.4035 30.1643 24C30.1643 20.5973 27.4035 17.8358 24 17.8358ZM24 27.9983C21.792 27.9983 20.0018 26.208 20.0018 24C20.0018 21.792 21.792 20.0018 24 20.0018C26.208 20.0018 27.9983 21.792 27.9983 24C27.9983 26.208 26.208 27.9983 24 27.9983Z"
        fill="#002677"/>
  <path
    d="M30.4073 19.0312C31.2023 19.0312 31.8465 18.3869 31.8465 17.5919C31.8465 16.7969 31.2023 16.1527 30.4073 16.1527C29.6123 16.1527 28.968 16.7969 28.968 17.5919C28.968 18.3869 29.6123 19.0312 30.4073 19.0312Z"
    fill="#002677"/>
  <path fill-rule="evenodd" clip-rule="evenodd"
        d="M24 12.0003C20.742 12.0003 20.3348 12.0145 19.0545 12.0708C17.7795 12.127 16.9028 12.3333 16.1438 12.6288C15.3518 12.9378 14.6813 13.3458 14.016 14.0163C13.3455 14.6823 12.9375 15.352 12.6285 16.1395C12.333 16.9038 12.1267 17.7753 12.0705 19.0503C12.0142 20.335 12 20.7423 12 24.0003C12 27.2583 12.0142 27.6655 12.0705 28.9458C12.1267 30.2208 12.333 31.0975 12.6285 31.8565C12.9383 32.6485 13.3455 33.319 14.016 33.9843C14.6813 34.6495 15.3518 35.0628 16.1392 35.3673C16.9035 35.6628 17.775 35.869 19.05 35.9253C20.3295 35.9815 20.7375 35.9958 23.9955 35.9958C27.2535 35.9958 27.6615 35.9815 28.941 35.9253C30.216 35.869 31.0928 35.6628 31.8517 35.3673C32.6392 35.0628 33.3097 34.6503 33.975 33.9843C34.6402 33.3183 35.0535 32.6485 35.358 31.861C35.6535 31.0968 35.8598 30.2253 35.916 28.9503C35.9722 27.6708 35.9865 27.2628 35.9865 24.0048C35.9865 20.7468 35.9722 20.3395 35.916 19.0593C35.8598 17.7843 35.6535 16.9075 35.358 16.1485C35.0625 15.3513 34.6545 14.6815 33.9847 14.0155C33.3195 13.3503 32.649 12.937 31.8615 12.6325C31.0972 12.337 30.2257 12.1308 28.9508 12.0745C27.6667 12.0138 27.2587 11.9995 24.0007 11.9995L24 12.0003ZM24 14.161C27.2063 14.161 27.5857 14.1753 28.8465 14.2315C30.0187 14.2833 30.651 14.4798 31.0732 14.644C31.6313 14.86 32.034 15.1225 32.451 15.5395C32.8732 15.9618 33.1305 16.36 33.351 16.918C33.5153 17.3403 33.7118 17.977 33.7635 19.1448C33.8197 20.4108 33.834 20.7903 33.834 23.992C33.834 27.1938 33.8197 27.5778 33.7635 28.8393C33.7118 30.0115 33.5153 30.6438 33.351 31.066C33.135 31.624 32.8733 32.0268 32.4555 32.4438C32.0333 32.866 31.635 33.1233 31.0778 33.3438C30.6555 33.508 30.018 33.7045 28.851 33.7563C27.585 33.8125 27.2055 33.8268 24.0037 33.8268C20.802 33.8268 20.418 33.8125 19.1565 33.7563C17.9843 33.7045 17.352 33.508 16.9297 33.3438C16.3717 33.1278 15.969 32.866 15.5512 32.4483C15.129 32.026 14.8718 31.6278 14.6513 31.0705C14.487 30.6483 14.2905 30.0108 14.2387 28.8438C14.1825 27.5778 14.1683 27.1983 14.1683 23.9965C14.1683 20.7948 14.1825 20.4108 14.2387 19.1493C14.2905 17.977 14.487 17.3448 14.6513 16.9225C14.8672 16.3645 15.1298 15.9618 15.5468 15.544C15.969 15.1218 16.3672 14.8645 16.9253 14.644C17.3475 14.4798 17.9843 14.2833 19.152 14.2315C20.4128 14.1753 20.7937 14.161 24 14.161Z"
        fill="#002677"/>
</svg>
