<svg width="48" height="48" viewBox="0 0 48 48" fill="none" xmlns="http://www.w3.org/2000/svg">
  <rect width="48" height="48" rx="16" fill="#EFEFEF"/>
  <path
    d="M36.5556 18.9644C36.7552 19.5138 36.129 20.7996 34.5557 22.9021C31.9697 26.3573 31.6898 26.0358 33.8228 28.0313C35.8756 29.9461 36.3022 30.871 36.3688 30.991C36.3688 30.991 37.2219 32.491 35.4226 32.5047L32.0098 32.5587C31.2769 32.7061 30.3034 32.0367 30.3034 32.0367C29.0236 31.153 27.824 28.8627 26.8906 29.1576C26.8906 29.1576 25.9308 29.4653 25.9572 31.5284C25.9709 31.9707 25.7576 32.2116 25.7576 32.2116C25.7576 32.2116 25.5178 32.4661 25.0511 32.5064H23.518C20.1453 32.7207 17.1719 29.5998 17.1719 29.5998C17.1719 29.5998 13.9187 26.2244 11.0665 19.4881C10.8796 19.0458 11.0801 18.8316 11.0801 18.8316C11.0801 18.8316 11.2798 18.577 11.8403 18.577L15.4928 18.5504C15.8392 18.6044 16.0798 18.7913 16.0798 18.7913C16.0798 18.7913 16.2931 18.9387 16.3998 19.2198C16.9996 20.7198 17.7726 22.0861 17.7726 22.0861C19.1061 24.8453 20.0122 25.3141 20.5318 25.0321C20.5318 25.0321 21.2118 24.6173 21.065 21.2821C21.0113 20.077 20.6785 19.5276 20.6785 19.5276C20.3722 19.1127 19.7989 18.9918 19.5455 18.9516C19.3458 18.925 19.6786 18.4424 20.1188 18.2281C20.7724 17.9067 21.9319 17.893 23.3047 17.9067C24.3848 17.9204 24.6911 17.9873 25.104 18.0807C26.3702 18.3884 25.9436 19.567 25.9436 22.4067C25.9436 23.317 25.7704 24.5898 26.4231 25.0047C26.7029 25.1924 27.3966 25.0313 29.103 22.1118C29.103 22.1118 29.9033 20.719 30.5295 19.0981C30.6362 18.8033 30.8631 18.6833 30.8631 18.6833C30.8631 18.6833 31.0764 18.5624 31.3699 18.6027L35.2093 18.5761C36.3688 18.4287 36.5556 18.9644 36.5556 18.9644Z"
    fill="#002677"/>
</svg>
