<svg
        xmlns="http://www.w3.org/2000/svg"
        xmlns:xlink="http://www.w3.org/1999/xlink"
        width="650px" height="225px">
    <path fill-rule="evenodd"  fill="rgb(255, 255, 255)"
          d="M641.327,73.929 C639.506,73.929 638.302,74.616 638.302,75.888 C638.302,77.400 640.639,77.537 643.149,78.054 C646.103,78.673 649.369,79.498 649.369,83.623 C649.369,87.163 646.343,89.295 641.946,89.295 C636.824,89.295 633.973,86.819 633.698,83.072 L638.027,83.072 C638.337,85.101 639.780,85.994 641.877,85.994 C643.939,85.994 645.107,85.204 645.107,83.967 C645.107,82.281 642.874,82.109 640.468,81.629 C637.305,81.010 634.214,80.150 634.214,76.301 C634.214,72.484 637.375,70.663 641.396,70.663 C646.035,70.663 648.612,72.967 648.956,76.507 L644.729,76.507 C644.522,74.616 643.320,73.929 641.327,73.929 ZM624.340,85.686 C626.161,85.686 627.226,84.860 627.741,83.520 L632.346,83.520 C631.693,86.648 628.909,89.295 624.374,89.295 C618.532,89.295 615.232,85.204 615.232,79.944 C615.232,74.719 618.772,70.663 623.927,70.663 C629.596,70.663 632.621,74.994 632.621,81.285 L619.837,81.285 C620.180,84.001 621.693,85.686 624.340,85.686 ZM627.741,78.054 C627.604,75.819 626.127,74.272 623.996,74.272 C621.521,74.272 620.318,75.750 619.905,78.054 L627.741,78.054 ZM608.636,77.950 C608.636,76.060 607.536,74.719 605.577,74.719 C603.515,74.719 602.003,76.369 602.003,78.775 L602.003,88.779 L597.329,88.779 L597.329,71.144 L601.900,71.144 L601.900,73.551 L602.003,73.551 C603.206,71.659 604.820,70.663 607.226,70.663 C610.870,70.663 613.308,73.413 613.308,77.263 L613.308,88.779 L608.636,88.779 L608.636,77.950 ZM590.044,71.144 L594.719,71.144 L594.719,88.779 L590.044,88.779 L590.044,71.144 ZM590.044,64.512 L594.719,64.512 L594.719,68.705 L590.044,68.705 L590.044,64.512 ZM582.759,64.512 L587.433,64.512 L587.433,88.779 L582.759,88.779 L582.759,64.512 ZM575.577,80.185 L575.577,88.779 L570.903,88.779 L570.903,71.144 L575.405,71.144 L575.405,73.963 L575.509,73.963 C576.574,71.969 577.777,70.938 579.838,70.938 C580.353,70.938 580.663,70.972 580.938,71.075 L580.938,75.166 L580.835,75.166 C577.777,74.856 575.577,76.473 575.577,80.185 ZM563.617,71.144 L568.292,71.144 L568.292,88.779 L563.617,88.779 L563.617,71.144 ZM563.617,64.512 L568.291,64.512 L568.291,68.705 L563.617,68.705 L563.617,64.512 ZM554.739,83.795 L544.704,83.795 L542.883,88.779 L537.316,88.779 L547.151,64.512 L552.591,64.512 L562.196,88.779 L556.594,88.779 L554.739,83.795 ZM549.652,69.391 L546.045,79.704 L553.364,79.704 L549.652,69.391 ZM503.359,106.979 C487.949,106.979 475.453,94.495 475.453,79.077 C475.453,63.659 487.949,51.163 503.359,51.163 C518.769,51.163 531.251,63.659 531.251,79.077 C531.251,94.495 518.769,106.979 503.359,106.979 ZM501.326,64.510 C496.933,64.510 494.081,64.753 492.018,65.520 C488.550,66.870 486.154,69.703 486.154,73.426 C486.154,76.524 487.598,78.771 491.775,81.353 C496.231,84.055 497.119,84.947 497.119,86.575 C497.119,88.358 495.373,90.386 490.883,90.386 C489.316,90.386 486.954,90.169 485.445,89.800 L484.726,89.618 C484.324,90.695 483.413,93.242 483.135,94.167 L483.847,94.377 C485.204,94.810 488.426,95.148 490.734,95.148 C498.409,95.148 502.988,90.509 502.988,85.650 C502.988,82.666 501.634,80.398 497.055,77.539 C494.758,76.126 493.588,75.210 492.877,74.501 C492.301,73.761 492.236,73.209 492.236,72.626 C492.236,72.070 492.360,71.430 492.727,70.961 C493.123,70.381 493.850,70.012 494.833,69.706 C495.845,69.371 497.718,69.362 500.635,69.362 L503.352,69.362 L505.291,64.510 L501.326,64.510 ZM522.373,65.457 C522.620,64.964 522.498,64.510 521.856,64.510 L508.205,64.510 L506.266,69.362 L510.790,69.362 C513.835,69.362 514.420,69.296 515.185,69.296 C514.081,71.821 507.430,88.778 507.430,88.778 L513.059,88.778 C513.059,88.778 521.481,67.670 522.373,65.457 Z"/>
    <path fill-rule="evenodd"  fill="rgb(225, 244, 239)"
          d="M181.638,198.947 C169.686,205.984 154.294,201.998 147.259,190.042 C141.341,179.986 143.244,167.516 151.101,159.613 C150.791,159.831 150.478,160.047 150.145,160.243 C143.598,164.096 135.167,161.914 131.314,155.366 C128.141,149.974 129.068,143.310 133.145,138.971 C133.038,139.041 132.935,139.117 132.823,139.182 C129.206,141.313 124.545,140.106 122.415,136.487 C120.284,132.866 121.491,128.203 125.110,126.073 C128.729,123.942 133.389,125.150 135.520,128.769 C137.181,131.592 136.805,135.044 134.846,137.440 C135.273,137.116 135.716,136.807 136.190,136.528 C142.737,132.673 151.167,134.857 155.021,141.406 C158.129,146.687 157.305,153.192 153.437,157.535 C154.298,156.863 155.193,156.221 156.159,155.652 C168.111,148.614 183.504,152.600 190.539,164.556 C197.574,176.512 193.590,191.910 181.638,198.947 ZM139.726,57.488 C129.088,48.588 127.677,32.746 136.575,22.104 C145.473,11.461 161.310,10.051 171.947,18.951 C182.586,27.852 183.998,43.694 175.100,54.336 C166.201,64.978 150.364,66.389 139.726,57.488 ZM102.822,50.712 C88.976,49.932 78.382,38.069 79.163,24.218 C79.944,10.366 91.802,-0.229 105.649,0.552 C119.495,1.333 130.088,13.194 129.307,27.046 C128.528,40.897 116.668,51.492 102.822,50.712 ZM67.870,67.628 C55.917,74.666 40.525,70.679 33.490,58.724 C26.455,46.766 30.440,31.370 42.392,24.332 C54.343,17.295 69.736,21.281 76.771,33.238 C83.807,45.193 79.822,60.590 67.870,67.628 ZM48.687,99.164 C43.359,111.972 28.659,118.033 15.855,112.703 C3.050,107.373 -3.010,92.668 2.319,79.860 C7.647,67.052 22.347,60.990 35.152,66.320 C47.956,71.650 54.016,86.356 48.687,99.164 ZM24.890,120.478 C38.242,116.729 52.105,124.518 55.853,137.874 C59.601,151.232 51.814,165.098 38.461,168.848 C25.109,172.597 11.246,164.807 7.498,151.451 C3.751,138.093 11.537,124.226 24.890,120.478 ZM81.849,168.333 C92.487,177.235 93.898,193.077 85.000,203.718 C76.102,214.360 60.265,215.771 49.627,206.871 C38.989,197.970 37.578,182.128 46.475,171.487 C55.374,160.844 71.210,159.433 81.849,168.333 ZM108.523,51.573 C116.107,52.002 121.909,58.499 121.482,66.085 C121.054,73.673 114.560,79.476 106.975,79.049 C99.390,78.621 93.588,72.123 94.015,64.536 C94.443,56.950 100.938,51.145 108.523,51.573 ZM73.874,64.600 C80.421,60.744 88.852,62.929 92.704,69.478 C96.559,76.025 94.375,84.460 87.829,88.314 C81.284,92.168 72.852,89.985 68.998,83.438 C65.145,76.888 67.329,68.455 73.874,64.600 ZM51.924,95.014 C54.843,87.998 62.895,84.679 69.909,87.597 C76.922,90.518 80.242,98.570 77.323,105.587 C74.405,112.603 66.353,115.923 59.339,113.003 C52.325,110.084 49.006,102.029 51.924,95.014 ZM54.761,134.226 C52.708,126.910 56.974,119.316 64.288,117.261 C70.447,115.532 76.790,118.295 79.869,123.575 C79.467,119.940 81.730,116.443 85.365,115.423 C89.408,114.288 93.605,116.646 94.740,120.691 C95.874,124.736 93.517,128.933 89.474,130.069 C86.376,130.938 83.201,129.746 81.369,127.328 C83.073,134.475 78.857,141.752 71.722,143.755 C64.409,145.810 56.815,141.543 54.761,134.226 ZM77.837,164.582 C72.010,159.706 71.238,151.030 76.111,145.202 C80.985,139.371 89.660,138.599 95.487,143.475 C101.314,148.349 102.086,157.027 97.212,162.856 C92.338,168.685 83.665,169.457 77.837,164.582 ZM92.854,141.581 C89.634,138.886 89.206,134.089 91.900,130.867 C94.594,127.646 99.390,127.218 102.611,129.913 C105.832,132.608 106.259,137.405 103.565,140.627 C100.870,143.849 96.076,144.276 92.854,141.581 ZM109.817,79.113 C114.009,79.349 117.216,82.940 116.980,87.134 C116.743,91.328 113.154,94.536 108.960,94.301 C104.769,94.064 101.561,90.472 101.797,86.278 C102.034,82.084 105.624,78.877 109.817,79.113 ZM92.570,108.970 C90.957,112.848 86.505,114.684 82.629,113.070 C78.752,111.455 76.917,107.003 78.531,103.125 C80.145,99.248 84.594,97.411 88.472,99.026 C92.349,100.640 94.184,105.092 92.570,108.970 ZM90.664,86.313 C94.283,84.182 98.944,85.390 101.074,89.010 C103.203,92.628 101.996,97.290 98.378,99.422 C94.759,101.552 90.099,100.345 87.968,96.726 C85.838,93.105 87.045,88.444 90.664,86.313 ZM125.462,63.379 C130.336,57.550 139.011,56.776 144.838,61.651 C150.664,66.526 151.438,75.204 146.564,81.033 C141.690,86.862 133.015,87.635 127.189,82.760 C121.362,77.884 120.588,69.207 125.462,63.379 ZM120.135,96.352 C116.913,93.656 116.486,88.860 119.180,85.638 C121.874,82.415 126.669,81.988 129.891,84.684 C133.112,87.378 133.538,92.175 130.845,95.398 C128.151,98.619 123.356,99.047 120.135,96.352 ZM128.632,161.519 C128.204,169.106 121.709,174.909 114.125,174.482 C106.540,174.053 100.739,167.557 101.165,159.969 C101.555,153.069 106.968,147.660 113.651,147.057 C113.407,147.067 113.161,147.067 112.913,147.053 C108.721,146.817 105.514,143.225 105.750,139.031 C105.987,134.838 109.576,131.629 113.770,131.866 C117.961,132.102 121.169,135.694 120.933,139.888 C120.723,143.607 117.873,146.546 114.304,146.999 C114.756,146.980 115.212,146.981 115.673,147.007 C123.258,147.435 129.060,153.931 128.632,161.519 ZM118.703,174.783 C132.550,175.565 143.143,187.426 142.362,201.277 C141.581,215.128 129.723,225.724 115.876,224.943 C102.030,224.163 91.438,212.300 92.217,198.450 C92.998,184.598 104.857,174.001 118.703,174.783 Z"/>
    <path fill-rule="evenodd"  fill="rgb(76, 94, 100)"
          d="M399.266,82.910 L399.266,76.067 C399.266,73.184 397.772,71.479 395.308,71.479 C392.791,71.479 390.930,73.445 390.930,76.067 L390.930,82.910 L388.833,82.910 L388.833,69.801 L390.773,69.801 L390.773,72.187 C391.770,70.562 393.526,69.539 395.622,69.539 C399.109,69.539 401.363,71.950 401.363,75.779 L401.363,82.910 L399.266,82.910 ZM378.116,83.172 C374.131,83.172 371.118,80.236 371.118,76.355 C371.118,72.475 374.131,69.539 378.116,69.539 C382.099,69.539 385.114,72.475 385.114,76.355 C385.114,80.210 382.046,83.172 378.116,83.172 ZM378.116,71.452 C375.285,71.452 373.240,73.498 373.240,76.355 C373.240,79.188 375.285,81.259 378.116,81.259 C380.919,81.259 382.991,79.188 382.991,76.355 C382.991,73.524 380.919,71.452 378.116,71.452 ZM366.191,67.938 L364.775,63.377 L367.869,63.377 L366.453,67.938 L366.191,67.938 ZM355.865,75.439 C358.827,75.988 361.580,76.617 361.580,79.345 C361.580,82.124 358.565,83.225 355.865,83.225 C352.694,83.225 349.784,81.810 349.338,78.559 L351.461,78.559 C351.855,80.498 353.664,81.494 355.838,81.494 C357.228,81.494 359.404,81.049 359.404,79.424 C359.404,77.929 357.700,77.772 355.394,77.352 C352.484,76.801 349.836,76.119 349.810,73.445 C349.810,70.535 352.825,69.486 355.420,69.486 C358.329,69.486 361.082,70.823 361.475,74.022 L359.325,74.022 C358.932,72.107 357.097,71.321 355.184,71.321 C353.794,71.321 351.908,71.767 351.908,73.341 C351.908,74.782 353.690,75.045 355.865,75.439 ZM344.780,67.938 L343.364,63.377 L346.458,63.377 L345.042,67.938 L344.780,67.938 ZM330.104,82.910 L322.607,64.557 L325.149,64.557 L331.676,80.761 L331.755,80.761 L338.229,64.557 L340.745,64.557 L333.222,82.910 L330.104,82.910 ZM311.731,82.910 C312.413,76.906 315.768,70.587 319.385,66.707 L306.987,66.707 L306.987,64.557 L321.744,64.557 L321.744,66.575 C318.179,70.246 314.772,76.854 314.117,82.910 L311.731,82.910 ZM298.341,72.658 C301.930,73.367 305.496,74.337 305.496,78.112 C305.496,81.337 302.822,83.304 298.235,83.304 C293.753,83.304 290.504,80.918 290.084,76.801 L292.416,76.801 C292.862,79.555 294.985,81.259 298.210,81.259 C301.171,81.259 303.032,80.184 303.032,78.244 C303.032,75.857 300.699,75.386 297.685,74.809 C294.356,74.180 290.555,73.341 290.555,69.434 C290.555,65.973 293.805,64.164 297.685,64.164 C301.748,64.164 304.998,66.287 305.418,70.535 L302.979,70.535 C302.587,67.781 300.542,66.234 297.606,66.234 C295.011,66.234 292.993,67.336 292.993,69.382 C292.993,71.662 295.457,72.107 298.341,72.658 ZM308.442,101.029 L297.673,101.029 L297.673,125.532 L294.081,125.532 L294.081,101.029 L283.271,101.029 L283.271,97.598 L308.442,97.598 L308.442,101.029 ZM273.976,97.598 L277.566,97.598 L277.566,125.532 L273.976,125.532 L273.976,97.598 ZM260.971,100.552 L251.118,125.532 L246.969,125.532 L237.115,100.552 L237.115,125.532 L233.605,125.532 L233.605,97.598 L239.589,97.598 L249.123,121.461 L258.617,97.598 L264.481,97.598 L264.481,125.532 L260.971,125.532 L260.971,100.552 ZM220.599,100.552 L210.746,125.532 L206.597,125.532 L196.743,100.552 L196.743,125.532 L193.233,125.532 L193.233,97.598 L199.218,97.598 L208.752,121.461 L218.246,97.598 L224.109,97.598 L224.109,125.532 L220.599,125.532 L220.599,100.552 ZM172.130,126.130 C164.750,126.130 159.923,121.142 159.923,113.480 L159.923,97.598 L163.515,97.598 L163.515,113.440 C163.515,119.186 166.785,122.778 172.130,122.778 C177.516,122.778 180.786,119.186 180.786,113.440 L180.786,97.598 L184.377,97.598 L184.377,113.480 C184.377,121.142 179.591,126.130 172.130,126.130 ZM143.049,109.929 C148.514,111.006 153.940,112.483 153.940,118.229 C153.940,123.137 149.870,126.130 142.890,126.130 C136.068,126.130 131.122,122.498 130.484,116.234 L134.033,116.234 C134.712,120.423 137.944,123.017 142.850,123.017 C147.358,123.017 150.190,121.381 150.190,118.428 C150.190,114.797 146.640,114.079 142.051,113.200 C136.986,112.243 131.201,110.966 131.201,105.021 C131.201,99.753 136.148,97.000 142.051,97.000 C148.235,97.000 153.182,100.233 153.820,106.696 L150.110,106.696 C149.511,102.506 146.401,100.152 141.932,100.152 C137.983,100.152 134.911,101.828 134.911,104.941 C134.911,108.412 138.661,109.091 143.049,109.929 ZM345.960,82.910 L343.862,82.910 L343.862,69.801 L345.960,69.801 L345.960,82.910 ZM367.371,82.910 L365.273,82.910 L365.273,69.801 L367.371,69.801 L367.371,82.910 Z"/>
    <path fill-rule="evenodd"  fill="rgb(76, 94, 100)"
          d="M405.182,118.069 C405.182,122.818 400.475,126.130 393.774,126.130 C387.072,126.130 382.364,122.818 382.364,118.069 C382.364,114.837 384.758,112.282 388.427,111.245 C385.077,110.168 382.922,107.814 382.922,104.781 C382.922,100.272 387.351,97.119 393.774,97.119 C400.156,97.119 404.623,100.272 404.623,104.781 C404.623,107.814 402.390,110.168 398.998,111.245 C402.749,112.282 405.182,114.837 405.182,118.069 ZM385.875,117.988 C385.875,121.063 389.145,123.336 393.774,123.336 C398.361,123.336 401.632,121.063 401.632,117.988 C401.632,114.957 398.361,112.722 393.774,112.722 C389.145,112.722 385.875,114.957 385.875,117.988 ZM401.193,104.861 C401.193,101.947 398.121,99.873 393.774,99.873 C389.425,99.873 386.314,101.947 386.314,104.861 C386.314,107.774 389.425,109.889 393.774,109.889 C398.121,109.889 401.193,107.774 401.193,104.861 ZM374.106,120.224 C372.072,123.935 368.202,126.130 363.335,126.130 C355.158,126.130 349.253,120.065 349.253,111.605 C349.253,103.065 355.238,97.000 363.655,97.000 C370.755,97.000 375.821,101.310 377.018,107.774 L373.307,107.774 C372.231,103.185 368.601,100.272 363.615,100.272 C357.271,100.272 352.883,104.941 352.883,111.605 C352.883,118.309 357.391,123.017 363.694,123.017 C369.239,123.017 373.348,119.347 374.026,114.119 L374.026,113.879 L364.052,113.879 L364.052,110.847 L377.217,110.847 L377.217,125.532 L374.106,125.532 L374.106,120.224 ZM341.992,125.532 L333.416,114.598 C333.296,114.638 333.176,114.638 333.016,114.638 L327.711,114.638 L327.711,125.532 L324.120,125.532 L324.120,97.598 L333.495,97.598 C340.037,97.598 344.066,100.830 344.066,106.098 C344.066,110.208 341.593,113.081 337.405,114.119 L346.340,125.532 L341.992,125.532 ZM340.476,106.138 C340.476,102.785 337.883,100.711 333.575,100.711 L327.711,100.711 L327.711,111.605 L333.575,111.605 C337.883,111.605 340.476,109.490 340.476,106.138 ZM132.153,162.999 L143.612,155.469 C144.740,154.673 145.660,153.920 146.413,153.084 C145.451,153.879 144.030,154.339 142.315,154.339 C136.083,154.339 131.692,150.115 131.692,145.303 C131.692,140.242 136.209,136.101 143.235,136.101 C149.926,136.101 154.778,139.949 154.778,145.345 C154.778,149.696 151.599,153.586 147.625,156.222 L137.840,162.664 L155.237,162.664 L155.237,166.011 L132.153,166.011 L132.153,162.999 ZM151.181,145.387 C151.181,141.789 147.918,139.238 143.235,139.238 C138.593,139.238 135.289,141.789 135.289,145.387 C135.289,148.943 138.593,151.495 143.235,151.495 C147.876,151.495 151.181,148.985 151.181,145.387 Z"/>
    <path fill-rule="evenodd"  fill="rgb(76, 94, 100)"
          d="M226.795,166.638 C219.393,166.638 214.123,160.238 214.123,151.370 C214.123,142.458 219.393,136.101 226.795,136.101 C234.197,136.101 239.425,142.458 239.425,151.370 C239.425,160.238 234.197,166.638 226.795,166.638 ZM226.795,139.405 C221.525,139.405 217.846,144.299 217.846,151.370 C217.846,158.397 221.525,163.291 226.795,163.291 C232.064,163.291 235.743,158.397 235.743,151.370 C235.743,144.299 232.064,139.405 226.795,139.405 ZM187.942,162.999 L199.401,155.469 C200.530,154.673 201.451,153.920 202.204,153.084 C201.242,153.879 199.820,154.339 198.105,154.339 C191.874,154.339 187.483,150.115 187.483,145.303 C187.483,140.242 192.000,136.101 199.025,136.101 C205.717,136.101 210.568,139.949 210.568,145.345 C210.568,149.696 207.390,153.586 203.417,156.222 L193.631,162.664 L211.028,162.664 L211.028,166.011 L187.942,166.011 L187.942,162.999 ZM206.971,145.387 C206.971,141.789 203.709,139.238 199.025,139.238 C194.384,139.238 191.080,141.789 191.080,145.387 C191.080,148.943 194.384,151.495 199.025,151.495 C203.668,151.495 206.971,148.985 206.971,145.387 ZM171.005,166.638 C163.603,166.638 158.333,160.238 158.333,151.370 C158.333,142.458 163.603,136.101 171.005,136.101 C178.406,136.101 183.634,142.458 183.634,151.370 C183.634,160.238 178.406,166.638 171.005,166.638 ZM171.005,139.405 C165.735,139.405 162.055,144.299 162.055,151.370 C162.055,158.397 165.735,163.291 171.005,163.291 C176.274,163.291 179.953,158.397 179.953,151.370 C179.953,144.299 176.274,139.405 171.005,139.405 Z"/>
</svg>