<svg width="24" height="25" viewBox="0 0 24 25" fill="none" xmlns="http://www.w3.org/2000/svg">
<rect y="0.861816" width="24" height="24" rx="4" fill="#DC7840"/>
<path fill-rule="evenodd" clip-rule="evenodd" d="M11.674 7.39779C11.2265 7.39832 10.7975 7.57633 10.481 7.89278C10.1646 8.20922 9.98655 8.63827 9.98602 9.08579C9.98602 10.0158 10.743 10.7728 11.674 10.7728C12.1214 10.7723 12.5503 10.5944 12.8667 10.2782C13.1831 9.96192 13.3612 9.53314 13.362 9.08579C13.3615 8.63827 13.1835 8.20922 12.867 7.89278C12.5506 7.57633 12.1215 7.39832 11.674 7.39779ZM11.674 13.1608C10.5935 13.1597 9.55752 12.7301 8.79338 11.9661C8.02924 11.2022 7.59935 10.1663 7.59802 9.08579C7.59882 8.00492 8.02848 6.96853 8.79267 6.20415C9.55687 5.43976 10.5932 5.00985 11.674 5.00879C12.7551 5.00958 13.7916 5.43938 14.556 6.20379C15.3204 6.96821 15.7502 8.00475 15.751 9.08579C15.7497 10.1665 15.3197 11.2025 14.5553 11.9665C13.791 12.7305 12.7547 13.16 11.674 13.1608ZM10.025 16.4858C9.18645 16.2948 8.38618 15.9635 7.65802 15.5058C7.38989 15.3371 7.19975 15.0688 7.12942 14.76C7.05909 14.4511 7.11435 14.1269 7.28302 13.8588C7.4517 13.5907 7.71999 13.4005 8.02886 13.3302C8.33773 13.2599 8.66189 13.3151 8.93002 13.4838C9.75289 13.9985 10.7039 14.2715 11.6745 14.2715C12.6451 14.2715 13.5962 13.9985 14.419 13.4838C14.6872 13.3151 15.0113 13.2599 15.3202 13.3302C15.6291 13.4005 15.8973 13.5907 16.066 13.8588C16.2347 14.1269 16.29 14.4511 16.2196 14.76C16.1493 15.0688 15.9592 15.3371 15.691 15.5058C14.9627 15.9632 14.1625 16.2945 13.324 16.4858L15.603 18.7658C15.7139 18.8768 15.8018 19.0085 15.8617 19.1534C15.9216 19.2983 15.9524 19.4537 15.9523 19.6105C15.9522 19.7673 15.9213 19.9226 15.8611 20.0675C15.801 20.2123 15.713 20.344 15.602 20.4548C15.4911 20.5656 15.3593 20.6535 15.2144 20.7135C15.0695 20.7734 14.9142 20.8042 14.7573 20.8041C14.6005 20.804 14.4452 20.773 14.3003 20.7129C14.1555 20.6528 14.0239 20.5648 13.913 20.4538L11.675 18.2138L9.43502 20.4538C9.21105 20.6778 8.90727 20.8036 8.59052 20.8036C8.27378 20.8036 7.97 20.6778 7.74602 20.4538C7.52205 20.2298 7.39622 19.926 7.39622 19.6093C7.39622 19.2925 7.52205 18.9888 7.74602 18.7648L10.025 16.4858Z" fill="white"/>
</svg>
