<svg width="24" height="25" viewBox="0 0 24 25" fill="none" xmlns="http://www.w3.org/2000/svg">
<rect y="0.861816" width="24" height="24" rx="4" fill="#73A8D7"/>
<path fill-rule="evenodd" clip-rule="evenodd" d="M18.9199 6.95083L4.74694 12.4168C3.77994 12.8048 3.78494 13.3448 4.57094 13.5848L8.10494 14.6888L9.45794 18.8348C9.62194 19.2888 9.54094 19.4688 10.0179 19.4688C10.3859 19.4688 10.5479 19.3008 10.7539 19.1008C10.8839 18.9738 11.6569 18.2208 12.5209 17.3818L16.1979 20.0988C16.8739 20.4718 17.3629 20.2788 17.5309 19.4708L19.9449 8.09683C20.1919 7.10683 19.5669 6.65683 18.9199 6.95083ZM8.65994 14.4348L16.6269 9.40883C17.0249 9.16683 17.3899 9.29683 17.0899 9.56283L10.2679 15.7178L10.0029 18.5508L8.65994 14.4348Z" fill="white"/>
</svg>
