<?xml version="1.0" encoding="utf-8"?>
<!-- Generator: Adobe Illustrator 26.1.0, SVG Export Plug-In . SVG Version: 6.00 Build 0)  -->
<svg version="1.1" id="Layer_1" xmlns="http://www.w3.org/2000/svg" xmlns:xlink="http://www.w3.org/1999/xlink" x="0px" y="0px"
	width="80px" viewBox="0 0 120 54.6" style="enable-background:new 0 0 120 54.6;" xml:space="preserve">
<style type="text/css">
	.st0{fill:#FA6400;}
	.st1{fill:#6E00BE;}
</style>
<path class="st0" d="M84.7,31.2h-5.1v22.9h6l7.6-15.5h0.1l-0.4,15.5H98V31.2h-6l-7.6,15.5h-0.1L84.7,31.2z M120,31.2h-14.6
	l-0.2,12.7c-0.1,3.9-0.7,5.3-2.8,5.3h-1.3v5h1.5c5.7,0,7.3-2.3,7.4-10.2l0.1-8.3h4.8v18.6h5.1V31.2z M0,54.1h5.3L5,38.9h0.1
	l5.7,15.2h5.3l5.7-15.2h0.1l-0.2,15.2h5.3V31.2h-7.2l-6.1,17h-0.1l-6.2-17H0V54.1z M68.4,49.6h-9.2v-4.3h9.2c1.6,0,2.4,0.7,2.4,2.1
	C70.8,48.9,69.9,49.6,68.4,49.6 M53.7,31.2v22.9h14.5c4.5,0,8-1.9,8-6.7c0-4.8-3.4-6.5-8-6.5h-9.1v-5.2h16.3v-4.6H53.7z M36.2,43.5
	v-1.7c0-5,1.2-6.7,4.2-6.7c2.9,0,4.2,1.7,4.2,6.7v1.7c0,5-1.2,6.7-4.2,6.7C37.4,50.2,36.2,48.6,36.2,43.5 M30.8,41.9v1.6
	c0,7.5,3,11.2,9.5,11.2c6.5,0,9.5-3.7,9.5-11.2v-1.6c0-7.5-3-11.2-9.5-11.2C33.8,30.7,30.8,34.4,30.8,41.9"/>
<path class="st1" d="M88.4,0.5h-5.7v22.9H89l13.4-16h0.1l-0.1,16h5.7V0.5h-6.2l-13.4,16h-0.1L88.4,0.5z M68.4,5v18.4h5.3V5h6.2V0.5
	H62.2V5H68.4z M45.9,0.5h-5.1v22.9h6l7.6-15.5h0.1l-0.4,15.5h5.1V0.5h-6L45.6,16h-0.1L45.9,0.5z M37.7,17.7l-5.3-2.3
	c-1.7,3-4.4,3.7-7.7,3.7c-5.4,0-8.2-2.4-8.2-6.9v-0.3c0-4.5,2.8-6.9,8.2-6.9c3.3,0,6,0.6,7.7,3.7l5.3-2.3C35.1,1,30,0,24.6,0
	c-8.7,0-14.1,4.5-14.1,11.5v0.9c0,7.1,5.4,11.5,14.1,11.5C30,23.9,35.1,22.9,37.7,17.7"/>
</svg>
