<svg width="36" height="18" viewBox="0 0 36 18" fill="none" xmlns="http://www.w3.org/2000/svg">
<path d="M10 3H8C4.68629 3 2 5.68629 2 9V9C2 12.3137 4.68629 15 8 15H10" stroke="#008264" stroke-width="2"/>
<path d="M0 7H7" stroke="#008264" stroke-width="2"/>
<path d="M0 11H7" stroke="#008264" stroke-width="2"/>
<path d="M34 15H27L29.4968 13.058C30.4614 12.3078 30.3717 10.823 29.3239 10.1943L28.9342 9.96052C27.4946 9.09677 26.8052 7.38096 27.2469 5.76129L27.3816 5.26759C27.7467 3.92879 28.9627 3 30.3504 3H30.9586C32.7137 3 34.2115 4.26883 34.5 6V6" stroke="#008264" stroke-width="2" stroke-linejoin="round"/>
<path d="M26.105 9.85046L34 8.5" stroke="#008264" stroke-width="2"/>
<path d="M21.5 3H16.9399C15.3162 3 14 4.31622 14 5.93987V5.93987C14 7.56351 15.3162 8.87974 16.9399 8.87974H19C20.6569 8.87974 22 10.2229 22 11.8797V12C22 13.6569 20.6569 15 19 15H13.5" stroke="#008264" stroke-width="2"/>
<rect x="17" width="2" height="3" fill="#008264"/>
<rect x="17" y="15" width="2" height="3" fill="#008264"/>
</svg>
