<svg width="44" height="44" viewBox="0 0 44 44" fill="none" xmlns="http://www.w3.org/2000/svg">
  <path
    d="M22.016 28.714C21.6135 28.714 21.2274 28.8739 20.9427 29.1586C20.6581 29.4432 20.4982 29.8293 20.4982 30.2319V33.2676C20.4982 33.6701 20.6581 34.0562 20.9427 34.3408C21.2274 34.6255 21.6135 34.7854 22.016 34.7854C22.4186 34.7854 22.8046 34.6255 23.0893 34.3408C23.3739 34.0562 23.5339 33.6701 23.5339 33.2676V30.2319C23.5339 29.8293 23.3739 29.4432 23.0893 29.1586C22.8046 28.8739 22.4186 28.714 22.016 28.714ZM23.4428 16.04C23.3342 15.7495 23.1393 15.4992 22.8842 15.3228C22.6291 15.1464 22.3261 15.0524 22.016 15.0534C21.7059 15.0524 21.4029 15.1464 21.1478 15.3228C20.8927 15.4992 20.6978 15.7495 20.5892 16.04L13 36.8193L14.5178 40.8568L22.1071 20.8971L29.6052 40.8568L31.1231 36.8648L23.4428 16.04ZM16.3545 20.29C16.5419 20.2916 16.7277 20.2555 16.9009 20.1837C17.2745 20.0379 17.5753 19.7501 17.7374 19.3832C17.8995 19.0163 17.9098 18.6002 17.766 18.2257C17.5663 17.6969 17.4635 17.1365 17.4625 16.5712C17.4631 15.903 17.6109 15.2432 17.8952 14.6384C18.1795 14.0337 18.5933 13.4989 19.1075 13.0721C19.6216 12.6453 20.2234 12.3369 20.8701 12.1688C21.5169 12.0006 22.1927 11.9768 22.8496 12.0992C23.5065 12.2215 24.1285 12.4869 24.6713 12.8765C25.2142 13.2662 25.6646 13.7706 25.9907 14.3538C26.3167 14.9371 26.5104 15.585 26.558 16.2515C26.6056 16.918 26.5059 17.5868 26.266 18.2105C26.183 18.3978 26.1387 18.6 26.1359 18.8048C26.133 19.0096 26.1717 19.2129 26.2495 19.4024C26.3274 19.5919 26.4428 19.7637 26.5888 19.9074C26.7348 20.0511 26.9083 20.1638 27.099 20.2386C27.2897 20.3135 27.4936 20.349 27.6984 20.3429C27.9031 20.3369 28.1046 20.2894 28.2905 20.2034C28.4765 20.1175 28.6431 19.9948 28.7804 19.8427C28.9176 19.6906 29.0227 19.5123 29.0892 19.3185C29.434 18.4438 29.6091 17.5115 29.6052 16.5712C29.6056 14.8217 29.0015 13.1257 27.8951 11.7704C26.7887 10.4151 25.2481 9.48371 23.5339 9.1338V5.94631C23.5339 5.54376 23.3739 5.15768 23.0893 4.87303C22.8046 4.58838 22.4186 4.42847 22.016 4.42847C21.6135 4.42847 21.2274 4.58838 20.9427 4.87303C20.6581 5.15768 20.4982 5.54376 20.4982 5.94631V9.1338C18.784 9.48371 17.2433 10.4151 16.1369 11.7704C15.0306 13.1257 14.4264 14.8217 14.4268 16.5712C14.4232 17.5114 14.5984 18.4437 14.9428 19.3185C15.0538 19.6062 15.2498 19.8533 15.5047 20.0268C15.7596 20.2003 16.0613 20.2921 16.3696 20.29H16.3545Z"
    fill="#008264"/>
</svg>
