<svg width="71" height="67" viewBox="0 0 71 67" fill="none" xmlns="http://www.w3.org/2000/svg">
<path d="M9.78125 36.4377L46.2044 9.12036" stroke="#333333" stroke-width="4.55289" stroke-linejoin="round"/>
<circle cx="7.58414" cy="38.2589" r="4.55289" stroke="#333333" stroke-width="4.55289" stroke-linejoin="round"/>
<circle cx="49.0841" cy="6.84391" r="4.55289" stroke="#333333" stroke-width="4.55289" stroke-linejoin="round"/>
<circle cx="29.131" cy="21.9348" r="4.55289" fill="#333333" stroke="#333333" stroke-width="4.55289" stroke-linejoin="round"/>
<path fill-rule="evenodd" clip-rule="evenodd" d="M42.022 18.3475C42.8479 18.2671 43.6847 18.2261 44.5304 18.2261C45.3761 18.2261 46.2128 18.2671 47.0387 18.3475L46.5977 22.879C45.9182 22.8129 45.2286 22.779 44.5304 22.779C43.8322 22.779 43.1426 22.8129 42.463 22.879L42.022 18.3475ZM32.4549 21.2467C33.9217 20.4611 35.4742 19.8139 37.0951 19.3228L38.4152 23.6801C37.0848 24.0832 35.8099 24.6145 34.6046 25.2601L32.4549 21.2467ZM51.9657 19.3228C53.5865 19.8139 55.1391 20.4611 56.6058 21.2467L54.4561 25.2601C53.2509 24.6145 51.9759 24.0832 50.6455 23.6801L51.9657 19.3228ZM24.7349 27.5875C25.7991 26.2922 26.988 25.1033 28.2833 24.0391L31.1736 27.5569C30.1074 28.4329 29.1287 29.4116 28.2527 30.4778L24.7349 27.5875ZM20.0186 36.3993C20.5097 34.7784 21.1569 33.2259 21.9425 31.7591L25.9559 33.9088C25.3103 35.1141 24.779 36.389 24.3759 37.7194L20.0186 36.3993ZM18.9219 43.8346C18.9219 42.9889 18.9629 42.1521 19.0433 41.3262L23.5748 41.7672C23.5087 42.4468 23.4748 43.1364 23.4748 43.8346C23.4748 44.6694 23.5232 45.492 23.6173 46.2999L19.095 46.8267C18.9806 45.8443 18.9219 44.8458 18.9219 43.8346ZM23.1921 57.9979C22.0917 56.3431 21.1782 54.5523 20.4823 52.6555L24.7565 51.0872C25.3278 52.6443 26.0782 54.1159 26.9833 55.4769L23.1921 57.9979ZM29.3724 64.477C28.5658 63.8838 27.7952 63.2444 27.0647 62.5629L30.1705 59.2338C30.7719 59.7949 31.4061 60.3211 32.0699 60.8092C32.5171 61.1382 33.9963 61.8978 34.4693 62.1911L32.0699 66.0604C31.4946 65.7037 30.4779 65.29 29.3724 64.477Z" fill="#333333"/>
<path d="M44.8248 32.2436C44.6479 30.3096 46.8183 29.0565 48.4048 30.1767L66.7469 43.1275C68.3691 44.2729 67.8495 46.8011 65.907 47.2139L57.6767 48.9626C57.2063 49.0626 56.7797 49.3089 56.458 49.6663L50.8283 55.9195C49.4997 57.3954 47.0503 56.5813 46.8695 54.6037L44.8248 32.2436Z" stroke="#333333" stroke-width="4.55289" stroke-linejoin="round"/>
</svg>
