<svg xmlns="http://www.w3.org/2000/svg" width="134.746" height="38" viewBox="0 0 134.746 38"><path id="Path_6" data-name="Path 6" d="M881.85,752.53c0,5.839-4.194,10.648-11.186,10.648a10.678,10.678,0,0,1-7.341-2.531v11.592h-4.794V742.181h4.794v2.233a10.671,10.671,0,0,1,7.341-2.533C877.656,741.881,881.85,746.69,881.85,752.53Zm-5.193,0c0-3.564-2.246-6.568-6.542-6.568a6.2,6.2,0,0,0-6.592,6.568c0,3.564,2.2,6.57,6.592,6.57C874.46,759.1,876.656,756.093,876.656,752.53Zm19.274-10.519-.9,4.25a5.446,5.446,0,0,0-1.9-.3c-2.9,0-5.292,1.5-5.292,5.366v11.551H883.1v-20.7h4.745v1.933a9.136,9.136,0,0,1,6.191-2.276A13.313,13.313,0,0,1,895.931,742.011Zm.7-5.412a2.8,2.8,0,1,1,2.8,2.405A2.615,2.615,0,0,1,896.631,736.6Zm.4,5.582h4.743v20.7h-4.743Zm26.107,9.016v11.68h-4.745V751.584c0-4.035-2.246-5.623-5.043-5.623-2.947,0-5.294,1.5-5.294,5.366v11.551h-4.745v-20.7h4.745v1.976a9.14,9.14,0,0,1,6.193-2.276C919.892,741.881,923.138,745.23,923.138,751.2Zm10.273,7.53a3.678,3.678,0,0,1-2.6.286c-1.049-.342-1.5-1.116-1.5-2.962V745.874h4.944v-3.693h-4.944v-5.453l-4.745,1.116v18.378c0,3.778,1.349,5.882,4.346,6.7a10.194,10.194,0,0,0,5.9-.442Zm36.3-7.53v11.68h-4.794V751.584c0-4.035-2.1-5.623-4.845-5.623-2.946,0-5.043,1.5-5.043,5.366v11.551h-4.745V751.584c0-4.035-2.246-5.623-5.043-5.623-2.947,0-4.895,1.5-4.895,5.366v11.551H935.6v-20.7h4.743v1.633a8.547,8.547,0,0,1,5.644-1.933c3.346,0,5.893,1.158,7.441,3.392a8.86,8.86,0,0,1,7.341-3.392C966.46,741.881,969.707,745.23,969.707,751.2Zm6.589,3.393c.7,2.576,2.9,4.509,6.392,4.509a6.43,6.43,0,0,0,5.492-2.577l4.346,1.8a11.43,11.43,0,0,1-9.837,4.851c-6.993,0-11.736-4.809-11.736-10.648s4.595-10.648,11.586-10.648,10.736,4.809,10.736,10.648a9.586,9.586,0,0,1-.2,2.061Zm-.1-3.865h12.186c-.5-2.7-2.248-4.765-5.843-4.765A6.055,6.055,0,0,0,976.195,750.726Z" transform="translate(-858.528 -734.238)" fill="#fff"/></svg>