<svg width="0" height="0" xmlns="http://www.w3.org/2000/svg">
    <symbol id="a" viewBox="0 0 32 27">
        <path d="M10.828-22.078a4.167,4.167,0,0,1,1.266,3.059A4.052,4.052,0,0,1,10.828-16a4.228,4.228,0,0,1-3.059,1.23A4.11,4.11,0,0,1,4.746-16a4.11,4.11,0,0,1-1.23-3.023,4.228,4.228,0,0,1,1.23-3.059A4.052,4.052,0,0,1,7.77-23.344,4.167,4.167,0,0,1,10.828-22.078Zm4.922,3.094a7.718,7.718,0,0,1-2.355,5.66,7.718,7.718,0,0,1-5.66,2.355L.07-5.414A5.717,5.717,0,0,1-1.863-1.547,5.857,5.857,0,0,1-5.906,0,5.82,5.82,0,0,1-7.875-.352a5.867,5.867,0,0,1-1.758-.984,5.773,5.773,0,0,1-1.3-1.512,6.073,6.073,0,0,1-.738-1.863L-15.75-6.328v-7.523l6.82,2.742a6.057,6.057,0,0,1,3.656-.844l4.992-7.1A7.913,7.913,0,0,1,2.109-24.68,7.66,7.66,0,0,1,7.734-27a8.07,8.07,0,0,1,4.043,1.055A7.589,7.589,0,0,1,14.7-23.027,8.07,8.07,0,0,1,15.75-18.984ZM-2.742-2.848A4.326,4.326,0,0,0-1.477-5.977,4.326,4.326,0,0,0-2.742-9.105a4.233,4.233,0,0,0-3.164-1.3,3.341,3.341,0,0,0-.914.141l1.828.7a3.432,3.432,0,0,1,1.9,1.9,3.412,3.412,0,0,1,.035,2.672,3.3,3.3,0,0,1-1.863,1.9,3.313,3.313,0,0,1-2.672,0,8.264,8.264,0,0,1-1.02-.387q-.738-.316-1.16-.457A4.119,4.119,0,0,0-5.906-1.547,4.233,4.233,0,0,0-2.742-2.848ZM11.531-15.223a5.238,5.238,0,0,0,1.547-3.8,5.12,5.12,0,0,0-1.547-3.762,5.162,5.162,0,0,0-3.8-1.547,5.421,5.421,0,0,0-2.672.7,5.038,5.038,0,0,0-1.969,1.934,5.36,5.36,0,0,0-.7,2.707,5.138,5.138,0,0,0,1.582,3.762,5.138,5.138,0,0,0,3.762,1.582A5.1,5.1,0,0,0,11.531-15.223Z" transform="translate(15.75 27)"/>
    </symbol>
    <symbol id="b" viewBox="0 0 30 32">
        <path d="M7.523-14.344A3.1,3.1,0,0,1,7.1-15.4q-.281-1.266.281-1.336a.319.319,0,0,1,.352.07,1.221,1.221,0,0,1,.246.387,3,3,0,0,1,.176.668,1.929,1.929,0,0,1,0,1.266.7.7,0,0,0-.316-.07A.7.7,0,0,0,7.523-14.344Zm-3.8.563a2.95,2.95,0,0,0-1.2-.281q-.352.07-.809.176t-.562.141a.32.32,0,0,1-.246-.035q0-.211.422-.492A2.057,2.057,0,0,1,2.6-14.7a2.654,2.654,0,0,1,.844.141,3.926,3.926,0,0,1,.527.316.86.86,0,0,1,.316.352q.07.176,0,.246T3.727-13.781Zm-.633.352a2.614,2.614,0,0,1,.633.07.671.671,0,0,1,.387.211q.105.141.07.211t-.316,0H3.445a2.874,2.874,0,0,0-.914.141q-.281.141-.352.07-.141-.211.141-.422A1.67,1.67,0,0,1,3.094-13.43Zm3.8,1.2a.473.473,0,0,1-.422.211.675.675,0,0,1-.492-.211.39.39,0,0,1-.07-.492.406.406,0,0,1,.422-.176.826.826,0,0,1,.492.246A.306.306,0,0,1,6.891-12.234Zm.738-1.125a.387.387,0,0,1,.387-.281.332.332,0,0,1,.352.281.927.927,0,0,1-.035.563.367.367,0,0,1-.352.281.367.367,0,0,1-.352-.281A.776.776,0,0,1,7.629-13.359ZM-7.383-8.086h.211q.07.07.07.105t0,.035a.658.658,0,0,1-.492.352.8.8,0,0,1-.668-.176,1.155,1.155,0,0,1-.387-.809,2.588,2.588,0,0,1,.141-.668A1.962,1.962,0,0,0-8.4-10.02a.709.709,0,0,0-.387-.527.866.866,0,0,0-.492-.141.936.936,0,0,0-.773.352q-.07.141-.141.316t-.105.281a.441.441,0,0,1-.105.176.2.2,0,0,1-.141.07.113.113,0,0,1-.105-.07,1.364,1.364,0,0,1-.07-.176.664.664,0,0,1-.035-.211,1.512,1.512,0,0,1,.035-.281,1.255,1.255,0,0,1,.105-.316q.07-.141.176-.316a1.635,1.635,0,0,1,.246-.316,1.125,1.125,0,0,1,1.125-.457,1.578,1.578,0,0,1,1.336.879A1.663,1.663,0,0,1-7.8-9.352q-.352.844-.141,1.055Q-7.8-8.016-7.383-8.086Zm21.094-1.2a.986.986,0,0,1,.773.457,2.1,2.1,0,0,1,.352,1.3A8.18,8.18,0,0,1,14.2-4.57,10.114,10.114,0,0,1,11.5-.738a11.646,11.646,0,0,1-3.938,2.32,13.341,13.341,0,0,1-4.57.7,14.942,14.942,0,0,1-4.605-.773A11.4,11.4,0,0,1-5.625-.879a11.319,11.319,0,0,1-2.812-3.9,4.726,4.726,0,0,1-3.129-1.23A4.542,4.542,0,0,1-13.219-9v-.562a5.061,5.061,0,0,1,.352-1.828l-1.055-.844a2.884,2.884,0,0,1-.949-2.391,7.808,7.808,0,0,1,.949-3.34,28.043,28.043,0,0,1,2.32-3.727,21.327,21.327,0,0,1,3.164-3.48,32.142,32.142,0,0,1,3.516-2.707,8.093,8.093,0,0,1,3.3-1.371,3.072,3.072,0,0,1,2.531.633l.422.387q.422.387.809.773l.387.387.914-.352a8.8,8.8,0,0,1,5.309-.738,2.523,2.523,0,0,1,2.215,2.637q0,2.109-2.391,4.57a3.445,3.445,0,0,1,.879,1.2,6.558,6.558,0,0,1,.457,1.406,9.519,9.519,0,0,1,.176,1.336q.035.633.035,1.2v.7a6.542,6.542,0,0,1,2.883,1.336,2.168,2.168,0,0,1,.211,3.023Q13.5-9.984,13.711-9.281ZM-8.508-5.906A2.126,2.126,0,0,0-6.434-7.1a4.631,4.631,0,0,0,.316-2.883,3.173,3.173,0,0,0-1.9-2.707,2.766,2.766,0,0,0-2.883.457,3.241,3.241,0,0,0-1.125,3.094,3.434,3.434,0,0,0,1.2,2.215A3.718,3.718,0,0,0-8.508-5.906Zm-1.336-8.016a21.231,21.231,0,0,1,6.609-9.352q.492-.352.984-.738t.949-.7q.457-.316.879-.6L.316-25.8q.316-.211.563-.352t.387-.211l.141-.07Q.141-27.984-.281-28.055a4.462,4.462,0,0,0-3.094.6,17.739,17.739,0,0,0-4.078,2.848,24.523,24.523,0,0,0-3.727,4.219q-3.445,4.922-2.32,7.031A4.967,4.967,0,0,0-12.375-12.3,3.718,3.718,0,0,1-9.844-13.922Zm16.8,7.1.07.141a6.781,6.781,0,0,1-4.992-.07q.07.773,1.125,1.2a7.094,7.094,0,0,0,4.219.176,13.069,13.069,0,0,0,4.781-2h.07v.07q-1.547,2.18-5.52,2.742t-5.168-1.2A1.994,1.994,0,0,1,1.406-7.8a1.391,1.391,0,0,1,1.547-.914,13.043,13.043,0,0,0,7.1-.914Q12.8-10.9,12.586-12.3a1.259,1.259,0,0,0-.352-.7,4.146,4.146,0,0,0-1.828-.844,4.591,4.591,0,0,1-.7-.211,1.028,1.028,0,0,1-.7-.984q0-.773-.07-1.969-.07-1.9-.844-2.391a1.028,1.028,0,0,0-.633-.211.624.624,0,0,0-.281.07,1.615,1.615,0,0,0-.984.492,3.725,3.725,0,0,1-2.391.844,4.887,4.887,0,0,0-.809-.105q-.527-.035-.809-.035l-.352-.07a3.05,3.05,0,0,0-2,.809,3.018,3.018,0,0,0-1.09,2,3.565,3.565,0,0,0,.07,1.582A4.2,4.2,0,0,0-.7-12.867a7.432,7.432,0,0,0,.738.914,4.257,4.257,0,0,1,.527.633.477.477,0,0,1,.141.352.405.405,0,0,1-.141.281A5.678,5.678,0,0,0-.844-7.98a5.84,5.84,0,0,0,.07,2.988,4.008,4.008,0,0,0,.211.7A5.682,5.682,0,0,0,2.953-1.23,8.19,8.19,0,0,0,8.3-1.266,13.986,13.986,0,0,0,9.773-1.9a9.077,9.077,0,0,0,2.18-1.617A6.761,6.761,0,0,0,13.781-7.1a1.631,1.631,0,0,0-.105-.949q-.176-.316-.352-.352a.751.751,0,0,0-.387.035,7.53,7.53,0,0,0-.492-1.758A10.356,10.356,0,0,1,8.859-8.3a17.1,17.1,0,0,1-3.023.527A8.1,8.1,0,0,1,3.762-7.8a3.046,3.046,0,0,0-1.09-.07.7.7,0,0,0-.562.563,10.625,10.625,0,0,0,1.371.352,10.506,10.506,0,0,0,1.336.176q.6.035,1.09.035a3.337,3.337,0,0,0,.773-.07ZM-3.727-20.391v0a.062.062,0,0,0,.07.07,10.081,10.081,0,0,1,1.16-.7q.668-.352,2.074-.914A7.524,7.524,0,0,1,2.391-22.5a25.905,25.905,0,0,1,3.445.281.062.062,0,0,0,.07-.07v-.07a5.657,5.657,0,0,0-2.883-.773h-.07v-.07a3.182,3.182,0,0,1,.563-.562.062.062,0,0,0-.07-.07A7.245,7.245,0,0,0,0-22.641H-.07a2.8,2.8,0,0,1,.352-.914v-.07H.211A13.616,13.616,0,0,0-3.727-20.391Z" transform="translate(14.872 29.292)"/>
    </symbol>
    <symbol id="c" viewBox="0 0 40 36">
        <path d="M18.914-22.922q.281.844.563,1.477l.422.949q.141.316.246.563t.141.352a.578.578,0,0,1,.035.176v.211a3.585,3.585,0,0,1-.492,1.2q-.281.492-.492.563-.07,0-.984.141A.859.859,0,0,1,17.3-17.93v-.316a1.307,1.307,0,0,0-.035-.316,1.707,1.707,0,0,0-.211-.422,2.32,2.32,0,0,0-.527-.562,2.534,2.534,0,0,0-.738-.527q-.387-.176-.844-.352a3.626,3.626,0,0,1-.668-.316,1.213,1.213,0,0,0-.352-.176.4.4,0,0,0-.281.035.818.818,0,0,0-.211.141q-.07.07-.211.246a1.844,1.844,0,0,0-.211.316,16.363,16.363,0,0,0-1.2,1.547q-.633.914-1.3,1.793t-1.16,1.512a30.83,30.83,0,0,0-2.391,3.375,2.677,2.677,0,0,0-.281.7q-.141.492-.281.914a2.938,2.938,0,0,0-.141.492,19.136,19.136,0,0,0-.492,2q-.281,1.371-.7,2.777A12.111,12.111,0,0,1,4.746-3.8a6.549,6.549,0,0,0-.246.984A7.683,7.683,0,0,0,4.219-.773a5.546,5.546,0,0,0,.211,2.18.775.775,0,0,0,.387.281,1.545,1.545,0,0,1,.457.281l.141.316q.141.316.316.668a1.692,1.692,0,0,1,.176.422.274.274,0,0,1-.176.281,1.865,1.865,0,0,1-.387.105L5.133,3.8a1.033,1.033,0,0,0-.281.246,1.719,1.719,0,0,0-.105.176.551.551,0,0,1-.105.141,3.642,3.642,0,0,1-1.3.141,2.1,2.1,0,0,1-1.23-.211q-.352-.211-.141-1.055a.759.759,0,0,0,.07-.527q-.07-.176-.141-.176H1.617a.783.783,0,0,1-.352-.07.988.988,0,0,1-.281-.7L.844,1.477A5.23,5.23,0,0,1,1.09-.211q.316-1.266.316-1.336a7.353,7.353,0,0,0,.141-2.039,5.084,5.084,0,0,1,0-1.266,3.649,3.649,0,0,1,.141-.457.979.979,0,0,0,.07-.211,1.754,1.754,0,0,1,.035-.211,2.184,2.184,0,0,0,.035-.422v-.809a7.765,7.765,0,0,1,0-1.477q.07-.7.105-.879A.751.751,0,0,0,1.9-9.7q-.281,0-1.793.176t-2.812.211a21.218,21.218,0,0,1-3.34-.246,10.182,10.182,0,0,1-2.426-.773,8.387,8.387,0,0,1-1.547-.914q-.527-.422-.6-.492a1.687,1.687,0,0,0-1.125-.035,1.307,1.307,0,0,0-.773.527,14.364,14.364,0,0,0-.668,1.336q-.6,1.266-1.3,2.777a14.458,14.458,0,0,0-.844,2.074,9.392,9.392,0,0,0,.281,4.711l.105.246q.105.246.281.6a1.98,1.98,0,0,0,.316.492.441.441,0,0,0,.176.105.887.887,0,0,1,.211.105,1.152,1.152,0,0,1,.176.141,4.8,4.8,0,0,1,.633,1.125q.352.563-.07.7a2.092,2.092,0,0,1-1.055.211q-.07,0-.105.141a.446.446,0,0,1-.105.211,1.864,1.864,0,0,1-.844.246,2.187,2.187,0,0,1-1.2-.105q-.422-.141-.492-.352,0-.07.035-.422t-.105-.422a.865.865,0,0,0-.352-.141,1.219,1.219,0,0,1-.492-.246,1.4,1.4,0,0,1-.352-.457,21.483,21.483,0,0,1-.141-3.516,11.645,11.645,0,0,0-.633-3.234,2.277,2.277,0,0,1,0-1.125.551.551,0,0,0,.105-.141l.07-.141a2.586,2.586,0,0,0,.105-.281,1.157,1.157,0,0,0,.07-.352.286.286,0,0,0-.211-.07q-.141,0-.141-.07-.352-2.531-.457-4.008a14.76,14.76,0,0,1-.07-1.758,6.768,6.768,0,0,0-.035-1.125q-.07-.352-.246-1.371t-.246-1.617a8.784,8.784,0,0,1,0-1.582,4.851,4.851,0,0,1,1.688-2.672,10.033,10.033,0,0,1,2.215-1.512,7.783,7.783,0,0,1,3.059-.316,30.493,30.493,0,0,1,5.906.984q.422.141,1.406.352a11.608,11.608,0,0,0,2.988.07,7.058,7.058,0,0,0,3.41-1.055,6.162,6.162,0,0,1,1.477-.7,3.489,3.489,0,0,0,.984-.422,15.128,15.128,0,0,0,1.2-.949q1.055-.879,2.6-2.039a17.538,17.538,0,0,1,2.391-1.582,10.624,10.624,0,0,1,2.145-1.055,5.273,5.273,0,0,1,1.582-.352,6.74,6.74,0,0,1,1.02.07q.457.07.527.07a3.328,3.328,0,0,0,.6-.949q.457-.879.6-.879t.176.387a4.263,4.263,0,0,1,0,.773,2.02,2.02,0,0,0,.035.668.391.391,0,0,0,.422.352l.773-.352a2.751,2.751,0,0,0,.492-.457,5.574,5.574,0,0,1,.527-.527.7.7,0,0,1,.387-.211q.352.211.035.809t-.844,1.477a4.34,4.34,0,0,0-.527,1.02l.352.633a6.465,6.465,0,0,1,.422,1.406q.211.773.316,1.09a1.2,1.2,0,0,0,.176.387,1.154,1.154,0,0,1,.176.352Q18.7-23.414,18.914-22.922Z" transform="translate(20.145 31.5)"/>
    </symbol>
    <symbol id="d" viewBox="0 0 33 36">
        <path d="M15.75-18.281l.281,1.969v1.969L14.273-11.25,11.531-5.766,7.594-.984,1.969,1.688.773,3.375l-.562.844-.7.281A31.47,31.47,0,0,1,.914,0L2.32.07,7.031-2.672.492-.773-3.445,1.758-4.992,3.727l-.492.141,1.477-5.2.492-.352,1.406.914L4.148-4.008,8.156-7.594l.984-4.781L.352-10.758l1.055-1.266-12.164-3.8,5.766-.7-11.672-8.648,8.086,1.266L-15.75-31.5,2.039-22.57l-2.18-2.672,8.719,5.2L-1.477-27l1.266,2.672-3.445-1.266L-6.891-31.5,6.82-22.922,3.8-26.859l7.594,6.82.844-.633-1.477-1.2.281-2.6,2.672-.773,2.039,1.758.844.281-.492.422.563.844-.914.563-.7,1.406Z" transform="translate(16.664 31.5)"/>
    </symbol>
    <symbol id="e" viewBox="0 0 41 32">
        <path d="M19.125-22.5a1.1,1.1,0,0,1,.809.316,1.1,1.1,0,0,1,.316.809v9a1.1,1.1,0,0,1-.316.809,1.1,1.1,0,0,1-.809.316H15.75v5.625a1.1,1.1,0,0,1-.316.809,1.1,1.1,0,0,1-.809.316H11.25V1.125A1.083,1.083,0,0,1,10.125,2.25H3.375A1.083,1.083,0,0,1,2.25,1.125V0a1.1,1.1,0,0,1,.316-.809,1.1,1.1,0,0,1,.809-.316h4.5V-4.5H-7.875v3.375h4.5a1.1,1.1,0,0,1,.809.316A1.1,1.1,0,0,1-2.25,0V1.125a1.1,1.1,0,0,1-.316.809,1.1,1.1,0,0,1-.809.316h-6.75a1.1,1.1,0,0,1-.809-.316,1.1,1.1,0,0,1-.316-.809V-4.5h-3.375a1.1,1.1,0,0,1-.809-.316,1.1,1.1,0,0,1-.316-.809V-11.25h-3.375a1.1,1.1,0,0,1-.809-.316,1.1,1.1,0,0,1-.316-.809v-9a1.1,1.1,0,0,1,.316-.809,1.1,1.1,0,0,1,.809-.316H-18a1.1,1.1,0,0,1,.809.316,1.1,1.1,0,0,1,.316.809v6.75H-13.5v-4.5a1.1,1.1,0,0,1,.316-.809,1.1,1.1,0,0,1,.809-.316h2.25v-4.5h-2.25a1.1,1.1,0,0,1-.809-.316,1.1,1.1,0,0,1-.316-.809v-2.25a1.1,1.1,0,0,1,.316-.809,1.1,1.1,0,0,1,.809-.316h1.125a1.1,1.1,0,0,1,.809.316,1.1,1.1,0,0,1,.316.809V-27h2.25a1.1,1.1,0,0,1,.809.316,1.1,1.1,0,0,1,.316.809V-22.5H6.75v-3.375a1.1,1.1,0,0,1,.316-.809A1.1,1.1,0,0,1,7.875-27h2.25v-1.125a1.1,1.1,0,0,1,.316-.809,1.1,1.1,0,0,1,.809-.316h1.125a1.1,1.1,0,0,1,.809.316,1.1,1.1,0,0,1,.316.809v2.25a1.1,1.1,0,0,1-.316.809,1.1,1.1,0,0,1-.809.316h-2.25v4.5h2.25a1.1,1.1,0,0,1,.809.316,1.1,1.1,0,0,1,.316.809v4.5h3.375v-6.75a1.1,1.1,0,0,1,.316-.809A1.1,1.1,0,0,1,18-22.5ZM12.375-7.875V-11.25h-2.25v-5.625H6.75v-2.25H-6.75v2.25h-3.375v5.625h-2.25v3.375ZM-3.375-15.75a1.1,1.1,0,0,1,.809.316,1.1,1.1,0,0,1,.316.809v3.375a1.1,1.1,0,0,1-.316.809,1.1,1.1,0,0,1-.809.316h-2.25a1.1,1.1,0,0,1-.809-.316,1.1,1.1,0,0,1-.316-.809v-3.375a1.1,1.1,0,0,1,.316-.809,1.1,1.1,0,0,1,.809-.316Zm9,0a1.1,1.1,0,0,1,.809.316,1.1,1.1,0,0,1,.316.809v3.375a1.1,1.1,0,0,1-.316.809,1.1,1.1,0,0,1-.809.316H3.375a1.1,1.1,0,0,1-.809-.316,1.1,1.1,0,0,1-.316-.809v-3.375a1.1,1.1,0,0,1,.316-.809,1.1,1.1,0,0,1,.809-.316Z" transform="translate(20.25 29.25)"/>
    </symbol>
    <symbol id="f" viewBox="0 0 34 32">
        <path d="M-4.676-1.371a.481.481,0,0,1,.018.105q0,.176-.369.3l-.686.211a2.258,2.258,0,0,1-.439.088q-.141,0-.176-.229t-.105-.633q-.123-.844-.211-1.248-2.637.914-7.242,2.268a4.2,4.2,0,0,0-1.477.615.645.645,0,0,1-.4.211q-.193,0-.352-.4a11.36,11.36,0,0,1-.65-2.039,27.047,27.047,0,0,0,3.92-.686l1.512-.352v-8h-2.268v1.547q0,.334-.281.334h-1.2q-.316,0-.316-.334l.07-6.187v-2.953l-.07-3.973q0-.281.316-.281l3.2.07h.545v-2.2a30.136,30.136,0,0,0-.246-4.57,13.754,13.754,0,0,1,2,.193q.4.053.4.281a1.294,1.294,0,0,1-.07.334q-.088.264-.123.387a18.738,18.738,0,0,0-.176,3.34v2.232h.58l3.287-.07a.249.249,0,0,1,.281.281l-.07,3.533v3.146l.07,6.188a.249.249,0,0,1-.281.281h-1.2a.249.249,0,0,1-.281-.281v-1.3H-9.545v7.488q1.072-.281,2.531-.756-.369-1.547-.879-3.023a.516.516,0,0,1-.018-.123q0-.123.475-.264l.563-.193a1.307,1.307,0,0,1,.316-.07q.141,0,.193.211A34.179,34.179,0,0,1-4.676-1.371ZM-7.154-12.85v-8.385H-9.58v8.385Zm-4.148,0v-8.385h-2.3v8.385Zm21.85-6.258q0,.176-.316.281a2.9,2.9,0,0,0-.9.51q-.809.58-1.617,1.072,1.406.65,2.373,1.16.211.123.211.193a.6.6,0,0,1-.141.281l-.51.668q-.176.246-.281.246a.875.875,0,0,1-.246-.088Q7.7-15.609,6.082-16.365A30.44,30.44,0,0,1,1.16-14.572a2.623,2.623,0,0,1-.492.105q-.193,0-.439-.4a3.077,3.077,0,0,0-.721-.773A33.491,33.491,0,0,0,4.43-17.121q-1.2-.545-3.164-1.266-.176-.07-.176-.158a.674.674,0,0,1,.176-.281l.439-.492q.211-.264.316-.264a.405.405,0,0,1,.141.035q2.584.932,4.043,1.582a15.668,15.668,0,0,0,1.934-1.248,4.966,4.966,0,0,0,.932-.932,11.845,11.845,0,0,1,1.16.633Q10.547-19.266,10.547-19.107ZM14.59-12.85a.249.249,0,0,1-.281.281l-4.8-.07H1.547l-4.729.07a.249.249,0,0,1-.281-.281l.088-2.812v-3.129l-.088-2.848a.249.249,0,0,1,.281-.281l4.729.07H9.51l4.8-.07a.249.249,0,0,1,.281.281L14.5-18.791v3.129Zm-1.951-1.3v-6.187H-1.547v6.188ZM11.865-2.092a3.846,3.846,0,0,0-.123.932,1.245,1.245,0,0,1-.105.686,1.488,1.488,0,0,1-.615.3Q8,.844,5.168,1.512a6.263,6.263,0,0,0-1.406.439.76.76,0,0,1-.387.176q-.229,0-.369-.4Q2.83,1.2,2.566.07A15.636,15.636,0,0,0,4.447-.141V-8.279a20.487,20.487,0,0,0-.211-3.5,13.267,13.267,0,0,1,1.934.229q.387.053.387.246a2.457,2.457,0,0,1-.211.65,9.9,9.9,0,0,0-.141,2.3V-.51A48.125,48.125,0,0,0,11.865-2.092ZM3.2-2.2a4.3,4.3,0,0,0-.141.984,1.356,1.356,0,0,1-.105.7,1.56,1.56,0,0,1-.58.264Q-1.055.861-3.27,1.371a4.807,4.807,0,0,0-1.371.475,2.84,2.84,0,0,1-.4.176q-.193,0-.352-.439Q-5.625.844-5.836-.105A14.606,14.606,0,0,0-3.41-.4l.316-.07v-7.8a20.487,20.487,0,0,0-.211-3.5,16.652,16.652,0,0,1,2,.229q.352.053.352.246a1.862,1.862,0,0,1-.176.65A8.573,8.573,0,0,0-1.3-8.35V-.861A45.272,45.272,0,0,0,3.2-2.2Zm14.115-.58a11.623,11.623,0,0,1-.949,4.043,1.549,1.549,0,0,1-1.389.9q-.826,0-1.617-1.389A8.457,8.457,0,0,1,12.428-1.9a42.053,42.053,0,0,1-1-6.961q-.053-1.477-.229-2.883a15.021,15.021,0,0,1,1.934.229q.4.053.4.281a2.327,2.327,0,0,1-.211.686A3,3,0,0,0,13.166-9.4q0,.229.018.51a32.441,32.441,0,0,0,.791,6.223,12.4,12.4,0,0,0,.6,1.951q.316.756.51.756.4,0,.809-4.5a3.639,3.639,0,0,0,1.037.861q.422.264.422.545A1.512,1.512,0,0,1,17.314-2.777Zm-2.988-20.76q.123.105.123.176,0,.123-.3.281l-.791.475a1.145,1.145,0,0,1-.4.158.29.29,0,0,1-.211-.123,20.382,20.382,0,0,0-3.463-3.322q-.316-.264-.316-.387,0-.176.281-.4a16.753,16.753,0,0,0,1.986-2.039,5.021,5.021,0,0,0,.721-1.266q.773.246,1.67.615.352.158.352.352,0,.211-.316.4a4.634,4.634,0,0,0-.791.721,19.192,19.192,0,0,1-1.705,1.617A22.144,22.144,0,0,1,14.326-23.537Zm-6.732,0q.123.123.123.193,0,.141-.334.3l-.861.439a1.447,1.447,0,0,1-.4.141.283.283,0,0,1-.211-.141,22.429,22.429,0,0,0-3.023-3.287q-.281-.281-.281-.422,0-.105.281-.4A13.042,13.042,0,0,0,4.8-28.758a4.391,4.391,0,0,0,.65-1.2q1.125.352,1.652.58.387.141.387.352,0,.193-.352.4a4.622,4.622,0,0,0-.861.826q-.6.668-1.512,1.547A20.106,20.106,0,0,1,7.594-23.537ZM1.3-29.021q0,.211-.316.4a6.359,6.359,0,0,0-.914.826,19.476,19.476,0,0,1-1.582,1.547A16.251,16.251,0,0,1,1.2-23.572a.354.354,0,0,1,.105.211q0,.105-.281.246l-.949.475a.873.873,0,0,1-.352.141q-.088,0-.211-.141a18.578,18.578,0,0,0-2.865-3.252q-.316-.264-.316-.422,0-.123.316-.4a14.128,14.128,0,0,0,1.881-2,6.836,6.836,0,0,0,.721-1.23q.984.316,1.617.58Q1.3-29.18,1.3-29.021ZM10.67-3.814l-.51.65q-.211.264-.316.264-.07,0-.193-.123A14.24,14.24,0,0,0,6.926-5.115q-.193-.105-.193-.193a.5.5,0,0,1,.158-.264l.492-.58q.158-.176.264-.176a.54.54,0,0,1,.211.07,16.6,16.6,0,0,1,2.795,1.969q.141.141.141.211A.664.664,0,0,1,10.67-3.814Zm.281-4.746q.141.105.141.193a.545.545,0,0,1-.176.3l-.475.545q-.211.281-.316.281-.088,0-.211-.141A14.083,14.083,0,0,0,7.137-9.51q-.193-.105-.193-.193t.193-.3l.422-.51q.158-.176.229-.176a.612.612,0,0,1,.246.105A14.847,14.847,0,0,1,10.951-8.561ZM3.5-8.684q.141.123.141.211a.807.807,0,0,1-.176.334l-.4.51q-.229.3-.334.3-.07,0-.193-.123A18.507,18.507,0,0,0-.141-9.58q-.193-.105-.193-.193a.5.5,0,0,1,.158-.264l.439-.475q.193-.229.281-.229a.388.388,0,0,1,.176.088A16.533,16.533,0,0,1,3.5-8.684Zm-.4,4.764L2.637-3.3q-.193.246-.281.246A.384.384,0,0,1,2.127-3.2,17.008,17.008,0,0,0-.492-5.256q-.176-.105-.176-.176,0-.088.246-.369l.352-.422q.211-.246.3-.246a.468.468,0,0,1,.211.088A19.924,19.924,0,0,1,3.111-4.43q.158.158.158.229A.862.862,0,0,1,3.094-3.92Z" transform="translate(16.77 29.988)"/>
    </symbol>
    <symbol id="g" viewBox="0 0 45 36">
        <path d="M21.445-29.672a4.934,4.934,0,0,1,1.125,3.164,4.641,4.641,0,0,1-.422,1.969l-4.43,11.32a1.151,1.151,0,0,1,.352.844v2.25a1.1,1.1,0,0,1-.316.809A1.1,1.1,0,0,1,16.945-9H15.68l.035.035.035.035a7.579,7.579,0,0,1,2.32,5.555A7.748,7.748,0,0,1,17.016.563a7.815,7.815,0,0,1-2.848,2.883A7.69,7.69,0,0,1,10.2,4.5,7.614,7.614,0,0,1,5.027,2.566,7.384,7.384,0,0,1,2.461-2.25H-2.32A7.384,7.384,0,0,1-4.887,2.566,7.614,7.614,0,0,1-10.055,4.5a7.6,7.6,0,0,1-5.59-2.285,7.6,7.6,0,0,1-2.285-5.59,7.579,7.579,0,0,1,2.32-5.555l.035-.035L-15.539-9H-16.8a1.1,1.1,0,0,1-.809-.316,1.1,1.1,0,0,1-.316-.809v-2.25a1.151,1.151,0,0,1,.352-.844l-4.5-11.391a5.244,5.244,0,0,1-.352-1.9,4.8,4.8,0,0,1,1.477-3.516A4.8,4.8,0,0,1-17.437-31.5a5.569,5.569,0,0,1,.914.07l10.477,1.969h.633a4.291,4.291,0,0,1,2.672-.914H2.883a4.589,4.589,0,0,1,2.742.914h.563L16.664-31.43a6.491,6.491,0,0,1,.914-.07A4.732,4.732,0,0,1,21.445-29.672ZM-11.18.984V-2.25h-3.234a4.262,4.262,0,0,0,1.16,2.074A4.262,4.262,0,0,0-11.18.984Zm0-5.484V-7.734a4,4,0,0,0-1.09.457,4.9,4.9,0,0,0-.949.738,4.9,4.9,0,0,0-.738.949,4,4,0,0,0-.457,1.09Zm-2.883-9h6.82V-26.086q0-.141.07-.141l-9.984-1.9h-.281a1.549,1.549,0,0,0-1.125.492,1.549,1.549,0,0,0-.492,1.125,1.4,1.4,0,0,0,.141.633ZM-8.93.984A4.262,4.262,0,0,0-6.855-.176,4.262,4.262,0,0,0-5.7-2.25H-8.93Zm0-5.484H-5.7a4.262,4.262,0,0,0-1.16-2.074A4.262,4.262,0,0,0-8.93-7.734Zm12.938-9V-25.875a1.1,1.1,0,0,0-.316-.809A1.1,1.1,0,0,0,2.883-27H-2.742a1.1,1.1,0,0,0-.809.316,1.1,1.1,0,0,0-.316.809V-13.5ZM9.07.984V-2.25H5.836A4.262,4.262,0,0,0,7-.176,4.262,4.262,0,0,0,9.07.984Zm0-5.484V-7.734A4.262,4.262,0,0,0,7-6.574,4.262,4.262,0,0,0,5.836-4.5ZM11.32.984a4.262,4.262,0,0,0,2.074-1.16,4.262,4.262,0,0,0,1.16-2.074H11.32Zm0-5.484h3.234a4.749,4.749,0,0,0-.668-1.441,4.28,4.28,0,0,0-1.125-1.125,4.749,4.749,0,0,0-1.441-.668Zm7.734-21.3a1.47,1.47,0,0,0-.211-1.687,1.533,1.533,0,0,0-1.266-.633H17.3l-9.984,1.9q.07,0,.07.141V-13.5H14.2Z" transform="translate(22.43 31.5)"/>
    </symbol>
    <symbol id="h" viewBox="0 0 32 36">
        <path d="M6.4-6.75a9.066,9.066,0,0,1,6.645,2.777A9.066,9.066,0,0,1,15.82,2.672,1.8,1.8,0,0,1,13.992,4.5H-13.852a1.767,1.767,0,0,1-1.3-.527,1.767,1.767,0,0,1-.527-1.3A9.066,9.066,0,0,1-12.9-3.973,9.066,9.066,0,0,1-6.258-6.75a10.351,10.351,0,0,1,2.672.563A12.375,12.375,0,0,0,.07-5.625a12.375,12.375,0,0,0,3.656-.562A10.351,10.351,0,0,1,6.4-6.75ZM-12.094,1.125H12.234A6.265,6.265,0,0,0,11-1.125,6.3,6.3,0,0,0,8.895-2.777a5.66,5.66,0,0,0-2.5-.6,20.923,20.923,0,0,0-2.215.563A15.148,15.148,0,0,1,.07-2.25a15.148,15.148,0,0,1-4.113-.562,20.923,20.923,0,0,0-2.215-.562A5.824,5.824,0,0,0-9.879-2.039,5.933,5.933,0,0,0-12.094,1.125Zm3.234-19.758a16.273,16.273,0,0,1-2.531-1.336,13.2,13.2,0,0,1-1.9-1.441,13.7,13.7,0,0,1-1.266-1.371q-.562-.7-.738-.984a2.391,2.391,0,0,1-.246-.492.866.866,0,0,1-.141-.492,1.1,1.1,0,0,1,.316-.809,1.1,1.1,0,0,1,.809-.316,1.1,1.1,0,0,1,.984.563l.07.07a2.094,2.094,0,0,0,.281.211q.211.141.492.316a6.82,6.82,0,0,0,.738.387q.457.211.984.422t1.23.422q.7.211,1.547.422Q-6.469-31.5-3.656-31.5a3.373,3.373,0,0,1,1.969.7,2.748,2.748,0,0,0,1.793.633A3.034,3.034,0,0,0,1.969-30.8a3.077,3.077,0,0,1,1.9-.7q2.813,0,4.641,8.367,3.867-.914,5.344-2.32a1.065,1.065,0,0,1,.844-.422,1.1,1.1,0,0,1,.809.316,1.1,1.1,0,0,1,.316.809.866.866,0,0,1-.141.492,12.346,12.346,0,0,1-.668,1.125,13.268,13.268,0,0,1-2.145,2.18A14.108,14.108,0,0,1,9-18.562a1.481,1.481,0,0,0,.035.246A1.63,1.63,0,0,1,9.07-18a8.671,8.671,0,0,1-2.637,6.363A8.671,8.671,0,0,1,.07-9a8.671,8.671,0,0,1-6.363-2.637A8.671,8.671,0,0,1-8.93-18a2.21,2.21,0,0,1,.035-.352A2.157,2.157,0,0,0-8.859-18.633ZM.07-16.875H-.07a23.413,23.413,0,0,1-5.414-.633,5.574,5.574,0,0,0,1.793,3.656A5.325,5.325,0,0,0,.07-12.375a5.325,5.325,0,0,0,3.762-1.477,5.574,5.574,0,0,0,1.793-3.656,23.413,23.413,0,0,1-5.414.633Z" transform="translate(15.68 31.5)"/>
    </symbol>
    <symbol id="str" viewBox="0 0 16 16">
        <path d="M2.516-11.484A7.47,7.47,0,0,1,8-13.75a7.47,7.47,0,0,1,5.484,2.266A7.47,7.47,0,0,1,15.75-6,7.47,7.47,0,0,1,13.484-.516,7.47,7.47,0,0,1,8,1.75,7.47,7.47,0,0,1,2.516-.516,7.47,7.47,0,0,1,.25-6,7.47,7.47,0,0,1,2.516-11.484ZM3.578-1.578A6.024,6.024,0,0,0,8,.25a6.024,6.024,0,0,0,4.422-1.828A6.024,6.024,0,0,0,14.25-6a6.024,6.024,0,0,0-1.828-4.422A6.024,6.024,0,0,0,8-12.25a6.024,6.024,0,0,0-4.422,1.828A6.024,6.024,0,0,0,1.75-6,6.024,6.024,0,0,0,3.578-1.578Zm8.484-4.609a.345.345,0,0,1,0,.531L8.25-1.875a.293.293,0,0,1-.5,0L3.938-5.656a.345.345,0,0,1,0-.531l.625-.625a.345.345,0,0,1,.531,0L7.188-4.594V-9.625A.331.331,0,0,1,7.563-10h.875a.331.331,0,0,1,.375.375v5.031l2.094-2.219a.345.345,0,0,1,.531,0Z" transform="translate(-0.25 13.75)"/>
    </symbol>
</svg>