<svg width="0" height="0" xmlns="http://www.w3.org/2000/svg">
    <symbol id="check" viewBox="0 0 512 512">
        <path d="M504 256c0 136.967-111.033 248-248 248S8 392.967 8 256 119.033 8 256 8s248 111.033 248 248zM227.314 387.314l184-184c6.248-6.248 6.248-16.379 0-22.627l-22.627-22.627c-6.248-6.249-16.379-6.249-22.628 0L216 308.118l-70.059-70.059c-6.248-6.248-16.379-6.248-22.628 0l-22.627 22.627c-6.248 6.248-6.248 16.379 0 22.627l104 104c6.249 6.249 16.379 6.249 22.628.001z"/>
    </symbol>
    <symbol id="minus" viewBox="0 0 512 512">
        <path d="M256 8C119 8 8 119 8 256s111 248 248 248 248-111 248-248S393 8 256 8zM124 296c-6.6 0-12-5.4-12-12v-56c0-6.6 5.4-12 12-12h264c6.6 0 12 5.4 12 12v56c0 6.6-5.4 12-12 12H124z"/>
    </symbol>
    <symbol id="home" viewBox="0 0 576 512">
        <path d="M570.69,236.27,512,184.44V48a16,16,0,0,0-16-16H432a16,16,0,0,0-16,16V99.67L314.78,10.3C308.5,4.61,296.53,0,288,0s-20.46,4.61-26.74,10.3l-256,226A18.27,18.27,0,0,0,0,248.2a18.64,18.64,0,0,0,4.09,10.71L25.5,282.7a21.14,21.14,0,0,0,12,5.3,21.67,21.67,0,0,0,10.69-4.11l15.9-14V480a32,32,0,0,0,32,32H480a32,32,0,0,0,32-32V269.88l15.91,14A21.94,21.94,0,0,0,538.63,288a20.89,20.89,0,0,0,11.87-5.31l21.41-23.81A21.64,21.64,0,0,0,576,248.19,21,21,0,0,0,570.69,236.27ZM288,176a64,64,0,1,1-64,64A64,64,0,0,1,288,176ZM400,448H176a16,16,0,0,1-16-16,96,96,0,0,1,96-96h64a96,96,0,0,1,96,96A16,16,0,0,1,400,448Z"/>
    </symbol>
    <symbol id="paint" viewBox="0 0 512 512">
        <path d="M167.02 309.34c-40.12 2.58-76.53 17.86-97.19 72.3-2.35 6.21-8 9.98-14.59 9.98-11.11 0-45.46-27.67-55.25-34.35C0 439.62 37.93 512 128 512c75.86 0 128-43.77 128-120.19 0-3.11-.65-6.08-.97-9.13l-88.01-73.34zM457.89 0c-15.16 0-29.37 6.71-40.21 16.45C213.27 199.05 192 203.34 192 257.09c0 13.7 3.25 26.76 8.73 38.7l63.82 53.18c7.21 1.8 14.64 3.03 22.39 3.03 62.11 0 98.11-45.47 211.16-256.46 7.38-14.35 13.9-29.85 13.9-45.99C512 20.64 486 0 457.89 0z"/>
    </symbol>
    <symbol id="anchor" viewBox="0 0 576 512">
        <path d="M12.971 352h32.394C67.172 454.735 181.944 512 288 512c106.229 0 220.853-57.38 242.635-160h32.394c10.691 0 16.045-12.926 8.485-20.485l-67.029-67.029c-4.686-4.686-12.284-4.686-16.971 0l-67.029 67.029c-7.56 7.56-2.206 20.485 8.485 20.485h35.146c-20.29 54.317-84.963 86.588-144.117 94.015V256h52c6.627 0 12-5.373 12-12v-40c0-6.627-5.373-12-12-12h-52v-5.47c37.281-13.178 63.995-48.725 64-90.518C384.005 43.772 341.605.738 289.37.01 235.723-.739 192 42.525 192 96c0 41.798 26.716 77.35 64 90.53V192h-52c-6.627 0-12 5.373-12 12v40c0 6.627 5.373 12 12 12h52v190.015c-58.936-7.399-123.82-39.679-144.117-94.015h35.146c10.691 0 16.045-12.926 8.485-20.485l-67.029-67.029c-4.686-4.686-12.284-4.686-16.971 0L4.485 331.515C-3.074 339.074 2.28 352 12.971 352zM288 64c17.645 0 32 14.355 32 32s-14.355 32-32 32-32-14.355-32-32 14.355-32 32-32z"/>
    </symbol>
    <symbol id="people" viewBox="0 0 640 512">
        <path d="M128 96c26.5 0 48-21.5 48-48S154.5 0 128 0 80 21.5 80 48s21.5 48 48 48zm384 0c26.5 0 48-21.5 48-48S538.5 0 512 0s-48 21.5-48 48 21.5 48 48 48zm125.7 372.1l-44-110-41.1 46.4-2 18.2 27.7 69.2c5 12.5 17 20.1 29.7 20.1 4 0 8-.7 11.9-2.3 16.4-6.6 24.4-25.2 17.8-41.6zm-34.2-209.8L585 178.1c-4.6-20-18.6-36.8-37.5-44.9-18.5-8-39-6.7-56.1 3.3-22.7 13.4-39.7 34.5-48.1 59.4L432 229.8 416 240v-96c0-8.8-7.2-16-16-16H240c-8.8 0-16 7.2-16 16v96l-16.1-10.2-11.3-33.9c-8.3-25-25.4-46-48.1-59.4-17.2-10-37.6-11.3-56.1-3.3-18.9 8.1-32.9 24.9-37.5 44.9l-18.4 80.2c-4.6 20 .7 41.2 14.4 56.7l67.2 75.9 10.1 92.6C130 499.8 143.8 512 160 512c1.2 0 2.3-.1 3.5-.2 17.6-1.9 30.2-17.7 28.3-35.3l-10.1-92.8c-1.5-13-6.9-25.1-15.6-35l-43.3-49 17.6-70.3 6.8 20.4c4.1 12.5 11.9 23.4 24.5 32.6l51.1 32.5c4.6 2.9 12.1 4.6 17.2 5h160c5.1-.4 12.6-2.1 17.2-5l51.1-32.5c12.6-9.2 20.4-20 24.5-32.6l6.8-20.4 17.6 70.3-43.3 49c-8.7 9.9-14.1 22-15.6 35l-10.1 92.8c-1.9 17.6 10.8 33.4 28.3 35.3 1.2.1 2.3.2 3.5.2 16.1 0 30-12.1 31.8-28.5l10.1-92.6 67.2-75.9c13.6-15.5 19-36.7 14.4-56.7zM46.3 358.1l-44 110c-6.6 16.4 1.4 35 17.8 41.6 16.8 6.6 35.1-1.7 41.6-17.8l27.7-69.2-2-18.2-41.1-46.4z"/>
    </symbol>
    <symbol id="cat" viewBox="0 0 27 24">
        <path d="M25.5-19.466V-19.5l-.019.019A7.433,7.433,0,0,0,21-21a7.433,7.433,0,0,0-4.481,1.519L16.5-19.5v.034a7.463,7.463,0,0,0-3,5.966,9.021,9.021,0,0,0,.182,1.608A8.813,8.813,0,0,0,7.5-7.971V-12A4.509,4.509,0,0,0,3-16.5,1.5,1.5,0,0,0,1.5-15,1.5,1.5,0,0,0,3-13.5,1.5,1.5,0,0,1,4.5-12V0a3.005,3.005,0,0,0,3,3h8.25a.75.75,0,0,0,.75-.75h0V1.5A1.5,1.5,0,0,0,15,0H13.5l6-4.5V2.25h0a.75.75,0,0,0,.75.75h1.5a.75.75,0,0,0,.75-.75h0v-8.4a7.82,7.82,0,0,0,6-7.349A7.463,7.463,0,0,0,25.5-19.466ZM21-19.5a6.977,6.977,0,0,1,3.419,1.081L22.5-16.5h-3l-1.919-1.919A6.977,6.977,0,0,1,21-19.5Zm2.625,6a.75.75,0,0,1-.75.75.75.75,0,0,1-.75-.75.75.75,0,0,1,.75-.75h0a.75.75,0,0,1,.75.75Zm-3.75,0a.75.75,0,0,1-.75.75.75.75,0,0,1-.75-.75.75.75,0,0,1,.75-.75h0a.75.75,0,0,1,.75.75ZM21-7.5a6.012,6.012,0,0,1-6-6,5.948,5.948,0,0,1,1.5-3.926V-13.5A4.5,4.5,0,0,0,21-9a4.5,4.5,0,0,0,4.5-4.5v-3.926A5.948,5.948,0,0,1,27-13.5,6.012,6.012,0,0,1,21-7.5ZM7.638-17.776,9.5-17l.776,1.861A.273.273,0,0,0,10.5-15a.273.273,0,0,0,.224-.139L11.5-17l1.862-.776A.274.274,0,0,0,13.5-18a.274.274,0,0,0-.138-.224L11.5-19l-.776-1.862A.273.273,0,0,0,10.5-21a.273.273,0,0,0-.224.139L9.5-19l-1.861.776A.274.274,0,0,0,7.5-18,.274.274,0,0,0,7.638-17.776Z" transform="translate(-1.5 21)"/>
    </symbol>
    <symbol id="over" viewBox="0 0 384 512">
        <path d="M293.7 300l-181.2-84.5 16.7-36.5 181.3 84.7-16.8 36.3zm48-76L188.2 95.7l-25.5 30.8 153.5 128.3 25.5-30.8zm39.6-31.7L262 32l-32 24 119.3 160.3 32-24zM290.7 311L95 269.7 86.8 309l195.7 41 8.2-39zm31.6 129H42.7V320h-40v160h359.5V320h-40v120zm-39.8-80h-200v39.7h200V360z"/>
    </symbol>
    <symbol id="close" viewBox="0 0 352 512">
        <path d="M242.72 256l100.07-100.07c12.28-12.28 12.28-32.19 0-44.48l-22.24-22.24c-12.28-12.28-32.19-12.28-44.48 0L176 189.28 75.93 89.21c-12.28-12.28-32.19-12.28-44.48 0L9.21 111.45c-12.28 12.28-12.28 32.19 0 44.48L109.28 256 9.21 356.07c-12.28 12.28-12.28 32.19 0 44.48l22.24 22.24c12.28 12.28 32.2 12.28 44.48 0L176 322.72l100.07 100.07c12.28 12.28 32.2 12.28 44.48 0l22.24-22.24c12.28-12.28 12.28-32.19 0-44.48L242.72 256z"/>
    </symbol>
    <symbol id="hands" viewBox="0 0 30 23">
        <path d="M13.246-7.393A1.154,1.154,0,0,1,12.167-8.1a1.681,1.681,0,0,0-.616-.687,1.607,1.607,0,0,0-.873-.25,1.583,1.583,0,0,0-1.162.481,1.583,1.583,0,0,0-.481,1.162A1.474,1.474,0,0,0,9.5-6.251l.128.1a1.507,1.507,0,0,0,1.052.4A1.607,1.607,0,0,0,11.551-6a1.681,1.681,0,0,0,.616-.687A1.154,1.154,0,0,1,13.246-7.393Zm7.29-1.643a1.474,1.474,0,0,0-.462-1.142l-.128-.1a1.507,1.507,0,0,0-1.052-.4,1.607,1.607,0,0,0-.873.25,1.681,1.681,0,0,0-.616.687,1.154,1.154,0,0,1-1.078.706A1.154,1.154,0,0,1,17.4-8.33a1.681,1.681,0,0,0,.616.687,1.607,1.607,0,0,0,.873.25,1.583,1.583,0,0,0,1.162-.481A1.583,1.583,0,0,0,20.536-9.036Zm-5.468-2.836a1.174,1.174,0,0,1-.706.616,1.187,1.187,0,0,1-.937-.051,3.792,3.792,0,0,0-1.72-.4,3.779,3.779,0,0,0-1.271.218q.039,0,.122-.006t.122-.006a4,4,0,0,1,2.188.642,4.1,4.1,0,0,1,1.521,1.707,1.187,1.187,0,0,1,.045.943,1.192,1.192,0,0,1-.635.7,1.1,1.1,0,0,1-.5.116,1.1,1.1,0,0,1,.5.116,1.192,1.192,0,0,1,.635.7,1.187,1.187,0,0,1-.045.943,4.1,4.1,0,0,1-1.521,1.707,4,4,0,0,1-2.188.642H10.6q-.205-.026-.565-.051L6.315-3.684,3.247-2.143a.823.823,0,0,1-.372.09A.753.753,0,0,1,2.143-2.5L.09-6.61a.836.836,0,0,1-.051-.61A.793.793,0,0,1,.411-7.7L3.093-9.228l1.9-3.427A10.014,10.014,0,0,1,6.167-16.4a10.319,10.319,0,0,1,2.509-3.035,1.22,1.22,0,0,1,.9-.276,1.154,1.154,0,0,1,.828.443,1.21,1.21,0,0,1,.276.9,1.192,1.192,0,0,1-.443.834,8.169,8.169,0,0,0-1.5,1.643,7.573,7.573,0,0,1,3.427-1.3,1.211,1.211,0,0,1,.918.244,1.132,1.132,0,0,1,.456.821,1.211,1.211,0,0,1-.244.918,1.132,1.132,0,0,1-.821.456,5.1,5.1,0,0,0-2.041.706,5.976,5.976,0,0,1,1.271-.128,6.326,6.326,0,0,1,2.8.642,1.215,1.215,0,0,1,.629.712A1.172,1.172,0,0,1,15.068-11.872Zm12.36-2.054,2.054,4.107a.836.836,0,0,1,.051.61.793.793,0,0,1-.372.481L26.478-7.2l-1.9,3.427A10.014,10.014,0,0,1,23.4-.032,10.319,10.319,0,0,1,20.9,3a1.228,1.228,0,0,1-1.733-.167,1.21,1.21,0,0,1-.276-.9,1.192,1.192,0,0,1,.443-.834,8.169,8.169,0,0,0,1.5-1.643A7.573,7.573,0,0,1,17.4.757.684.684,0,0,1,17.25.77a1.2,1.2,0,0,1-.815-.308,1.159,1.159,0,0,1-.4-.77,1.211,1.211,0,0,1,.244-.918,1.132,1.132,0,0,1,.821-.456,5.1,5.1,0,0,0,2.041-.706,5.976,5.976,0,0,1-1.271.128,6.326,6.326,0,0,1-2.8-.642,1.215,1.215,0,0,1-.629-.712,1.172,1.172,0,0,1,.064-.943,1.174,1.174,0,0,1,.706-.616,1.187,1.187,0,0,1,.937.051,3.792,3.792,0,0,0,1.72.4,3.779,3.779,0,0,0,1.271-.218q-.039,0-.122.006t-.122.006A4,4,0,0,1,16.7-5.57a4.1,4.1,0,0,1-1.521-1.707,1.187,1.187,0,0,1-.045-.943,1.192,1.192,0,0,1,.635-.7,1.1,1.1,0,0,1,.5-.116,1.1,1.1,0,0,1-.5-.116,1.192,1.192,0,0,1-.635-.7,1.187,1.187,0,0,1,.045-.943A4.1,4.1,0,0,1,16.7-12.5a4,4,0,0,1,2.188-.642h.09q.18.026.539.051l3.735.347,3.068-1.54a.823.823,0,0,1,.372-.09A.753.753,0,0,1,27.428-13.926Z" transform="translate(-0.004 19.713)"/>
    </symbol>
    <symbol id="file-img" viewBox="0 0 59 63">
        <path d="M15.047-28.687A6.2,6.2,0,0,1,14.2-30.8q-.563-2.531.563-2.672a.637.637,0,0,1,.7.141,2.443,2.443,0,0,1,.492.773,6,6,0,0,1,.352,1.336,3.858,3.858,0,0,1,0,2.531,1.4,1.4,0,0,0-.633-.141A1.4,1.4,0,0,0,15.047-28.687ZM7.453-27.562a5.9,5.9,0,0,0-2.391-.562q-.7.141-1.617.352t-1.125.281a.641.641,0,0,1-.492-.07q0-.422.844-.984A4.113,4.113,0,0,1,5.2-29.391a5.309,5.309,0,0,1,1.688.281,7.853,7.853,0,0,1,1.055.633,1.719,1.719,0,0,1,.633.7q.141.352,0,.492T7.453-27.562Zm-1.266.7a5.228,5.228,0,0,1,1.266.141,1.343,1.343,0,0,1,.773.422q.211.281.141.422t-.633,0H6.891a5.748,5.748,0,0,0-1.828.281q-.563.281-.7.141-.281-.422.281-.844A3.34,3.34,0,0,1,6.188-26.859Zm7.594,2.391a.946.946,0,0,1-.844.422,1.349,1.349,0,0,1-.984-.422.78.78,0,0,1-.141-.984.812.812,0,0,1,.844-.352,1.652,1.652,0,0,1,.984.492A.612.612,0,0,1,13.781-24.469Zm1.477-2.25a.774.774,0,0,1,.773-.562.665.665,0,0,1,.7.563,1.854,1.854,0,0,1-.07,1.125.733.733,0,0,1-.7.563.733.733,0,0,1-.7-.562A1.553,1.553,0,0,1,15.258-26.719ZM-14.766-16.172h.422q.141.141.141.211t0,.07a1.315,1.315,0,0,1-.984.7,1.592,1.592,0,0,1-1.336-.352,2.31,2.31,0,0,1-.773-1.617,5.175,5.175,0,0,1,.281-1.336,3.924,3.924,0,0,0,.211-1.547,1.419,1.419,0,0,0-.773-1.055,1.733,1.733,0,0,0-.984-.281,1.873,1.873,0,0,0-1.547.7q-.141.281-.281.633t-.211.563a.883.883,0,0,1-.211.352.405.405,0,0,1-.281.141.225.225,0,0,1-.211-.141,2.728,2.728,0,0,1-.141-.352,1.327,1.327,0,0,1-.07-.422,3.025,3.025,0,0,1,.07-.562,2.51,2.51,0,0,1,.211-.633q.141-.281.352-.633a3.269,3.269,0,0,1,.492-.633,2.249,2.249,0,0,1,2.25-.914,3.155,3.155,0,0,1,2.672,1.758,3.327,3.327,0,0,1-.141,2.813q-.7,1.688-.281,2.109Q-15.609-16.031-14.766-16.172Zm42.188-2.391a1.972,1.972,0,0,1,1.547.914,4.191,4.191,0,0,1,.7,2.6,16.36,16.36,0,0,1-1.266,5.906,20.228,20.228,0,0,1-5.414,7.664,23.292,23.292,0,0,1-7.875,4.641A26.683,26.683,0,0,1,5.977,4.57,29.883,29.883,0,0,1-3.234,3.023,22.8,22.8,0,0,1-11.25-1.758a22.637,22.637,0,0,1-5.625-7.8,9.451,9.451,0,0,1-6.258-2.461A9.084,9.084,0,0,1-26.437-18v-1.125a10.122,10.122,0,0,1,.7-3.656l-2.109-1.687a5.769,5.769,0,0,1-1.9-4.781,15.616,15.616,0,0,1,1.9-6.68A56.086,56.086,0,0,1-23.2-43.383a42.655,42.655,0,0,1,6.328-6.961,64.284,64.284,0,0,1,7.031-5.414A16.187,16.187,0,0,1-3.234-58.5a6.144,6.144,0,0,1,5.063,1.266l.844.773q.844.773,1.617,1.547l.773.773,1.828-.7q6.187-2.531,10.617-1.477t4.43,5.273q0,4.219-4.781,9.141a6.891,6.891,0,0,1,1.758,2.391,13.116,13.116,0,0,1,.914,2.813,19.039,19.039,0,0,1,.352,2.672q.07,1.266.07,2.391v1.406q4.5,1.266,5.766,2.672a4.337,4.337,0,0,1,.422,6.047Q27-19.969,27.422-18.562Zm-44.437,6.75A4.252,4.252,0,0,0-12.867-14.2a9.262,9.262,0,0,0,.633-5.766q-.7-4.219-3.8-5.414a5.533,5.533,0,0,0-5.766.914q-2.672,2.109-2.25,6.188a6.868,6.868,0,0,0,2.391,4.43A7.437,7.437,0,0,0-17.016-11.812Zm-2.672-16.031a42.462,42.462,0,0,1,13.219-18.7q.984-.7,1.969-1.477t1.9-1.406q.914-.633,1.758-1.2l1.477-.984q.633-.422,1.125-.7t.773-.422l.281-.141Q.281-55.969-.562-56.109q-2.25-.7-6.187,1.2a35.478,35.478,0,0,0-8.156,5.7,49.045,49.045,0,0,0-7.453,8.438Q-29.25-30.937-27-26.719a9.934,9.934,0,0,0,2.25,2.109A7.436,7.436,0,0,1-19.687-27.844Zm33.609,14.2.141.281q-3.938,1.828-9.984-.141.141,1.547,2.25,2.391,3.234,1.406,8.437.352a26.139,26.139,0,0,0,9.563-4.008h.141v.141Q21.375-10.266,13.43-9.141T3.094-11.531a3.988,3.988,0,0,1-.281-4.078,2.781,2.781,0,0,1,3.094-1.828,26.086,26.086,0,0,0,14.2-1.828q5.484-2.531,5.063-5.344a2.519,2.519,0,0,0-.7-1.406A8.292,8.292,0,0,0,20.813-27.7a9.183,9.183,0,0,1-1.406-.422A2.057,2.057,0,0,1,18-30.094q0-1.547-.141-3.937-.141-3.8-1.687-4.781a2.057,2.057,0,0,0-1.266-.422,1.248,1.248,0,0,0-.562.141,3.23,3.23,0,0,0-1.969.984,7.45,7.45,0,0,1-4.781,1.688,9.773,9.773,0,0,0-1.617-.211q-1.055-.07-1.617-.07l-.7-.141A6.1,6.1,0,0,0-.352-35.227a6.036,6.036,0,0,0-2.18,4.008,7.13,7.13,0,0,0,.141,3.164,8.39,8.39,0,0,0,.984,2.32A14.864,14.864,0,0,0,.07-23.906a8.514,8.514,0,0,1,1.055,1.266.954.954,0,0,1,.281.7.81.81,0,0,1-.281.563,11.356,11.356,0,0,0-2.812,5.414,11.68,11.68,0,0,0,.141,5.977,8.017,8.017,0,0,0,.422,1.406A11.363,11.363,0,0,0,5.906-2.461a16.38,16.38,0,0,0,10.687-.07A27.972,27.972,0,0,0,19.547-3.8a18.155,18.155,0,0,0,4.359-3.234A13.522,13.522,0,0,0,27.563-14.2a3.262,3.262,0,0,0-.211-1.9q-.352-.633-.7-.7a1.5,1.5,0,0,0-.773.07,15.059,15.059,0,0,0-.984-3.516,20.713,20.713,0,0,1-7.172,3.656,34.2,34.2,0,0,1-6.047,1.055,16.192,16.192,0,0,1-4.148-.07,6.091,6.091,0,0,0-2.18-.141,1.393,1.393,0,0,0-1.125,1.125,21.249,21.249,0,0,0,2.742.7,21.011,21.011,0,0,0,2.672.352q1.2.07,2.18.07a6.674,6.674,0,0,0,1.547-.141ZM-7.453-40.781v0a.124.124,0,0,0,.141.141,20.161,20.161,0,0,1,2.32-1.406q1.336-.7,4.148-1.828A15.047,15.047,0,0,1,4.781-45a51.81,51.81,0,0,1,6.891.563.124.124,0,0,0,.141-.141v-.141a11.313,11.313,0,0,0-5.766-1.547H5.906v-.141a6.364,6.364,0,0,1,1.125-1.125.124.124,0,0,0-.141-.141A14.489,14.489,0,0,0,0-45.281H-.141a5.6,5.6,0,0,1,.7-1.828v-.141H.422A27.233,27.233,0,0,0-7.453-40.781Z" transform="translate(29.745 58.584)" />
    </symbol>
    <symbol id="file-file" viewBox="0 0 50 72">
        <path d="M17.3-32.766q4.641,1.125,6.188,4.5a21.05,21.05,0,0,1,1.547,8.719q0,12.375-7.383,20.461T-1.828,9A22.827,22.827,0,0,1-18.352,2.531q-6.68-6.469-6.68-14.484t7.172-9.984a15.487,15.487,0,0,1-1.125-4.219,7.54,7.54,0,0,1,2.18-4.992,6.286,6.286,0,0,1,4.711-2.461,7.653,7.653,0,0,1,2.813.7q-6.609-18.7-6.609-22.781a9.524,9.524,0,0,1,.422-2.883,7.247,7.247,0,0,1,1.2-2.32A5.364,5.364,0,0,1-12.3-62.437,6.728,6.728,0,0,1-9.422-63q5.2,0,12.938,23.344a3.238,3.238,0,0,0,.422.844q.141-.281,1.406-3.867t2.391-6.187q1.125-2.6,2.742-5.906a19.118,19.118,0,0,1,3.445-5.133,5.267,5.267,0,0,1,3.656-1.828,5.424,5.424,0,0,1,4.43,1.969,7.5,7.5,0,0,1,1.617,4.922Q23.625-50.484,17.3-32.766ZM12.375-47.812,7.734-34.594l4.781.844q6.609-18.281,6.609-20.812,0-2.25-1.547-2.25Q15.328-56.812,12.375-47.812ZM-11.531-56.25q0,4.078,6.469,20.953.844-.562,4.922-.141l-4.781-14.2q-3.234-9.422-5.484-8.719Q-11.531-58.078-11.531-56.25Zm-.281,27.563a1.987,1.987,0,0,0-1.2.492A5.484,5.484,0,0,0-14.133-27a2.284,2.284,0,0,0-.492,1.266q0,2.391,4.289,8.086t6.4,5.7a1.336,1.336,0,0,0,1.125-.562,1.87,1.87,0,0,0,.422-1.125q0-2.109-3.375-8.578T-11.812-28.687ZM14.063-2.531A21.994,21.994,0,0,0,19.2-12.094a27.688,27.688,0,0,0,1.055-9.7q-.422-4.078-1.828-5.2-2.25-1.969-8.508-3.094a62.712,62.712,0,0,0-10.9-1.125,3.235,3.235,0,0,0-1.687.352q-.563.352-.633.633a4.658,4.658,0,0,0-.07.984q0,5.625,16.031,5.484H13.5q2.109,0,2.391,2.953a12.173,12.173,0,0,1-3.8,2.25,15.9,15.9,0,0,0-3.8,1.828,15.832,15.832,0,0,0-4.43,4.57A10.2,10.2,0,0,0,2.109-6.609a12.263,12.263,0,0,0,.773,3.445A12.344,12.344,0,0,1,3.656.422L3.516.914l-.141.492Q-2.25,1.125-2.531-7.172H-4.219A4.193,4.193,0,0,1-5.273-3.234,5.273,5.273,0,0,1-9.562-1.266q-4.219,0-7.664-4.57t-.492-7.664q.844,1.266,1.969,2.742t1.617,2.109a14.536,14.536,0,0,0,1.2,1.336,4.238,4.238,0,0,0,1.2.914,3.03,3.03,0,0,0,1.2.211,2.305,2.305,0,0,0,1.055-.352,1.039,1.039,0,0,0,.633-.914q0-1.406-3.234-5.836t-4.5-4.43q-2.109,0-3.234,2.531t.422,7.172a20.25,20.25,0,0,0,7.1,9.07,18.733,18.733,0,0,0,11.039,3.3A19.777,19.777,0,0,0,14.063-2.531ZM.281-20.25q.984,2.813,1.266,3.516a23.66,23.66,0,0,1,2.813-2.672Z" transform="translate(25.031 63)"/>
    </symbol>
    <symbol id="repeat" viewBox="0 0 24 24">
        <path d="M20.655-20.411l.188,3.88a13.163,13.163,0,0,0-8.838-4.094h-.013A11.623,11.623,0,0,0,.576-11.165a.677.677,0,0,0-.009.1.563.563,0,0,0,.563.563h2.3a.59.59,0,0,0,.547-.434,8.655,8.655,0,0,1,8.016-6.314A9.217,9.217,0,0,1,18.835-13.6l-4.756-.228h-.027a.563.563,0,0,0-.562.563h0v2.222a.563.563,0,0,0,.563.563h9.385A.563.563,0,0,0,24-11.046v-9.391A.563.563,0,0,0,23.438-21h-2.22a.563.563,0,0,0-.562.563C20.655-20.43,20.655-20.418,20.655-20.411ZM11.992-.75h-.007A9.2,9.2,0,0,1,5.148-4.4l4.772.228h.027a.563.563,0,0,0,.563-.562h0V-6.953a.563.563,0,0,0-.563-.562H.563A.563.563,0,0,0,0-6.953v9.39A.563.563,0,0,0,.563,3h2.22a.563.563,0,0,0,.563-.562c0-.008,0-.02,0-.028L3.15-1.461a13.165,13.165,0,0,0,8.831,4.086h.011a11.623,11.623,0,0,0,11.416-9.46.677.677,0,0,0,.009-.1.563.563,0,0,0-.562-.562h-2.3a.59.59,0,0,0-.547.434A8.652,8.652,0,0,1,11.994-.75Z" transform="translate(0 21)"/>
    </symbol>
    <symbol id="alarm" viewBox="0 0 20 17">
        <path d="M-2.565-13.252l-3.128,3.127H-9.281a.844.844,0,0,0-.844.844v5.063a.844.844,0,0,0,.844.844h3.588L-2.565-.248a.844.844,0,0,0,1.44-.6V-12.656A.844.844,0,0,0-2.565-13.252Zm8.2-1.8a.85.85,0,0,0-1.178.244A.851.851,0,0,0,4.7-13.626,8.2,8.2,0,0,1,8.424-6.75,8.2,8.2,0,0,1,4.7.126a.851.851,0,1,0,.934,1.422,9.9,9.9,0,0,0,4.488-8.3A9.9,9.9,0,0,0,5.637-15.048ZM6.75-6.75a6.491,6.491,0,0,0-3.015-5.493.84.84,0,0,0-1.164.262.854.854,0,0,0,.26,1.173A4.8,4.8,0,0,1,5.063-6.75,4.8,4.8,0,0,1,2.831-2.692a.854.854,0,0,0-.26,1.173.842.842,0,0,0,1.164.262A6.491,6.491,0,0,0,6.75-6.75Zm-4.984-2.7A.847.847,0,0,0,.619-9.12.845.845,0,0,0,.952-7.974,1.4,1.4,0,0,1,1.688-6.75,1.4,1.4,0,0,1,.952-5.526.845.845,0,0,0,.62-4.38a.845.845,0,0,0,1.146.332,3.092,3.092,0,0,0,1.609-2.7A3.09,3.09,0,0,0,1.766-9.452Z" transform="translate(10.125 15.188)" fill="#f5ba95"/>
    </symbol>
</svg>