<svg width="0" height="0">
	<symbol id="icon-search" viewBox="0 0 515 515" xmlns="http://www.w3.org/2000/svg">
		<path d="m378.344 332.78c25.37-34.645 40.545-77.2 40.545-123.333 0-115.484-93.961-209.445-209.445-209.445s-209.444 93.961-209.444 209.445 93.961 209.445 209.445 209.445c46.133 0 88.692-15.177 123.337-40.547l137.212 137.212 45.564-45.564c0-.001-137.214-137.213-137.214-137.213zm-168.899 21.667c-79.958 0-145-65.042-145-145s65.042-145 145-145 145 65.042 145 145-65.043 145-145 145z"/>
	</symbol>
    <symbol id="icon-scale" viewBox="0 0 490 490" xmlns="http://www.w3.org/2000/svg">
        <path id="XMLID_202_" d="M482.676,4.47c-3.572-3.57-8.673-5.133-13.632-4.209L330.437,26.231 c-6.266,1.18-11.351,5.709-13.232,11.797c-1.881,6.076-0.24,12.708,4.256,17.203l21.954,21.953l-68.59,68.563 c-5.582,5.579-5.579,14.628,0.005,20.205l47.182,47.12c5.578,5.57,14.615,5.567,20.189-0.007l68.556-68.554l21.97,21.953 c4.512,4.512,11.159,6.139,17.25,4.241c6.091-1.915,10.619-7.032,11.75-13.313l25.237-139.309 C487.857,13.11,486.262,8.024,482.676,4.47z"/>
        <path id="XMLID_200_" d="M79.019,345.264L57.05,323.311c-4.514-4.513-11.16-6.139-17.25-4.242 c-6.092,1.914-10.618,7.031-11.752,13.313L2.811,471.692c-0.89,4.973,0.703,10.059,4.29,13.613 c3.571,3.57,8.673,5.135,13.631,4.209l138.606-25.971c6.267-1.18,11.351-5.709,13.233-11.798 c1.881-6.075,0.239-12.706-4.258-17.202l-21.952-21.953l68.663-68.454c5.594-5.577,5.598-14.636,0.01-20.218l-47.271-47.214 c-5.578-5.571-14.616-5.569-20.19,0.006L79.019,345.264z"/>
    </symbol>
    <symbol id="icon-like" viewBox="0 0 512 512" xmlns="http://www.w3.org/2000/svg">
        <path d="M474.644,74.27C449.391,45.616,414.358,29.836,376,29.836c-53.948,0-88.103,32.22-107.255,59.25 c-4.969,7.014-9.196,14.047-12.745,20.665c-3.549-6.618-7.775-13.651-12.745-20.665c-19.152-27.03-53.307-59.25-107.255-59.25 c-38.358,0-73.391,15.781-98.645,44.435C13.267,101.605,0,138.213,0,177.351c0,42.603,16.633,82.228,52.345,124.7 c31.917,37.96,77.834,77.088,131.005,122.397c19.813,16.884,40.302,34.344,62.115,53.429l0.655,0.574 c2.828,2.476,6.354,3.713,9.88,3.713s7.052-1.238,9.88-3.713l0.655-0.574c21.813-19.085,42.302-36.544,62.118-53.431 c53.168-45.306,99.085-84.434,131.002-122.395C495.367,259.578,512,219.954,512,177.351 C512,138.213,498.733,101.605,474.644,74.27z M309.193,401.614c-17.08,14.554-34.658,29.533-53.193,45.646 c-18.534-16.111-36.113-31.091-53.196-45.648C98.745,312.939,30,254.358,30,177.351c0-31.83,10.605-61.394,29.862-83.245 C79.34,72.007,106.379,59.836,136,59.836c41.129,0,67.716,25.338,82.776,46.594c13.509,19.064,20.558,38.282,22.962,45.659 c2.011,6.175,7.768,10.354,14.262,10.354c6.494,0,12.251-4.179,14.262-10.354c2.404-7.377,9.453-26.595,22.962-45.66 c15.06-21.255,41.647-46.593,82.776-46.593c29.621,0,56.66,12.171,76.137,34.27C471.395,115.957,482,145.521,482,177.351 C482,254.358,413.255,312.939,309.193,401.614z"/>
    </symbol>
    <symbol id="icon-ig" viewBox="0 0 512 512" xmlns="http://www.w3.org/2000/svg">
        <path d="m305 256c0 27.0625-21.9375 49-49 49s-49-21.9375-49-49 21.9375-49 49-49 49 21.9375 49 49zm0 0"/>
        <path d="m370.59375 169.304688c-2.355469-6.382813-6.113281-12.160157-10.996094-16.902344-4.742187-4.882813-10.515625-8.640625-16.902344-10.996094-5.179687-2.011719-12.960937-4.40625-27.292968-5.058594-15.503906-.707031-20.152344-.859375-59.402344-.859375-39.253906 0-43.902344.148438-59.402344.855469-14.332031.65625-22.117187 3.050781-27.292968 5.0625-6.386719 2.355469-12.164063 6.113281-16.902344 10.996094-4.882813 4.742187-8.640625 10.515625-11 16.902344-2.011719 5.179687-4.40625 12.964843-5.058594 27.296874-.707031 15.5-.859375 20.148438-.859375 59.402344 0 39.25.152344 43.898438.859375 59.402344.652344 14.332031 3.046875 22.113281 5.058594 27.292969 2.359375 6.386719 6.113281 12.160156 10.996094 16.902343 4.742187 4.882813 10.515624 8.640626 16.902343 10.996094 5.179688 2.015625 12.964844 4.410156 27.296875 5.0625 15.5.707032 20.144532.855469 59.398438.855469 39.257812 0 43.90625-.148437 59.402344-.855469 14.332031-.652344 22.117187-3.046875 27.296874-5.0625 12.820313-4.945312 22.953126-15.078125 27.898438-27.898437 2.011719-5.179688 4.40625-12.960938 5.0625-27.292969.707031-15.503906.855469-20.152344.855469-59.402344 0-39.253906-.148438-43.902344-.855469-59.402344-.652344-14.332031-3.046875-22.117187-5.0625-27.296874zm-114.59375 162.179687c-41.691406 0-75.488281-33.792969-75.488281-75.484375s33.796875-75.484375 75.488281-75.484375c41.6875 0 75.484375 33.792969 75.484375 75.484375s-33.796875 75.484375-75.484375 75.484375zm78.46875-136.3125c-9.742188 0-17.640625-7.898437-17.640625-17.640625s7.898437-17.640625 17.640625-17.640625 17.640625 7.898437 17.640625 17.640625c-.003906 9.742188-7.898437 17.640625-17.640625 17.640625zm0 0"/>
        <path d="m256 0c-141.363281 0-256 114.636719-256 256s114.636719 256 256 256 256-114.636719 256-256-114.636719-256-256-256zm146.113281 316.605469c-.710937 15.648437-3.199219 26.332031-6.832031 35.683593-7.636719 19.746094-23.246094 35.355469-42.992188 42.992188-9.347656 3.632812-20.035156 6.117188-35.679687 6.832031-15.675781.714844-20.683594.886719-60.605469.886719-39.925781 0-44.929687-.171875-60.609375-.886719-15.644531-.714843-26.332031-3.199219-35.679687-6.832031-9.8125-3.691406-18.695313-9.476562-26.039063-16.957031-7.476562-7.339844-13.261719-16.226563-16.953125-26.035157-3.632812-9.347656-6.121094-20.035156-6.832031-35.679687-.722656-15.679687-.890625-20.6875-.890625-60.609375s.167969-44.929688.886719-60.605469c.710937-15.648437 3.195312-26.332031 6.828125-35.683593 3.691406-9.808594 9.480468-18.695313 16.960937-26.035157 7.339844-7.480469 16.226563-13.265625 26.035157-16.957031 9.351562-3.632812 20.035156-6.117188 35.683593-6.832031 15.675781-.714844 20.683594-.886719 60.605469-.886719s44.929688.171875 60.605469.890625c15.648437.710937 26.332031 3.195313 35.683593 6.824219 9.808594 3.691406 18.695313 9.480468 26.039063 16.960937 7.476563 7.34375 13.265625 16.226563 16.953125 26.035157 3.636719 9.351562 6.121094 20.035156 6.835938 35.683593.714843 15.675781.882812 20.683594.882812 60.605469s-.167969 44.929688-.886719 60.605469zm0 0"/>
    </symbol>
    <symbol id="icon-fb" viewBox="0 0 98 98" xmlns="http://www.w3.org/2000/svg">
        <path d="M48.875,0C21.882,0,0,21.882,0,48.875S21.882,97.75,48.875,97.75S97.75,75.868,97.75,48.875S75.868,0,48.875,0z M67.521,24.89l-6.76,0.003c-5.301,0-6.326,2.519-6.326,6.215v8.15h12.641L67.07,52.023H54.436v32.758H41.251V52.023H30.229V39.258 h11.022v-9.414c0-10.925,6.675-16.875,16.42-16.875l9.851,0.015V24.89L67.521,24.89z"/>
    </symbol>
    <symbol id="icon-point" xmlns="http://www.w3.org/2000/svg" viewBox="0 0 14 20">
        <path d="M716.79,9534.531a3.172,3.172,0,1,0,3.172,3.173A3.147,3.147,0,0,0,716.79,9534.531Zm0,5.552a2.379,2.379,0,1,1,2.379-2.379A2.352,2.352,0,0,1,716.79,9540.083Zm0-9.517a7.2,7.2,0,0,0-7.138,7.138c0,5.853,7.138,12.689,7.138,12.689s7.138-6.837,7.138-12.689A7.2,7.2,0,0,0,716.79,9530.566Zm0,18.638c-1.63-1.708-6.345-6.97-6.345-11.5a6.345,6.345,0,0,1,12.69,0C723.135,9542.234,718.42,9547.5,716.79,9549.2Z" transform="translate(-709.652 -9530.566)"/>
    </symbol>
    <symbol id="icon-email" viewBox="0 0 19 14" xmlns="http://www.w3.org/2000/svg">
        <path d="M931.17,9533.342v14.275H950.2v-14.275Zm9.444,8.188-8.074-7.349,16.192-.043Zm-2.332-1.05-6.32,5.753v-11.5Zm.589.537,1.742,1.586,1.742-1.586,6.378,5.808H932.49Zm4.073-.537,6.466-5.889v11.777Z" transform="translate(-931.17 -9533.342)"/>
    </symbol>
    <symbol id="icon-phone" viewBox="0 0 16 16" xmlns="http://www.w3.org/2000/svg">
        <path d="M1094.63,9533.315a1.89,1.89,0,0,1,.892.221,2.737,2.737,0,0,1,1.456,1.639,2.121,2.121,0,0,1-.238,1.684l-.791,1.307,5.016,4.973,1.319-.784a2.2,2.2,0,0,1,1.127-.313,2.592,2.592,0,0,1,2.247,1.564,1.929,1.929,0,0,1-.7,2.51l-1.849,1.16a2.215,2.215,0,0,1-2.73-.3l-8.295-8.223a2.153,2.153,0,0,1-.3-2.706l1.139-1.784a2.051,2.051,0,0,1,1.713-.944m0-.786a2.839,2.839,0,0,0-2.384,1.31l-1.139,1.784a2.946,2.946,0,0,0,.413,3.683l8.3,8.224a3.01,3.01,0,0,0,3.715.409l1.849-1.16a2.7,2.7,0,0,0,.983-3.536,3.349,3.349,0,0,0-2.951-1.987,3,3,0,0,0-1.535.425l-.788.469-4.14-4.1.473-.781a3.1,3.1,0,0,0-1.526-4.421,2.7,2.7,0,0,0-1.265-.312Z" transform="translate(-1090.644 -9532.529)"/>
    </symbol>
    <symbol id="icon-anchor" viewBox="0 0 54 46" xmlns="http://www.w3.org/2000/svg">
        <path d="M933.94,8331.653l-6.555-11.362-11.354,6.561.993,1.721,8.617-4.978-.764,2.2A18.619,18.619,0,0,1,908,8339v-22h8v-2h-8v-6a7.113,7.113,0,0,0,6-7,7,7,0,0,0-14,0,7.113,7.113,0,0,0,6,7v6h-8v2h8v22c-10.522-.5-15.7-8.779-16.974-13.269l-.771-2.12,8.589,4.962.993-1.721-11.354-6.561-6.555,11.362,1.721.993,4.773-8.271.717,1.968C888.575,8331.4,894.607,8341,907,8341s18.35-9.6,19.771-14.6l.692-2,4.757,8.245ZM902,8302a5,5,0,1,1,5,5A5.029,5.029,0,0,1,902,8302Z" transform="translate(-879.927 -8295)"/>
    </symbol>
    <symbol id="icon-cup" viewBox="0 0 42 46" xmlns="http://www.w3.org/2000/svg">
        <path d="M1026.69,8314.993h-3.71v-4H989v19.035A10.966,10.966,0,0,0,999.961,8341h12.056a10.962,10.962,0,0,0,10.914-10h.76c2.38,0,4.661-2.238,5.31-4.313l2-7.377A4.312,4.312,0,0,0,1026.69,8314.993Zm-5.709,15.034a8.978,8.978,0,0,1-8.964,8.972H999.961a8.978,8.978,0,0,1-8.964-8.972v-17.035h29.983Zm6.1-3.909c-.436,1.339-2,2.879-3.392,2.879H1023v-12h3.685a2.316,2.316,0,0,1,2.3,2.087ZM998.992,8299h-2v8h2Zm8-4h-2v12h2Zm8,4h-2v8h2Z" transform="translate(-988.999 -8295)"/>
    </symbol>
    <symbol id="icon-like2" viewBox="0 0 512 512" xmlns="http://www.w3.org/2000/svg">
        <path d="M512,304c0-12.821-5.099-24.768-13.888-33.579c9.963-10.901,15.04-25.515,13.653-40.725
            c-2.496-27.115-26.923-48.363-55.637-48.363H324.352c6.528-19.819,16.981-56.149,16.981-85.333c0-46.272-39.317-85.333-64-85.333
            c-22.144,0-37.995,12.48-38.656,12.992c-2.539,2.027-4.011,5.099-4.011,8.341v72.341L173.205,237.44l-2.539,1.301v-4.075
            c0-5.888-4.779-10.667-10.667-10.667H53.333C23.915,224,0,247.915,0,277.333V448c0,29.419,23.915,53.333,53.333,53.333h64
            c23.061,0,42.773-14.72,50.197-35.264C185.28,475.2,209.173,480,224,480h195.819c23.232,0,43.563-15.659,48.341-37.248
            c2.453-11.136,1.024-22.336-3.84-32.064c15.744-7.915,26.347-24.192,26.347-42.688c0-7.552-1.728-14.784-4.992-21.312
            C501.419,338.752,512,322.496,512,304z M467.008,330.325c-4.117,0.491-7.595,3.285-8.917,7.232
            c-1.301,3.947-0.213,8.277,2.816,11.136c5.419,5.099,8.427,11.968,8.427,19.307c0,13.461-10.176,24.768-23.637,26.325
            c-4.117,0.491-7.595,3.285-8.917,7.232c-1.301,3.947-0.213,8.277,2.816,11.136c7.019,6.613,9.835,15.893,7.723,25.451
            c-2.624,11.904-14.187,20.523-27.499,20.523H224c-17.323,0-46.379-8.128-56.448-18.219c-3.051-3.029-7.659-3.925-11.627-2.304
            c-3.989,1.643-6.592,5.547-6.592,9.856c0,17.643-14.357,32-32,32h-64c-17.643,0-32-14.357-32-32V277.333c0-17.643,14.357-32,32-32
            h96V256c0,3.691,1.92,7.125,5.077,9.088c3.115,1.877,7.04,2.069,10.368,0.448l21.333-10.667c2.155-1.067,3.883-2.859,4.907-5.056
            l64-138.667c0.64-1.408,0.981-2.944,0.981-4.48V37.781C260.437,35.328,268.139,32,277.333,32C289.024,32,320,61.056,320,96
            c0,37.547-20.437,91.669-20.629,92.203c-1.237,3.264-0.811,6.955,1.173,9.856c2.005,2.88,5.291,4.608,8.789,4.608h146.795
            c17.792,0,32.896,12.736,34.389,28.992c1.131,12.16-4.715,23.723-15.189,30.187c-3.264,2.005-5.205,5.632-5.056,9.493
            s2.368,7.317,5.781,9.088c9.024,4.587,14.613,13.632,14.613,23.573C490.667,317.461,480.491,328.768,467.008,330.325z"/>
        <path d="M160,245.333c-5.888,0-10.667,4.779-10.667,10.667v192c0,5.888,4.779,10.667,10.667,10.667s10.667-4.779,10.667-10.667 V256C170.667,250.112,165.888,245.333,160,245.333z"/>
    </symbol>
    <symbol id="icon-eye" xmlns="http://www.w3.org/2000/svg" viewBox="0 0 576 512">
        <path d="M288 144a110.94 110.94 0 0 0-31.24 5 55.4 55.4 0 0 1 7.24 27 56 56 0 0 1-56 56 55.4 55.4 0 0 1-27-7.24A111.71 111.71 0 1 0 288 144zm284.52 97.4C518.29 135.59 410.93 64 288 64S57.68 135.64 3.48 241.41a32.35 32.35 0 0 0 0 29.19C57.71 376.41 165.07 448 288 448s230.32-71.64 284.52-177.41a32.35 32.35 0 0 0 0-29.19zM288 400c-98.65 0-189.09-55-237.93-144C98.91 167 189.34 112 288 112s189.09 55 237.93 144C477.1 345 386.66 400 288 400z"/>
    </symbol>
</svg>