<svg width="36" height="37" viewBox="0 0 36 37" fill="none" xmlns="http://www.w3.org/2000/svg">
<rect opacity="0.8" y="0.861816" width="36" height="36" rx="6" fill="#002677"/>
<path fill-rule="evenodd" clip-rule="evenodd" d="M17.9474 25.6918C21.7485 25.6918 24.83 22.6103 24.83 18.8092C24.83 15.008 21.7485 11.9266 17.9474 11.9266C14.1462 11.9266 11.0648 15.008 11.0648 18.8092C11.0648 22.6103 14.1462 25.6918 17.9474 25.6918ZM17.9474 27.7566C20.0454 27.7566 21.9748 27.0344 23.5005 25.8252L27.5384 29.8631L28.9984 28.4031L24.9609 24.3655C26.1716 22.8393 26.8947 20.9087 26.8947 18.8092C26.8947 13.8677 22.8889 9.86182 17.9474 9.86182C13.0059 9.86182 9 13.8677 9 18.8092C9 23.7507 13.0059 27.7566 17.9474 27.7566ZM18.9794 14.6794V17.7766H22.078V19.8414H18.9794V22.9385H16.9146V19.8414H13.8189V17.7766H16.9146V14.6794H18.9794Z" fill="white"/>
</svg>
