<svg width="51" height="66" viewBox="0 0 51 66" fill="none" xmlns="http://www.w3.org/2000/svg">
<path d="M13.0525 40.2164L12.5 40.3618V58.8618C12.5 61.6232 14.7386 63.8618 17.5 63.8618H36.7269C39.5209 63.8618 41.945 61.9334 42.5733 59.211L45.804 45.211C46.6717 41.4513 43.8162 37.8618 39.9577 37.8618H30V27.8618C30 25.1004 27.7614 22.8618 25 22.8618H22V28.6112C22 34.0624 18.3243 38.8291 13.0525 40.2164Z" stroke="#333333" stroke-width="4" stroke-linecap="round" stroke-linejoin="round"/>
<path d="M38 28.3618H48.5" stroke="#333333" stroke-width="4" stroke-linecap="round" stroke-linejoin="round"/>
<path d="M2 28.3618H12.5" stroke="#333333" stroke-width="4" stroke-linecap="round" stroke-linejoin="round"/>
<path d="M26 13.3618L26 2.86182" stroke="#333333" stroke-width="4" stroke-linecap="round" stroke-linejoin="round"/>
<path d="M8 10.8618L15.4246 18.2864" stroke="#333333" stroke-width="4" stroke-linecap="round" stroke-linejoin="round"/>
<path d="M35.335 17.8618L42.7596 10.4372" stroke="#333333" stroke-width="4" stroke-linecap="round" stroke-linejoin="round"/>
<rect x="2" y="39.8618" width="10" height="23" rx="3" stroke="#333333" stroke-width="4"/>
</svg>
