<svg width="18" height="26" viewBox="0 0 18 26" fill="none" xmlns="http://www.w3.org/2000/svg">
<path d="M15.3189 1.56621C14.1087 0.886098 12.6187 0.661304 11.1915 1.05632C9.85338 1.42671 8.57003 2.34212 7.62539 3.93807L0.110141 16.5804C-0.111095 16.9537 0.0114368 17.4261 0.383792 17.6354C0.756146 17.8446 1.23701 17.7115 1.45819 17.338L8.9735 4.69586C10.4675 2.17334 12.8951 2.00679 14.5183 2.91897C16.1415 3.83115 17.2085 5.96216 15.7151 8.48427C14.5707 10.4163 9.48673 19.0527 7.19893 22.9167C6.6727 23.8051 5.91121 24.3006 5.05517 24.3113C4.21169 24.322 3.40052 23.8662 2.98774 23.1495C2.56868 22.422 2.62773 21.532 3.15358 20.6439L11.3196 6.80296C11.5683 6.38297 11.8731 6.08591 12.1775 5.96692C12.3758 5.88897 12.5661 5.89158 12.7124 5.97379C13.046 6.1613 13.1406 6.76252 12.675 7.54845L8.29166 14.8514C8.07043 15.2247 8.19296 15.6971 8.56531 15.9063C8.93767 16.1156 9.41853 15.9825 9.63971 15.6089L14.0232 8.30575C15.0147 6.63217 14.5172 5.18521 13.5133 4.62119C12.9598 4.31035 12.2753 4.27616 11.6328 4.5271C10.9838 4.78097 10.4091 5.30581 9.97147 6.04496L1.80553 19.8863C0.993511 21.258 0.926001 22.7361 1.62027 23.9424C2.30173 25.1262 3.64286 25.8795 5.03613 25.8615C6.45472 25.8433 7.7348 25.0462 8.54703 23.6745C10.8349 19.8098 15.9188 11.1743 17.0631 9.24185C19.016 5.94369 17.6639 2.88404 15.3189 1.56621Z" fill="#002677"/>
</svg>
