<svg width="24" height="24" viewBox="0 0 24 24" fill="none" xmlns="http://www.w3.org/2000/svg">
<path d="M11.9999 1.71387C17.6802 1.71387 22.2857 6.3193 22.2857 11.9996C22.2857 17.6799 17.6802 22.2853 11.9999 22.2853C6.31966 22.2853 1.71423 17.6799 1.71423 11.9996C1.71423 6.3193 6.31966 1.71387 11.9999 1.71387ZM11.9999 3.42815C7.26595 3.42815 3.42852 7.26558 3.42852 11.9996C3.42852 16.7336 7.26595 20.571 11.9999 20.571C16.7339 20.571 20.5714 16.7336 20.5714 11.9996C20.5714 7.26558 16.7339 3.42815 11.9999 3.42815ZM12.0634 10.2853C12.2665 10.2853 12.3942 10.317 12.5065 10.377C12.6179 10.437 12.7054 10.5244 12.7654 10.6359C12.8254 10.7473 12.8571 10.8759 12.8571 11.079V16.3487C12.8571 16.5519 12.8254 16.6796 12.7654 16.7919C12.707 16.9021 12.6168 16.9923 12.5065 17.0507C12.3951 17.1107 12.2665 17.1424 12.0634 17.1424H11.9365C11.7334 17.1424 11.6057 17.1107 11.4934 17.0507C11.3831 16.9923 11.2929 16.9021 11.2345 16.7919C11.1745 16.6804 11.1428 16.5519 11.1428 16.3487V11.079C11.1428 10.8759 11.1745 10.7482 11.2345 10.6359C11.2929 10.5256 11.3831 10.4354 11.4934 10.377C11.6048 10.317 11.7334 10.2853 11.9365 10.2853H12.0634ZM11.9999 6.51387C12.1575 6.51387 12.3136 6.54491 12.4592 6.60521C12.6048 6.66552 12.737 6.75391 12.8485 6.86534C12.9599 6.97677 13.0483 7.10906 13.1086 7.25465C13.1689 7.40024 13.1999 7.55628 13.1999 7.71387C13.1999 7.87145 13.1689 8.0275 13.1086 8.17309C13.0483 8.31868 12.9599 8.45096 12.8485 8.56239C12.737 8.67382 12.6048 8.76222 12.4592 8.82252C12.3136 8.88283 12.1575 8.91387 11.9999 8.91387C11.6817 8.91387 11.3765 8.78744 11.1514 8.56239C10.9264 8.33735 10.7999 8.03213 10.7999 7.71387C10.7999 7.39561 10.9264 7.09038 11.1514 6.86534C11.3765 6.6403 11.6817 6.51387 11.9999 6.51387Z" fill="#E35205"/>
</svg>
